<mxfile host="Electron" agent="Mozilla/5.0 (Macintosh; Intel Mac OS X 10_15_7) AppleWebKit/537.36 (KHTML, like Gecko) draw.io/24.7.8 Chrome/128.0.6613.36 Electron/32.0.1 Safari/537.36" version="24.7.8">
  <diagram id="Ht1M8jgEwFfnCIfOTk4-" name="Page-1">
    <mxGraphModel dx="2195" dy="743" grid="1" gridSize="10" guides="1" tooltips="1" connect="1" arrows="1" fold="1" page="1" pageScale="1" pageWidth="1169" pageHeight="827" math="0" shadow="0">
      <root>
        <mxCell id="0" />
        <mxCell id="1" parent="0" />
        <mxCell id="UEzPUAAOIrF-is8g5C7q-128" style="edgeStyle=orthogonalEdgeStyle;rounded=0;orthogonalLoop=1;jettySize=auto;html=1;startArrow=open;startFill=0;endArrow=open;endFill=0;strokeWidth=2;strokeColor=#808080;" parent="1" source="UEzPUAAOIrF-is8g5C7q-109" target="gpy-Rl8vgsZpeuc-Mog1-8" edge="1">
          <mxGeometry relative="1" as="geometry">
            <Array as="points">
              <mxPoint x="100" y="461" />
              <mxPoint x="100" y="377" />
            </Array>
            <mxPoint x="369.5" y="376.5" as="targetPoint" />
          </mxGeometry>
        </mxCell>
        <mxCell id="UEzPUAAOIrF-is8g5C7q-127" style="edgeStyle=orthogonalEdgeStyle;rounded=0;orthogonalLoop=1;jettySize=auto;html=1;startArrow=open;startFill=0;endArrow=open;endFill=0;strokeWidth=2;strokeColor=#808080;" parent="1" source="UEzPUAAOIrF-is8g5C7q-110" target="gpy-Rl8vgsZpeuc-Mog1-8" edge="1">
          <mxGeometry relative="1" as="geometry">
            <Array as="points">
              <mxPoint x="100" y="282" />
              <mxPoint x="100" y="362" />
            </Array>
            <mxPoint x="369.5" y="361.5" as="targetPoint" />
          </mxGeometry>
        </mxCell>
        <mxCell id="UEzPUAAOIrF-is8g5C7q-126" style="edgeStyle=orthogonalEdgeStyle;rounded=0;orthogonalLoop=1;jettySize=auto;html=1;startArrow=open;startFill=0;endArrow=open;endFill=0;strokeWidth=2;strokeColor=#3700CC;fillColor=#6a00ff;" parent="1" source="gpy-Rl8vgsZpeuc-Mog1-7" target="gpy-Rl8vgsZpeuc-Mog1-8" edge="1">
          <mxGeometry relative="1" as="geometry">
            <mxPoint x="500.5" y="250.5" as="sourcePoint" />
            <mxPoint x="210" y="336.000888180369" as="targetPoint" />
          </mxGeometry>
        </mxCell>
        <mxCell id="UEzPUAAOIrF-is8g5C7q-129" style="edgeStyle=orthogonalEdgeStyle;rounded=0;orthogonalLoop=1;jettySize=auto;html=1;startArrow=open;startFill=0;endArrow=open;endFill=0;strokeWidth=2;strokeColor=#808080;" parent="1" edge="1">
          <mxGeometry relative="1" as="geometry">
            <Array as="points">
              <mxPoint x="510.5" y="391.5" />
              <mxPoint x="510.5" y="391.5" />
            </Array>
            <mxPoint x="447.5" y="391.5" as="sourcePoint" />
            <mxPoint x="580.5008871499738" y="391.5" as="targetPoint" />
          </mxGeometry>
        </mxCell>
        <mxCell id="UEzPUAAOIrF-is8g5C7q-132" value="" style="edgeStyle=orthogonalEdgeStyle;rounded=0;orthogonalLoop=1;jettySize=auto;html=1;startArrow=open;startFill=0;endArrow=open;endFill=0;strokeWidth=2;strokeColor=#808080;" parent="1" edge="1">
          <mxGeometry relative="1" as="geometry">
            <Array as="points">
              <mxPoint x="760" y="372" />
              <mxPoint x="760" y="280" />
            </Array>
            <mxPoint x="658.499112850026" y="372" as="sourcePoint" />
            <mxPoint x="800.5" y="280" as="targetPoint" />
          </mxGeometry>
        </mxCell>
        <mxCell id="UEzPUAAOIrF-is8g5C7q-133" style="edgeStyle=orthogonalEdgeStyle;rounded=0;orthogonalLoop=1;jettySize=auto;html=1;startArrow=open;startFill=0;endArrow=open;endFill=0;strokeWidth=2;strokeColor=#808080;" parent="1" edge="1">
          <mxGeometry relative="1" as="geometry">
            <Array as="points">
              <mxPoint x="760.5" y="381.5" />
              <mxPoint x="760.5" y="415.5" />
            </Array>
            <mxPoint x="658.499112850026" y="381.5" as="sourcePoint" />
            <mxPoint x="800.5" y="415.5" as="targetPoint" />
          </mxGeometry>
        </mxCell>
        <mxCell id="UEzPUAAOIrF-is8g5C7q-142" style="edgeStyle=orthogonalEdgeStyle;rounded=0;orthogonalLoop=1;jettySize=auto;html=1;startArrow=open;startFill=0;endArrow=open;endFill=0;strokeWidth=2;strokeColor=#808080;" parent="1" edge="1">
          <mxGeometry relative="1" as="geometry">
            <mxPoint x="447.5" y="371.5" as="sourcePoint" />
            <mxPoint x="580.5008871499738" y="371.5" as="targetPoint" />
            <Array as="points">
              <mxPoint x="510.5" y="371.5" />
              <mxPoint x="510.5" y="371.5" />
            </Array>
          </mxGeometry>
        </mxCell>
        <mxCell id="UEzPUAAOIrF-is8g5C7q-109" value="" style="outlineConnect=0;gradientColor=none;fontColor=#545B64;strokeColor=none;fillColor=#879196;dashed=0;verticalLabelPosition=bottom;verticalAlign=top;align=center;html=1;fontSize=12;fontStyle=0;aspect=fixed;shape=mxgraph.aws4.illustration_desktop;pointerEvents=1;labelBackgroundColor=#ffffff;" parent="1" vertex="1">
          <mxGeometry x="-70" y="415.5" width="100" height="91" as="geometry" />
        </mxCell>
        <mxCell id="UEzPUAAOIrF-is8g5C7q-110" value="" style="outlineConnect=0;gradientColor=none;fontColor=#545B64;strokeColor=none;fillColor=#879196;dashed=0;verticalLabelPosition=bottom;verticalAlign=top;align=center;html=1;fontSize=12;fontStyle=0;aspect=fixed;shape=mxgraph.aws4.illustration_notification;pointerEvents=1;labelBackgroundColor=#ffffff;" parent="1" vertex="1">
          <mxGeometry x="-70" y="221.5" width="100" height="81" as="geometry" />
        </mxCell>
        <mxCell id="gpy-Rl8vgsZpeuc-Mog1-1" value="Application Load Balancer" style="sketch=0;outlineConnect=0;fontColor=#232F3E;gradientColor=none;fillColor=#8C4FFF;strokeColor=none;dashed=0;verticalLabelPosition=bottom;verticalAlign=top;align=center;html=1;fontSize=12;fontStyle=0;aspect=fixed;pointerEvents=1;shape=mxgraph.aws4.application_load_balancer;" vertex="1" parent="1">
          <mxGeometry x="370" y="336" width="78" height="78" as="geometry" />
        </mxCell>
        <mxCell id="gpy-Rl8vgsZpeuc-Mog1-3" value="Fargate" style="sketch=0;points=[[0,0,0],[0.25,0,0],[0.5,0,0],[0.75,0,0],[1,0,0],[0,1,0],[0.25,1,0],[0.5,1,0],[0.75,1,0],[1,1,0],[0,0.25,0],[0,0.5,0],[0,0.75,0],[1,0.25,0],[1,0.5,0],[1,0.75,0]];outlineConnect=0;fontColor=#232F3E;fillColor=#ED7100;strokeColor=#ffffff;dashed=0;verticalLabelPosition=bottom;verticalAlign=top;align=center;html=1;fontSize=12;fontStyle=0;aspect=fixed;shape=mxgraph.aws4.resourceIcon;resIcon=mxgraph.aws4.fargate;" vertex="1" parent="1">
          <mxGeometry x="580" y="336" width="78" height="78" as="geometry" />
        </mxCell>
        <mxCell id="gpy-Rl8vgsZpeuc-Mog1-4" value="Elastic Container Registry" style="sketch=0;points=[[0,0,0],[0.25,0,0],[0.5,0,0],[0.75,0,0],[1,0,0],[0,1,0],[0.25,1,0],[0.5,1,0],[0.75,1,0],[1,1,0],[0,0.25,0],[0,0.5,0],[0,0.75,0],[1,0.25,0],[1,0.5,0],[1,0.75,0]];outlineConnect=0;fontColor=#232F3E;fillColor=#ED7100;strokeColor=#ffffff;dashed=0;verticalLabelPosition=bottom;verticalAlign=top;align=center;html=1;fontSize=12;fontStyle=0;aspect=fixed;shape=mxgraph.aws4.resourceIcon;resIcon=mxgraph.aws4.ecr;" vertex="1" parent="1">
          <mxGeometry x="800.5" y="250" width="78" height="78" as="geometry" />
        </mxCell>
        <mxCell id="gpy-Rl8vgsZpeuc-Mog1-6" value="Aurora" style="sketch=0;points=[[0,0,0],[0.25,0,0],[0.5,0,0],[0.75,0,0],[1,0,0],[0,1,0],[0.25,1,0],[0.5,1,0],[0.75,1,0],[1,1,0],[0,0.25,0],[0,0.5,0],[0,0.75,0],[1,0.25,0],[1,0.5,0],[1,0.75,0]];outlineConnect=0;fontColor=#232F3E;fillColor=#C925D1;strokeColor=#ffffff;dashed=0;verticalLabelPosition=bottom;verticalAlign=top;align=center;html=1;fontSize=12;fontStyle=0;aspect=fixed;shape=mxgraph.aws4.resourceIcon;resIcon=mxgraph.aws4.aurora;" vertex="1" parent="1">
          <mxGeometry x="800.5" y="374.5" width="78" height="78" as="geometry" />
        </mxCell>
        <mxCell id="gpy-Rl8vgsZpeuc-Mog1-7" value="NAT Gateway" style="sketch=0;outlineConnect=0;fontColor=#232F3E;gradientColor=none;fillColor=#8C4FFF;strokeColor=none;dashed=0;verticalLabelPosition=bottom;verticalAlign=top;align=center;html=1;fontSize=12;fontStyle=0;aspect=fixed;pointerEvents=1;shape=mxgraph.aws4.nat_gateway;labelBackgroundColor=none;" vertex="1" parent="1">
          <mxGeometry x="370" y="210" width="78" height="78" as="geometry" />
        </mxCell>
        <mxCell id="gpy-Rl8vgsZpeuc-Mog1-8" value="Internet Gateway" style="sketch=0;outlineConnect=0;fontColor=#232F3E;gradientColor=none;fillColor=#8C4FFF;strokeColor=none;dashed=0;verticalLabelPosition=bottom;verticalAlign=top;align=center;html=1;fontSize=12;fontStyle=0;aspect=fixed;pointerEvents=1;shape=mxgraph.aws4.internet_gateway;" vertex="1" parent="1">
          <mxGeometry x="161" y="336" width="78" height="78" as="geometry" />
        </mxCell>
        <mxCell id="gpy-Rl8vgsZpeuc-Mog1-9" style="edgeStyle=orthogonalEdgeStyle;rounded=0;orthogonalLoop=1;jettySize=auto;html=1;startArrow=open;startFill=0;endArrow=open;endFill=0;strokeWidth=2;strokeColor=#808080;" edge="1" parent="1">
          <mxGeometry relative="1" as="geometry">
            <mxPoint x="239" y="370" as="sourcePoint" />
            <mxPoint x="372.0008871499738" y="370" as="targetPoint" />
            <Array as="points">
              <mxPoint x="302" y="370" />
              <mxPoint x="302" y="370" />
            </Array>
          </mxGeometry>
        </mxCell>
        <mxCell id="gpy-Rl8vgsZpeuc-Mog1-13" style="edgeStyle=orthogonalEdgeStyle;rounded=0;orthogonalLoop=1;jettySize=auto;html=1;startArrow=open;startFill=0;endArrow=open;endFill=0;strokeWidth=2;strokeColor=#3700CC;fillColor=#6a00ff;" edge="1" parent="1" source="gpy-Rl8vgsZpeuc-Mog1-7" target="gpy-Rl8vgsZpeuc-Mog1-3">
          <mxGeometry relative="1" as="geometry">
            <mxPoint x="568" y="249" as="sourcePoint" />
            <mxPoint x="620" y="330" as="targetPoint" />
            <Array as="points">
              <mxPoint x="619" y="249" />
            </Array>
          </mxGeometry>
        </mxCell>
        <mxCell id="gpy-Rl8vgsZpeuc-Mog1-14" style="edgeStyle=orthogonalEdgeStyle;rounded=0;orthogonalLoop=1;jettySize=auto;html=1;startArrow=open;startFill=0;endArrow=open;endFill=0;strokeWidth=2;strokeColor=#808080;" edge="1" parent="1">
          <mxGeometry relative="1" as="geometry">
            <Array as="points">
              <mxPoint x="302" y="390" />
              <mxPoint x="302" y="390" />
            </Array>
            <mxPoint x="239" y="390" as="sourcePoint" />
            <mxPoint x="372.0008871499738" y="390" as="targetPoint" />
          </mxGeometry>
        </mxCell>
        <mxCell id="gpy-Rl8vgsZpeuc-Mog1-15" value="" style="shape=image;aspect=fixed;image=data:image/png,iVBORw0KGgoAAAANSUhEUgAABkAAAAZACAYAAAAhDI6nAAAACXBIWXMAAAsSAAALEgHS3X78AAAgAElEQVR4nOzdy3EcR7YG4OIN7cGxgJQBFYQsAGQBoWWvCEbUXpAFBC0QuO8IgataDmjBgBYMEW3AEBYMYQFuJJXQlNANoB/1ysrvi0Do3m4Oia7qR3X+ec55dnt7WwAAAAAAAEzJD84mAAAAAGynKuuXRVGEn+dFUew3/hscxP++ny9mpw4xQL8EIAAAAADwgKqsD+M9d/+9CzlC6PFi9f8KgDEQgAAAAACQpaqsm2FG8yfc9qrFY/J86RYAOicAAQAAAGByqrJe1ZKqWcWx1+Nj3l+6BYDOCUAAAAAASE6jNdX+vfkbWlMB8J0ABAAAAIBRaQwWvz9gvGgMFk+JChCAAQhAAAAAAOhNozVV0WhJNVRrqr5M8TEBjN6z29tbZwkAAACAVjQGi98fMN72YPHU/GO+mH3zLAPojwoQAAAAANbSaE21asB4iq2p+hSO02U+DxdgeAIQAAAAAL5rDBa/P2DcYHEAkiMAAQAAAMhAozXVqgHjObem6svLPB4mwHgIQAAAAAAS1xgsvmrA+FQHi6dGAALQMwEIAAAAwMg1WlOtGjCuNRUArCAAAQAAABhQY7D4/QHjhcHik3KY0WMFGAUBCAAAAEBHGq2pisYCuNZUANADAQgAAADAlhqDxe8PGDdYnPvMAAHomQAEAAAAYIVGa6pVA8a1pmJTZrUA9EwAAgAAAGSpMVj8/oBxg8UBYAKe3d7eOo8AAADApDRaU60aMK41FUP5ab6YfXH0AfqhAgQAAABISmOw+KoB4waLM2bPnR2A/ghAAAAAgFFptKZaNWBcaypSJgAB6JEABAAAAOhNY7D4/QHjhcHiZCA81y+caIB+CEAAAACAVjRaUxWNllRaUwEAgxCAAAAAAGtpDBa/P2DcYHFYz77jBNAfAQgAAADQbE21asC41lTQDjNAAHokAAEAAIAMNAaL3x8wbrA4ADBJAhAAAABIXKM11aoB41pTwXiopgLokQAEAAAARqwxWHzVgHGDxQEAHvDs9vZ29T0AAABA5xqtqVYNGNeaCqbnx/li9tV5BeieChAAAADoSGOw+P0B44VWOJCt8F4gAAHogQAEAAAAttBoTVU0WlJpTQUAMBICEAAAAFihMVj8/oBxg8WBXYSg9NIRBOieAAQAAIDsNFpTrRowrjUVAMAECEAAAACYnMZg8fsDxg0WB4b23BkA6IcABAAAgKQ0WlOtGjCuNRUwdvvOEEA/BCAAAACMRmOw+KoB4waLAwCwNgEIAAAAvWm0plo1YFxrKiAHKkAAeiIAAQAAoBWNweL3B4wXBosD/EUlG0BPnt3e3jrWAAAAPKrRmqpotKTSmgpgO/+YL2bfHDuAbqkAAQAAoDlY/P6AcYPFAdoX3msvHVeAbglAAAAAJq7RmmrVgHGtqQAAmCQBCAAAQOIag8XvDxg3WBxgnF46LwDdE4AAAACMWKM11aoB41pTAaRJAALQAwEIAADAQBqDxVcNGDdYHAAAdiAAAQAA6EijNdWqAeNaUwHk69C5B+ieAAQAAGALjcHi9weMFwaLAwDA8AQgAAAA9zRaUxUrBotrTQXArswAAeiBAAQAAMhOY7D4/QHjBosD0AdtEAF6IAABAAAmpdGaalUVh9ZUAACQiWe3t7fONQAAkIzGYPH7rakMFgcgJT/NF7MvzhhAd1SAAAAAo9FoTXW/ikNrKgCm5rkzCtAtAQgAANCLxmDxVa2pDBYHIDcCEICOCUAAAIBWNFpT3a/i0JoKAJaFz8uLpVsBaI0ABAAAeFJjsPiqAeMGiwMAAKMjAAEAgMw1WlMVKwaLa00FAN3Yd1wBuiUAAQCAiWsMFl81YNxgcQAYhhkgAB0TgAAAQMIaralWVXFoTQUAAGRLAAIAACPWGCy+asC4weIAkC4bFQA6JgABAICBNFpT3a/i0JoKAABgR89ub28dQwAAaFljsPiq1lQGiwMAwY/zxeyrIwHQDRUgAACwhUZrqvtVHFpTAQDrCtcNAhCAjghAAADgnsZg8VUDxvXrBgAASIAABACArDRaUxUrBotrTQUA9Clci1w64gDdEIAAADApjcHiqwaMGywOAACQCQEIAADJaLSmWlXFoTUVAJCa584YQHcEIAAAjEZjsPiqAeMGiwMAU7PvjAJ0RwACAEAvGq2p7ldxaE0FAABA6wQgAADsrDFYfFVrKoPFAQBWUwEC0CEBCAAAT2q0prpfxaE1FQDA9mwSAejQs9vbW8cXACBjjcHiqwaMGywOANCtf8wXs2+OMUD7VIAAAExYozVVsWKwuNZUAADDC9dkl84DQPsEIAAACWsMFl81YNxgcQAAALIlAAEAGKlGa6pVVRxaUwEATMNL5xGgGwIQAICBNAaLrxowbrA4AEAeBCAAHRGAAAB0oNGa6n4Vh9ZUAAAA0AMBCADAhhqDxVe1pjJYHACATRw6WgDdEIAAANzTaE11v4pDayoAAABIhAAEAMhKY7D4qgHjBosDANA3M0AAOiIAAQAmo9GaqlgxWFxrKgAAxkiFMUBHBCAAQDIag8VXDRg3WBwAAAD4y7Pb21tHAwAYXKM11aoqDq2pAACYsp/mi9kXZxigXSpAAIBeNAaLrxowruwfAICcPXf2AdonAAEAdtZoTXW/ikNrKgAAeJoABKADAhAA4FGNweKrWlMZLA4AALsL19UXjiNAuwQgAJC5Rmuq+1UcWlMBAAAAyRKAAMCENQaLrxowbrA4AACMw77zANA+AQgAJKrRmqpYMVhcayoAAEiHGSAAHRCAAMBINQaLrxowbrA4AAAAwCMEIAAwgEZrqlVVHFpTAQBAXnwHAOiAAAQAOtAYLL5qwLjB4gAAAAAde3Z7e+sYA8AGGq2p7ldxaE0FAABs68f5YvbV0QNojwoQAGhoDBZf1ZrKYHEAAKArYXOVAASgRQIQALLSaE11v4pDayoAyNdVURTf4sLjY4uPrhsAABIiAAFgMhqDxVcNGDdUEAC4KYriS1EUl/G/X3ZpNxM3VuzHatFDlaLAjg7j+xMALRGAAJCERmuqYsVgca2pAICHfIoLipfzxezLA39mK/PF7DL+3WfF/+aEHcdrFXPBAAAGJgABYBQag8VXDRi3gAAArCtUeVyEn/lidtHnUYsBy0nx9zDk2EYNYE3PHSiAdj27vb11SAHoVKM11aoqDq2pAIBdXcfQ47ztKo82VGV9F4S47gEe83m+mB0+cj8AGxKAALCzxmDxVQPGDQgFALoQKj3Oxxp6rBKvmU4FIcADBCAALROAAPCoRmuq+1UcWlMBAH0brL1VmwQhwANu5ouZNlgALRKAAGSsMVh8VWsqg8UBgLH41Ag+vk3lrAhCgPvmi9mzpRsB2JoABGDCGq2p7ldxaE0FAIzdVaPF1WRCj1Wqsj4qiuLM9RlQFMU/pv6eB9AnAQhAolYMFm9WcdhFCACk6nOoipgvZpc5ncFYmXtSFMW7pTuBnPyc2/sfQJcEIAAj1GhNVawYLK41FQAwRddFURznvvAXN7mc29AC2RKAALToBwcToH8rBos3qzkMFgcAcvMxVD9o+/K9///XsAGmKuuTOB/ExhfIy0vnG6A9AhCAlq1oTVU0qjjs5AMA+Lu388XsfOnWzM0Xs7OqrM9jNcjr3I8HZEQAAtAiAQjAhlYMFm9WcxhcCQCwnpuwSWS+mH1xvFaLFTFHqkEAALZjBghAw4rWVM2AQ2sqAIB2CD82FKuML1yTwuR9ni9mh04zQDtUgADZeGCweLOaw446AIDuCT+2EGeD7FdlHSpB3iX3AAAABqACBJiMFa2pmsPFtaYCABie8KMF8br3wgYemKTr+WJmDghASwQgQBJWDBZvVnMYLA4AMH7CjxbF6uYL18IwPfPF7JnTCtAOAQgwuAdaUzVDDjvbAADS9/N8Mbsc26OoyvosDBiPA8eToyUWTI8ABKA9AhCgcysGizerOQxxBACYvrfzxex8jI8yBghHsTol1RAk/P7nNg7BZPykWg6gHQIQYCcrWlMVjSoO5fgAAHycL2bHYz0K8Xr2P0VRXCUeguzHEMQGI0jfKCvmAFIkAAEetWKweLOaw2BxAAAe83m+mB0+cv8oVGUdZmm8nkAI8jyGIK+X7gRS8st8MbtwxgB294NjCPla0ZqqGXDYOQYAwC5uYmupFNyFBuEa+DJsAkoxBIm/85G5IJC88L1cAALQAhUgMFEPDBZvVnPoDwwAQJeSauFSlfXXRoVz0pUgxZ+PJ7QdO3PdD0l6P1/MTp06gN2pAIFErWhN1RwurjUVAABD+i3B/vVht/Wv8f9OuhKk+LMa5Lwq6zBE+VIIAsnZd8oA2iEAgRFaMVi8Wc1hsDgAAGMW5n6cJXiGzhoBSBFDkPOE2ngtmS9mX2Lb2wstbiEpz50ugHZogQU9e6A1VTPksDsLAIBUhbkfLxMeIv5lRVDwcb6YHS/94YTE7yAXNlNBMkKQfOh0AexOAAItWzFYvFnNYdcVAABTltTcj/vi3Iw/lu4oirehpdTSrYmpyjo8hjepPw7IwXwxe+ZEA+xOAAI7qMr6tFHFYTcVAAA5+zBfzE5SfvyxUuK/S3f8Kelw5078DvNu6Q5gVAQgAO0QgMAOqrL2AgIAgKK4mi9mkxjaW5V1aBX1eumOP9t77c8Xs69L9yTmkUoXYDx+nML7DcDQ/s8ZgJ3cOHwAAFAkPSPjnoulW/6098h9SYntvH7xfQZG7aXTA7A7AQjs5ovjBwBA5n6bL2ZTui5+LOR4VZX12dKtCZovZhexna8QBACYLAEI7Oab4wcAQMY+zxezSQQCd+aLWbjG/7R0x//8WpX14dKtCYrBlRAExmkS7zMAQxOAwG5UgAAAkKubibW+anqsCiQ4jwPTkxdDkNBq52oKjwcAoEkAArtRAQIAQK5OJzyg96kA5EUIQZZuTVSsejkUgsCoTCJkBRiaAAR2owIEAIAcfZpa66umGAh8Xrrj715PpRVWIQSBMdp3VgB2JwCB3agAAQAgN1NufdX0VBVIMaVWWEUMQeaLWVh0/bh0JwBAggQgsIPYLxcAAHJyHKsFpm6dACS0wjpZujVx88XsWAgCg1MBAtACAQjs7sYxBAAgEx/ni9k6wUDy4nyT6zUex7uqrF8u3Zo4IQgMbs8pANidAAR2pwoEAIAcXE+x2uEJ64Y9kxmI3iQEgWFNqcUewFAEILA7c0AAAMhBLq2vmi6XblntYEoD0ZtiCPJh6Q6gD9pgAexIAAK7UwECAMDUfZgvZuuGAVOyyWM+W7plIuaLWaj8eetVDgCkRgACAADAY67iAnh2YsXL5zUf96uqrI+Xbp2I+WJ2LgSB3k1uvhBA3wQgsLscd8IBAJCPyS7qr2mT6/3TpVsmRAgCvROAAOxIAAIAAMBDfpsvZrm3fN0kAHkx5SqQQggCACRGAAI7yrQXMgAA0/d5vphNdq7Fura43p98uzAhCPTm0KEG2I0ABAAAgPtuiqI4Wro1X1cbPPIwC2Tyi5ZCEAAgBQIQaMe6gxEBACAFR3EAOH9SBbKCEAQ6ZwYIwI4EIAAAADR90OZ1yaZzUF5XZZ3FwqUQBDr1wuEF2I0ABNrhCyIAAFNwNV/Msqhe2NA21/vZHMcYgvy2dAcAwMAEIAAAABTmfjxsvph9jcdnE1kdyzgw/+PSHcBOqrLedwQBticAgXaoAAEAIHXHcaGf1TZtg/WiKuvcQpBjIQi07rlDCrA9AQgAAADv54vZRfZH4XGbBiBFjhU1QhBonQAEYAc/OHiwuzAksiprRxLoys29RZfwf3+792+9jD9F/JL0ytkAYE2f54vZqYP1JAHImkIIEtv2uB6B3YXXkoAaYEsCEAAYj6u4uPI1ttb7Nl/Mtlls+a4q6+fxC9N+DEcOLUQAcM+1uR9r26Y92F5og5Vpdc1hvJ5x7QEADObZ7e2tow8tqMo6XNwfOJbAmm7iokD4+RIqyfo4cDEUOYw/YcHrxdIfAiAX4bPocJewPTdVWW/zBfpjbAuV4/F6Hjd3uN6A7X2aL2aCaoAtqQABgP5cxfL1i6EWm+aL2be736EoipPYnuI4/uwt/Q8AmLIT4cfGbrb4vDxcuiUT4bojDoK/dJ0BWzMDBGAHKkCgJVVZh77J7xxP4J5PMWy4nC9m27TO6E1V1iEEOdGqAiAL78392NwOVd8/5Rw2xQ0X/166A1hHmNOUbZAKsKv/cwQBoHWh0uO3oih+DOXq88XsfOzhR/HnLs3we4YFip/DF62lPwDAVHwUfmxt28/zrBcvY/jzdukOYB1abQPsQAAC7emlfz8wWqElxse4w3N/vpidpRB6rBLmkcRdZj/H4bgATMdVrPZjOwKQLYWNFqHyKMlfHgBIlgAEAHZzHas9XoYBp1NqbxGDkJdxseJm6Q8AkJqrOPT8mzO3tW2PXfYBSPHntcVp3DACbKAq65eOF8B2BCDQHgMkIS9htsfPISCI1R6TXUyKixX7ceEMgDSFIPtY+LGzba/59yxg/uXENQVszPsHwJYEINASXyYhCzexGuJutkc2re9CO684H0TrCmiX6ir6cBMrP2zYGdZ+zg/+TvzedOj9DwDogwAE2mUnE0xTeG2/nS9mz0M1RKqzPdoQq0F+sWgBW7ubF/RLbJ+351DSMeFHu3bZ9CQAiRohCLAerxeALQlAoF2qQGBamkPNz53bP80Xs4v4JcyAdFjf50aQehwHKf/u+NGDE+FHe3Y8lhYwG+KxfLt0BwBAiwQg0C5fLiF917HN0z+mNtS8TfG4mAsCjws77z/EtnmHd0FqVdbhtZNNCz0G9VaAPyoqQO6Jz88PS3cA9z1fugWAtQhAoF0qQCBdd7uzX8Y2V17PT2i0rxCCwN9dx/ZW4f3kpNk2ryrrsIBx3lHrq0/a09Eg/Bgfg9BXCO+T8ToMeJgAFWBLPzhw0Co7xSEtYaEwtHPKeq7HLkIIUpX1YdzN/irdRwKtuI7vJ48tOp938FoJ/+5JDCTNFKEQfozafmyBx98dxePiPQwAaJUKEGiXHeOQhubu7GPhx25UgsD3MPW3WEH24KJzVdYhpHi9dMduPsQF1fA6/NWpyN5NnF314POQwZkDsoKh6PAkFSAAWxKAQLtUgMC4hfYKv8RFyjNtrtoTj+Wx9jtk5ibODPr+nvLYQ49zP9oceh4Cx59j65giVpaQt/B8PDS7avQsYj4gPnd/W30vZE91FMCWBCDQIoupMEphQehjYwjxhdPUjbhwcTTFxwYrhHkb+xvMDGozoHg/X8zCv303SD383S+W/lQ/vs9P0r9/cNfCj2Qc5H4AHhPD5E+P/BHIVpwjBsCGBCDQPi1gYBy0uRpAXJB9n90DJyfXsfLiaN33laqsT1ua+3EV2xudNv7uow7aaq3jY/xdQsualxZ1B3UVwzjhRyLi7Cwedhzfa4G/U0EGsAVD0KF9qkBgWGEX8plKj+GExdm4uGNBlKl53wwf1lGVdQgH3u14HG7icPW/tdmKO0H7bH0Vfo+z+B77rfhfALPr42N7IYg6UYWcnPAZeTmxx9Sa8HyO7y3/nshDAgAGJACB9n2x6Ae9C4tyF3GBUKXHOISFi6/6FTMRYYf98ZY77HcNKD7Hf3vVe9tpT6+x6/j++rfHEsMds0eG89tTs2fozPWObefs4n5CeL+tyvq3lmcnQepeOoMAmxOAQPvswIP+XMfdyOd2v45L3L0ZWlj8M/djQfI2rvq4s2Ml1Mqqj3t/969Ld7Trc/wdHtqpfiHkHER4bhw9cl7o3tcdAxAtsNYQ3v/ie90Qbf5gjAQgAFsQgED79F+G7n2OoYedxyMW2pBVZR3as7zJ/ViQpF2qPu5s+x51FRe4V1V93FkZjLTkY2xz9eBjr8r6rKW5Jmzmc3xuCP3TtleVtbkt6zmO3692CZwAgIwJQKB9vpBCd55clGN0TuJOVwsXpORDrHzY+jM9VkBt87x/suKkKuuTDsKHtVsJxsfWdfUJy7auRmKUjmycelqjovRfY/9doQeqxwC2IACB9j26aABs7Druoj6z4zU9BpmSmJtY9XHRwq+96UL1WhUncfB5m4vgS4PNHxN2rXdcfcKyNqqRGB8LmWsK7d6qsn5fFMW7JH5hAGBUBCDQsrBrsiprhxV2dxUX5LS5SpxBpiRinbZTa4k96zep/vgwX8xOlm5d7ayluRsbBR/F/8KXc3M/eqXqY7q2nQ+UpfA62HGuEkyBGSAAWxCAQDeutXuBrX2M8z0Md50Qg0wZuU0CiHWs+3ddx539a73fxeqLXWfqbBx8NJj70Z8w6+NE1ce0hQrJlirOcnE3D0QIS66sMQBsQQAC3fjq4gQ2crcgd97G7mtGyyBTxuYmLjK3VmlWlfXLNYO+TzH82CSE2KX11C7BRxFb2e0avvC06ziHRfXjuH1pqRLhMM7eYQ2x0j4EzH84XgDAuv7PkYJOWMCF9YSFnrehnDu0NhB+TFtcdD2KC7EwtPA8POxgofl46Za/C//u2/lidrRJELFD65fw771vvM9uE368jK2v6M7dedoXfiShrZlkR0u38Kj4+vj02J+BKYvVoABsQAUIdMMiLjzuc9zhqs1VZuI8ELs3GdpVDD/aWsRseiwA2WXOyKbVHztVfNxzoeVMZ9o8T6TnRQgYbQDZ2HH8vuV9iRw9d9YBNqMCBLrhSwwsu4nzPX6cL2aHwo/x6HsnWdy9+XHpDujHx67Cj/haeqjFW5gzsr/NQmdV1scbzN7YueLj3r9t7kc3Wj1PJE0VyIbi6+WxsBmmTAACsCEVINANAQj8z3VsnWJ36wjFaozfq7L+pc9BrPPF7Di21Wmjhzqsq+1h5/etWpC7iVUfu4S+p0u3rPYhVte18l4b5378unQHu7iKn4faXKWtzeH0RzvO98lSuGapyvrTmjOXYEr2zQ4C2IwABLohAIE/21ydW+QZvbvqj5MBvkyFRZ9Lu8vpydse3o8O7/3/n2P4sXUgEas/HqoqufMxBh+tXX9UZf3c3I/W3MT31xB8tLlwznDa3NBxEF5vNols5TiGUU+9RwIAGdMCCzqgjy+ZCwtxP8c2VxbPxu8u9DiIQ5Z702hhYSg6XbrpI/yIgUEzzHsf3wd3XdR8rPrjc3y/Pe7g2sPcj93ctX0M1XXP4zkSfvAQbbC2oBUWmTIEHWBDKkCgO9d2I5GRuyGu5wLA5DTb8pyu2MHeqTgUPfyb/879RNCJmzjvo4+F57vXTvg3j9toKfdI9Ue4xjjpqm1dbI2nPd3mruJ76mWfLQUZRNvXOkcqrrYT2gtqhUVmzAAB2JAABLrz9YFFC5iS67hofqF1Q5rCeWssHIQqkJd9h1gxBHlbFMUfS3fC9voMP4q4I/Mqtrxq6zV0/++5iW2UHqsKacPzOKC7rb9rnd2q+wlWnHyO7XfuQg+fg5kIr/GqrNt8sK+1wdrJcXy/VLUGACwRgEB3vto9yYR9jotwdrhOw0Vj5+TpEO0kQnuiuJgkBKENfYcfwZe2g4m4szkEEe9iO6WTPhZIewhYNlKV9f6KHa+rgpWX8edOG6HKdbymu/sJz6mv2lnRAVUgW4qbOcK1yz+TfACwGWsMABt6dnt765hBB6qyPo0LFjAlrQ/aZXih6qMoiv80fpEfhzrHVVmHVmq/Lt0B67uKLagms0AdAgAL7ru5F6I0W/19i6HG34TwKaGHxwCqsm672vvTfDEzC2QHVVlfaIVFDuaL2TMnGmB9AhDoSNyFZCczU3A33+NMa4bpqsr6S2OA88cwsHeoB1uVddgB+2bpDnjaVaz88F4FdKoq68sOdmL/w/vX9kIbMa2wyMRgm5UAUvR/zhp0xgUJqQttP97OF7PQk/rUF/LJa7YzexMXEQYRw5ePuZ8QNib8AFI32OaDKYjv/6Nq4QcdeenAAqxPAALdEYCQqjDf4+f5YhaGYetFnY/781xOhnzkQhA2JPwA+tZFmzQByI7mi9lZvJYFAPhOAAIdUZJKgj7GcupDvc/zE+cLXDce+MmQVSCFEIT13Qg/gIl4FedysZtBN3FADw4dZID1CUCgWzeOLyMXnqPvY8/pY8Fd9ppVIHtj2IkqBOEJwg9gKEvD81ti8X5HcVPH+6QfBADQGgEIdKurL0awK/M9WOV+5c8oFmFiCGIhg/vuwg+ftcAQurp2Olq6hW2c3atshSkZtEobIDXPbm9vnTToSFXWYTf1a8eXEbmJXwh7a3GlnVZaqrL+Fqs/7rwdyyyYqqxDEPLH0h3kSPgBDCq2ifxvR7/DL/PF7P5sLjZUlXUIk/7puDFBn0PbYicWYD0CEOhQVdanRVG8c4zhu9DG6MyC5bhVZR3CjjeNX/I6DMQfyy8dFzPO74U05Ocn7yXA0Kqy7urL9Kf5YqYSpAVVWYeNOAfJPxD4OwEIwAa0wIJuaStE7q5CBUFjxogFy/G7X7Hzoirr0XzBijtiD81Yys5NDFHD+8mP3kuAkbjq6Nd4bRh6awafZwYd2HdQAdb3g2MFnbJAQ45u4jBt1R5puljRZuo0hg6jEJ5XcWEohDWvcj9hE3YVn48X3kuAkepys9Nx/PxlB/PF7GtV1u9V5TMxKqEBNqACBLqlAoSchEGTvxVF8VK1R7riQPzP9x7AwZiqQIr4e84Xs/1YFcA0hPD0U6NqbH++mJ16LwFGrMs5ZyoX2mMgOpMT5xABsAYBCHTIog2ZCAuWP4c5EfPF7CwuoJO2VYNXR7kQE8K2uGCuJVaawoLUhzjw93noeR+G7nsfARLR5XtVaEEpBGlB/ExRTcPUaIMFsCYBCHTPohxTdBMXLX+MC5Zd7oCkf6sCkDdj7UceFsxji66uerHTrrvQ46cYnJ7E2S4Aqel6s5MApCXxWuF+hSsAkAEBCHRPFQhTch13298tWn51dqcnntdVYcJod0/GirvDuLDO+KwKPXw+Aqnr+jpodC0oE6cKhCkZ5cYkgDEyBB26p40HU7uqsOsAACAASURBVBB2zJ2q9MjKqgHjR6Hf8FjbE8Xf66Qq6/C7nxsQObjrWE10LuwApigO2O76kR13PGskG+E6tirrMDvsTe7HgkkQgACsSQUIdM+iDyn7GNtcHQo/snO+4gGHQOFk6daRie2UXsb5NPTrJr5vqPQActF1W6XRtqBM1KkWxQCQFwEIdE8FCKkJXwrfx+DjWJurPMVF61ULBKMPQIpYDRLm04QB/bESgW59agwyPxZ6ABnp4zpJ66aWxOvas0k8GHKnPR7AmgQg0D2LQKTiOgYfYdf2qeCDB4ah71VlncxQ1li5tB+f27TruhGWHhlkDmSqj+ul7y0ol25lW2cPbPIAACbIDBDongoQxu46zvdY1fKIvF080Cf79IEWWaMUZ4OcVmV9Hn/vg9xP7I5CtceZtngA34X3wncdH4q7FpQqQVoQrguqsg7H84/kHww50xoPYE3Pbm9vHSvoWFXWXmiMkeCDR8Xdpv994M/8kuqO/6qsD2MQ8mLpTh5yE3fMnqsOA/ifJz4r23QTq3RtrmpJVdZfXQuQsvli9swJBHiaFljQDyXWjEkY1vlzHFAs/OBBcZHloUHiScwCWSVULoTnf1EUb80HedJVOE5xtofWeAD3xM/KPj5L9lL+7B0pFTUAkAEBCPTDHBDG4C74ONS6hg089Fw5iJUUyQoBoCDkQZ/i+8W+oBTgSX1d65+YBdKe+Pn2eSqPh/xUZb3vtAM8TQACMH2CD3bxWJurZIahP0YQ8pdQrfixMdTc+wXAevoKQFSBtE8VCCkTiAKsQQAC/bCIxBAEH+wstjy6euDveVOV9WQGMN4LQh56zFMUgo/3sbf8sTZXABvr8zpLFUiL4jWyKhBS5b0AYA0CEIDpEXzQtseeR5PbiRqDkNBS4OdHZqBMwXUMe17G+R4G6wJsp892t6pA2qcKhFRpgQWwhme3t7eOE3Qs9sn/l+NMx0LwcSr0oG2xv/C/H/hrb+IC+mQXz2OVy3FccNpb+gPpuY7vFWZ7ALSkKutQPfeix+P5o4q99lRlHa6fD6byeMjG+7CJxekGeJwKEID0Xav4oEvzxexLDDpW2ZvKLJCHhAWmWCER2gz8knBVSAhJfwltvoQfAK3r+xrMome7HE9SpAIEYA0qQKAnVVl7sdGFMLD4biFzv+U+sBdx4RvCe1h4nr154Ehcx9kZ2YhVIUcx/Hk18setOgygY1VZh8+DP3o+zqpAWqQKhAR9DpvgnDiAx/3w6L0AjN2bRxald/FR+ME9F488116EhZ+cqgrigtNZ+Iktwo5jINJn+5OnhID0zGsZoBdDvNeGz12Ln+051bYYAKZHCyzoz2fHmkS8nS9mk25pxFaeqh7I9jkTAob5YnYSq2B+KoriQ2xNN5SPcVfwsfADoB9PtIvsykGcNUgLYqWk72ykRMUSwBoEIADcuYmzRMwGYEkccv7Y7AuLMMthyI9FUfzW02JKeP2+bwQfWqIA9G+IVoOu29plFggATIwABPqj9zpjdhVmiJgRwBNUgWwgDk8/i72Z/xEHqH9suTrkOgYfL+OgdsEHwHAuBviXQxvKk6Vb2YoqEFIT59IB8AgzQAAIC7IncYc/PCYs7Pz+yP1vqrK2CL9CfH1d3C2Oxbkhh42fveX/1aOu42BzO38BxmOojSSnVVmfu5ZrjVkgpCQEIK69AR7x7Pb29uF7gdbE1jAupBmb38IOdWeFdVVlHXqcv3rkj38ILaCWbuVRGwQin2PwoVoL6E3jPcoi+xOqsg4LkS8e/1Od+GiGW3uqsr40X4FE/Oy6EOBxWmAB5CnMC/hJ+MEWnmyDVZX186VbeVScHRLaZR3NF7PncZj621ihdRX/G16zh77kAn2LA75Dxdl5VdYW2R83RBusIlZhZj+Lq0WukUmF1z3AE1SAQI+qsvaCYwzCDvIjOzjZxprVbCqLACYqtFqKC27HAtllVVkfFUXxz6U7+nE1X8z2Bz0AEzJgNQ9s4n2YA+eIATxMBQhAXt7HHeTCD7YSF7tunvjfaoEFMFGxzdL3GQmhTZCqg7+bL2ZDVYAEr8IsrqVb2ZZjSQpUXgM8QQAC/frseDOQm9gf1hc52vDU4s6LuAMWgAmaL2bnsVXfviBkpU+rbuzJSVXWLwd99BMRn+dPbfqAoan6AniCAARg+sKX8JfaVNCidZ5LqkAAJizOBdmPc4oOGkGIxffh5oAEe3FeC+3Q0hMAEicAgX59cbzp0U2cxWDeB21bZ2HnoCprO9IAJmy+mH2N80DuKh5CEPKfMCck8yBkyACkiJ/BNiK0QwDC2LneBniCAAT6ZRGavoTdmPsGUdOFGKhdrfFXW3wBmLjwmRA2WxRF8aHxSN/kHITEz8kh22AFp6pxdhfP5cfUHweTtuf0AjxOAAL9UgFCH8Kg8/24KxO6sk57jTdVWRvMCJCB+WIWQu+392Ym5ByEDF0FohVWe8zQY9RcbwM8TgAC/VIBQpfCjvyfDDqnJ+vOlFEFApCJODT6cMXg6ByDkKEDkEIrrHbETUWfp/BYmCxtsAAeIQCBfqkAoSt3VR+eY/QiPteu1/i3jpduAWCy4ufDywdaJd4FIWdT37E8kjZYhVZYrVFNAwCJEoBAjwyipgOqPhjSOlUgL6qyFoIAZCRe8x4+Mjvh16IovlZlfTrxIGQMVSB7I/k9kharm9bZ+AFDEHICPEIAAv1btRsOtvFB1QcDW3dBRQACkJk4HD28/79/4JGHhfl3Uw5C4qL5/XZgQ3gVjvEIfo/UqQJhrAQgAI8QgED/VIGwq/BF+pc4bBSGtO4ckNCDXG9igAzFKtW3jzzyZhAyxWubsSyav6vK+nDpVjYhAAGABAlAoH9267OLUEEUqj60MmBwscXJukNBBXYAmYqVED89UQ0RgpDfq7L+OrHWiWNaND+f+uyVLsVh6GOY6wL3CTcBHiEAgf6pAGFbdy2vvjqCjMi6Ydwbiy4A+YotO/fXaAf7oiiKP2IQkvyiXnzc624W6NoLVQw7c/wAIDECEOifChA2peUVY7ZJNZLnMEDG4iaOwzV30YfF+n9VZX05gSBkTIvmryfaaqwXsQrbMHTGxgwQgEcIQKB/KkDYRNgleajlFWMVF7PWXQgwDB0gc3E4+lFRFB/XPBIHMQgJ7ZuSXOSLLcDGtGj+u9lcO3Fdzti8cEYAHiYAgf6pAGFdH2P44TnD2K27EPBiYn3dAdjSfDE7fmI4+n1viqL4T1XWp4m2VBxb66QLrSm3dpbo7w0AWRKAQM/i0GB4ym9hYcDzhURcbvBrCkAA+C5WRvzyxHD0+94VRfE1wTZOZxs+zq6ZB7KlWP361Cwb6JWqLoCHCUBgGC6YeUj4YvzzfDGzs4xkbNii7cAXNADuxM+Qww3Dgb3YximZQelxU8vYru/CPJDTpVtZh2t1xkZFF8ADBCAwDLv6WeVu3scmu+lhLNYZaHvH8FUA/hLbfb7cYpPQ3aD0i0Tmg4ytCiR4V5X10dKtPMUcEMZGAALwAAEIDMNMB+77ZN4HidskuHuj7zgATbFC4nDDQP3O6xTmg4y0CiQ4V525mXgut3muQle8hgEeIACBYagAoenDfDE7Mu+DxG1auWQWCAB/E66FwjVRURQftzwyYT7Il5FXNIyxCmQvhiA2J2xGFQgAJEAAAsP46rgTvZ0vZtoBkbxYvXS9wePwvAdgpfliFkLyt6vuW0Noi/XPqqwvx9gWa8RVIK8s6G/M8WJMVIAAPEAAAsMQgHA37Pw8+yPBlGxSBfJCz3EAHhKvkd7uUC1xMOK2WGcbbhroy0FV1oZ7r0kbLEZGBRfAAwQgMAwBSN4MO2eqNt0JqQ0WAA+KIcjhji2j7tpiHS7dM5C4cH460jP/a1XWPp/XpwoEAEZOAAIDmC9mApB8XRl2zoRtGuq9HmN7EgDGI14zHcZrqG2Ftlj/qsr6YizVIDHc+bx0xzj8YSj62gQgjMWBMwGwmgAEhjPGsne69TGGH4adM0nxub3pYo5ZIAA8qqUQJHgdKrFHVOEw5s/AUc5QGZstr30AgB4JQGA4qkDy8jEM9BR+kIFNq0C02QDgSfEa6rCFmQt7scJh8AX+GOy8X7pjHMJxGk3FzMipAmEUhJYAqwlAYDgCkHy8DeFH7geBbGy6CLCn1zgA6wghyHwxO4pVtbs6iLNBBq3CmC9mpy1UtnTllcX9tThGjIUABGAFAQgMRwCSh7exxzNkIe5m3XRYrTZYAKwtbixpo3IiVDn8PoJqkDFvBDioytq17CPifEftjQFgpAQgMBwByLSFBeCfhR9katM2WK8MWwVgE7Fy4m1LB+2uGuRo6Z4ejLwVVvBm6EqZBKgCYQwOnQWAZQIQGI4AZLpu4rDzTReBYSq2WQSwsALARuJGk1+2qDxcJVSD/LMq60HmXoy8FVYRK2W0rHyY634AGCkBCAxHADJN1zH8+LLpowutF8IXSzvhmYBtFgGODFoFYFPzxewi7npuIwQJXofr9Kqsh9hJPfbPwT9cpz5IAMIYuJYGWEEAAgOJvWKZlrBrb3+T8COGHidVWYf/zX+KojgTjpG6LXthh523g7QeASBt8drrsMU5DOEz6V9VWZ8u3dORGCy8SOBEXApBloUB/SOv4CEPXpsAKwhAYFiG5U3HVaz8+PbUI1oRevweZiDEuy/W+TsgAdu0weptoQmAaYkhyH7Li9DvwvVaTwPSU9kEEMKhQdqEJUAVCACMkAAEhmWn/zQ8GX6EL4mPhB5NFoCZim0WAV4M1HIEgAmI12KHLYcgr3oakJ7Szu0XsRJECPJ3AhCGpgIEYAUBCAxLAJK+T4+FH3GmR9gJ/99HQo87H7VGY0K2XQQwYBWArTVCkE8tHsW7AelnS/e0J7UNAK+EIEsEIAxtzxkAWPbs9vZ26UagH7Gv8DuHO1khsFharI19kY/jzyYXoT8KQJiSWPH0WOj3kH88FCoCwLqqsj4viuJNywfsc2hX1ebnVAwR/rt0RxpWXg/nqirrr4nMcmG6XEcD3KMCBIZlsTtdf/uyF1tcHccF338XRfHrhuGH6g+maJs5IIUqEADaEK/VPrZ8MA/CNXzLg8BTblvzJgZN/OmL48DAtMECuEcAAsOy4J2mv8KPOND8PJ7LP7bc7X5TFMXJ0q2Qvm1bQXg9ANCKeM32vuWjuRfbP7UV2Kc+/0oI8j8CEAAYGQEIDEtpanq+hx+x2uMyDjR/s2O/1TNlykzRfDHbNgAxDB2A1swXs9B29m3LRzRc+/3R0lyQl0u3pOdNbO+bO3NAGNoU3k8AWiUAgQHNFzM7hNLyKbY8uKv2OGjht78OAcjSrTAdn7d8JNpgAdCa+WJ23kEIEvwaqh92HAY+lQXLdy1WxaRKhT9DE4AA3CMAgeHdOAfJeB2H1rc52PBU9QcTt+1OyDc7LiYBwN90GIK8iS2xtv3camNTzVj8kXMIYqYfAIyPAASGpwokX5/jF3GYsl1aQeS+ixSAlsVrr5872IT0KoYgGw0gnmjYn3UIskP1K7RBG1mAewQgMDy7//OlTzKTt8MckMIwdAC6ED+bDkcSgmwUmCQk5xDE9zsAGBEBCAxPBUiePu64MAwp2XYn5ItNd9ICwDriLL4uQpC9DUOQKX/O5RqC+H7HkMwAAbhHAALDs0MoPzd2tpMZVSAAjM5IQpCpB/25t8OCvrU5rxJgEgQgMDw7hPJzYvA5mdnlfe7IMHQAujKCECSH3dq5hSCqvAFgRAQgMDwL4Xkx+Jwc7bIQEBaQjpZuBYCWNEKQ65aP6TohyMHSLdOkEgR68sR7DkB2BCAwsPiFi3xo50N2YsXT1Q6P2+sGgE7Fa/L9HT+vVnkwBFl128QJQaAfqqcBGgQgMA5tl9wzTu8FXmRslyqQV1VZG+gIQKdiYH/YYwhyuPQnpy+EIGeeydApAQhAgwAExsGi+PSFlgq+7JGzXfthqwIBoHM9hyA5BiDBr1VZT7klrO92DE0LLIAGAQiMgzkg02fwObnbdTFAywwAetFxCHJelfXd7uxcA5DgzVRDENf8ADAuAhAYB7uEpu3TfDG7yP0gkLf5YvZ1x+Gye1VZG4YOQC86DEFexUqQkxiI5CyEIF8agdAkrGh1Bn3zHARoEIDAONglNF03WvfAX3Ztg6UKBIDedByC/L50a57uAqEphSDmLzA0z0GABgEIjIMKkOk6izvfgd0DkNeGoQPQpw5DEP4nhCBfVU4AAF0QgAB053q+mJ06vvCXXQOQQBssAHolBOnF3ZD4KVR72n3P0A6cAYD/EYDACMwXszYWBRkf7XqgIVZD3ex4TLSUA6B3QpBehBDkj6qsU99ApJIFAEZEAALQjc+CLVhp19fFCy0yABiCEKQ376qyPk94Loh2nQxO21iA/xGAwHh8di4mRfUHrNZGMKgKBIBBCEF68ya2xEpx04ONGoyBAAQgEoAAtO+DwefwIHNAAEiaEKQ3r2IIksznfqxaebV0BwAwGAEIjId2SdMQ5hsYfA4PmC9mX1bfs5G9lBZDAJieGIIctTDbiseFuSD/rMr67NE/NR6uTxiLQ2cC4E8CEIB2ncUvxMDD2mj5p80cAIOKFb+HQpBe/FqV9ZcEWmIJQABgZAQgMB4qQNIXvvymsjsNhtTG+93rhIejAjARsbJRCNKP0Frq31VZj3IWWBw6/XrpDhiG62SASAAC0B7VH7CetgJfVSAADE4I0rvfq7K+jIHDmGiDy5gYxg8QCUBgJOaLmQqQtKn+gPW1MQekEIAAMBZCkN4dhOuJqqxHETrE1lxvlu4AAAYnAAFoh+oPWFN8rVy1cLxejXD3JwCZiiGIGRD9CQPS31Vl/bUq66EHPp8v3QLDUgECEAlAYFzaGAzMMFR/wGa0wQJgcmJV91tntlcviqL4V1XWF0NsjKjK+jzOJ4Ex2XM2AP4kAAHY3UfVH7AxAQgAkzRfzM6FIIMIA8j/EwKJvoKQGH5ofcUoVWVtEDqQvUIAAqNjDkiaVH/A5tqaA/Ii9t0GgNEQggzqTddBSPh7q7L+Ivxg5FwjA9krBCAAO7uK/Z6BDcwXs69FUVy3dMxUgQAwOjEE+ejMDOYuCLmsyrq1a4WqrE/iRg5trwAgAT84STAqoQLknVOSFAMPYXtfYt/uXYVFjRPnAYCxmS9mx1VZFyoFBnUQfqqyDlXbF/HncpMWtrGVUBhwf9rStQv0ofeZOABjJAAB2M2F4wdbu4z9une1V5X10Xwx83oEYHRiCPK8pc88trcXg6jvYVRV1lfxWuTrA605n8cWQocxRIHUCECA7BUCEBiX+WJ2GXeIkYar2MYH2E6bc4+OBJIAjNhx/NzTNmk8XjkfADB9ZoAAbE/7K9hBy/NzjpZuAYCRiO2WQiXBlXMC9OTQgQYQgMAY+VKUjjZ3r0OuPrf0uL+3wVq6FQBGIoYgoRLkxjkBAOiHAATGZ+1hfAzquuXd65CrtttgAcBoxevHQyEI0AMzQIDsFQIQGCWL6mlwnqAd2mABkJUYghw760DHXjjAAAIQGCMVIGnQ/gra0eZrSRssAJIwX8wuiqJ462wBAHRLAALjo7IgDc4TtCD2Q79u8VgKQABIwnwxOy+K4oOzBXSlKut9BxfInQAExkcFSBoEINAec0AAyNJ8MTspiuKjsw905LkDC+ROAALjY2E9AXHXOtCONt/3tMECIDUhBLly1oAOCECA7AlAYGQsrCfhc+4HAFrWdvArAAEgGfH6/7AoihtnDWiZFlhA9gQgME52gAHZmC9mbbbAKgQgAKRGCAIA0A0BCIyTKpBx+5r7AYAOtFlZpQ0WAMmZL2ZfYjssgLaoAAGyJwCBcTIHZNwEINA+bbAAyN58MTsviuJ97scBaI0ZIED2BCAwTipAgNwIQADgzxDktCiKj44FAMDuBCAwTipAgNy0PQcktMFS8g9Aqk7MBQRacOAgArkTgMA4qQABsjJfzL52MPj1eOkWAEhAHIp+ZCg6AMBuBCAwTipAgBxpgwUAUdwc4LMM2ElV1i8dQSBnAhAYobjji/FyAQndaLsN1gtf+ABI2XwxC5+NvzmJwA5cDwNZE4DAeOn5O14uIKEbXVS/2TkLQNLmi9lZURSfnEUAgM0JQGC8VIEAuRGAAMBqxzZIAVs6dOCAnAlAYLy+OjejdZD7AYAudDQI/aAq6+dLtwJAQmKL3GND0QEANiMAgfESgIyYBVXoTBdVIHa9AZC8+WIWPiNPnElgQ767AlkTgMB4CUDGbT/3AwAdaXsQeqENFgBTMV/Mzoui+OiEAhvw3RXImgAExksAMm52lEM3unjv83oFYEpOzAMBAFiPAATGSwAybnbRQDe6aIH1oiprr1kAJsE8EGBDroOBrAlAYKTiMGDGy45y6EDsb94Fr1kAJsM8EGADew4WkDMBCIzbtfMzWnt2lENnPnfwF5sDAsCkmAcCrKsqa4PQgWwJQGDcVIGMmx3l0I0u3vsOlm4BgPSd2DQFrMHmPSBbAhAYNwHIuNlRDt3opA1WVdZeswBMSpwH4vMNAOABAhAYNwHIuB0oJYZOmAMCAGuK80DeO17AI14+fBfAtAlAYNwEIONnxx20TwACABuYL2anRVFcOWbAAwQgQLYEIDBuApDxE4BAy2I7j5sOjusrVVsATNhRR5+fAADJEoDAuAlAxu+1BVXohCoQANjAfDEL3x1OHTNgBdfAQLYEIDBi8UsM43fsHEHrBCAAsKH5YnZWFMVnxw0A4E8CEBi/a+do9AQg0L5vHR1TbesAmLpjrbCAe8wAAbIlAIHxUwUyfmGuwH7uBwFadtnRAX1RlbUvgABMllZYwAovlm8CyIMABMZPAJKGk9wPALSsy/c+bbAAmDStsAAA/iQAgfETgKThyDB0aE/HM5AEIADkQCss4C+6FgC5EoDA+HXVB5927ZktAK276uiQCkAAmLy4meDMmQYiG/aALAlAYPy+OEfJ0GsZ2tVVAPxCxRYAOZgvZqcdbigA0uL6F8iSAATGTwVIOsKiqp3l0J6uBqEXqkAAyIhZdUCgBRaQJQEIjNx8MVMBkhZfMCENAhAAsjBfzMKGgo/ONgCQIwEIpMHwwnS8rsr6Ze4HAVqiAgQA2nHiOwVkTwUIkCUBCKRBFUhazAKB8XtlDggAuZgvZt9co0L2XPsCWRKAQBrMAUnLG1Ug0Iquw1+74ADIxnwxOzMQHQDIjQAE0qACJD122MGO4m7VLmmDBUBuzKuDfB0490COBCCQBhUg6VEFAu247vA4CkAAyEociP7JWQcAciEAgTSoAEnTce4HAFrwtcODqAUWADlSBQKZskkPyJEABNKgAiRN71xgwqjtVWUtBAEgK/PFLGwu+OCsQ5Z8PwWyIwCBBMwXMxUg6TILBHZjEDoAtC9co944rgDA1AlAIB2+oKTJLBDYjUHoANCy+WIWPl/PHFfIjmtfIDs/OOWQjLAL+sDpStKpeSAwWipAAFipKuvnjc+JpxYNv8TQ/mtsMZWCszgPZM8zAACYKgEIpMMckHSFKpDThL4Mw5h0/d73aukWALJUlfVhDDoOY/CxVTBQlXX4z1UMRcLP5Rhb2oYqkKqsQwjybulOYKqeO7NAbgQgkI7wpem185Wsc+XGsJXOF4zCgtd8MbtcugOAyavKOlTpHnVwnf0q/ryJnzWhne1F+JkvZhdLf3o4qkAgL6qfgeyYAQLQj4O4qxAYH18EATISWluF6tyqrEOV4R89bTLai2HIP8O/W5X1eVXWg3/+mAUCAEydAATSYXdy+ny5hHESTgJkIgQfYU5HbPs0VNXDXRjy76qsL0ewSSZco94s3QpMkY0/QHYEIAD9eRXbLADj4osgwMSFaouqrL8MHHysclAUxb+qsv46VBCiCgSyot0dkB0BCCRCf/rJOAttF3I/CDAyL5wQgOmKraYu40yOsXoRg5ChKkJUgUAmfB8FciMAAehX2HFz6pjDuJjRAzBNjfAjlV3PdxUhF1VZv1y6tyOxCmRMw9mB7qh+BrIiAIG0fHa+JuHXPr/QAmvxRRBgmsLCfmhB+qEoiuuEHmEYzP4lzizpi006AMDkCEAAhnHuuMOoCEAAJmi+mH2dL2YX88XsZL6YhQ0oPxVF8TGRRxqqVt6F2SWxkqVT4VgVRfFp2IcM9MBmPCArAhBIizkg03FQlfVR7gcBRkQAApCB+WL2Zb6YhYqQH4uiuErkEYfZJf+uyvpk6Z722aQD0ycAAbIiAAEYzrkBdDAaYx6MC0DLYmXIfmItZn+Ps0E6u34M1TKJtQoDAHiUAATSogJkWgxEhxHpo70IAKNzltgpuZsN0uVnVmrHBNjMoeMF5EQAAjCsMBDdBSiMg3YAAKTgRdgY1WE7VW2wAIDJEIBAQuaLmQqQabLLDsZBBQhAfvqYq9GFUEn8z6qsj9v+u+eL2beEBsUDm7PpB8iKAARgeK+qstYKC4YnAAHISAwPDhJ/xH90EYIURXGxdAswFS+cSSAnAhBIT0qDGlnfu6qs7cSBZX2+LrwGATIRZ2hMpQq39RDEMHQAYCoEIADjod8yLOszlHi1dAsAU3Ue20hNRReVIKpAYKJiCAyQBQEIpMcckOk6qMo61T7UMAm+DAJMX2w9OsXQu+0QxOYcmK7nzi2QCwEIwLicaoUFf9P3lzOvP4AJq8o6fK68m/BDPGsrzJ8vZl+0wYLJEoAA2RCAQHpUgEzbnnYD8Dd9V2SoAAGYtqlX24ZrycsY9LTBdSlMk2teIBsCEIDxeRVbMwD9UwECMFExFMih3WibG2q0wQIAkiYAgfR8cc6y8M4sAvjuoOfDIAABmK7jiQ0+f0wrs+W0wYLJ8l0TyIYABBIzX8y+OWfZOG+xfQGwHl8GAaYrh+qPpt9b2lCjDRZMj++ZQDYEIJCmK+ctC6/CUPTcDwL5qsr6cIAHn8vOYICsVGUdKvxeZHjWz5Zu2ZwABABIlgAE0qQKl80OdQAAIABJREFUJB+/VmV9lPtBIFuD7EwbKHgBoFu5vrfv3AprvphdFkVxs3QHkLK+28wCDEYAAmkyByQvWmGRq6HaUXm9AUxPzjOeTlu4llQFAgAkSQACaVIBkpc9XzrJ1FABiDkgAEzJXgvzTy6XbgGSFlsDAkyeAATSpAIkP6F9gXkg5GaoL2UqQACYmpMdq0AEIDA9AhAgCwIQSJMKkDy9M5uAzLwa6OGqAAFganaqApkvZl+LorhaugMAYOQEIJAmFSD5ujAPhBxUZS2EAIB2qQIBmmyuA7IgAIEEzRczFSD5Mg+EXAwZgBws3QJA6ize/3kdebx06/ocQwAgOQIQSJcS9HyZB0IOVIAA0CYbiP60yzB0AQhMi84CQBYEIJAuX+LyFuaBHOV+EJi0QUvyteACmJb5YqaF7J9ebPsZF6vQbcKC6XC9C2ThB6cZkvVFm5bsnYcvsHEoJUzNUAPQ79gRR5Jif/+7BY39xnN5f8Pn9bfGzLG7//ubRWQS99n183cnO7TC+jKCz2gAgLUJQCBdKkDYi0PRD82FYUrCc3oED0cAwqjF18nL+HMYn7NtL0q+vn9DVdbhP9dFUXyN7XDCYuilzyEScSkA+W6XKuJwDN8s3QqkSAUIkAUBCKTLDkyKuNh1tuNASxibMQQg4QvhxdKtMIAYduw3fobeff0i/vy1kFyV9VVcGD1XJcKIhefoOyeo2IsbaLaZ6eH1DdOx51wCOXh2e3vrREOC4mLIv5w7ovfzxcxgdCahKusx7ND1mmIw8TP+7ifF3eqhQiS8fi5UhjA2VVl/s+j33Yf5YrbVQHTHECblHz6rgakzBB3SZfcVTYaiMyVjWPB9uXQLdCTM7ajK+rgq64u4sPivuEs91VY9oTrkj3Ct4rOJEVLd96ddqi19D4Hp0AYLmDwBCCTKLg1W+D4UfflmSMdI5n8UAhC6VpX1y6qsT6qyDguJ/42BweuJ7aoOQcg/q7I+X7oHhrNN26cpehXC1y0fl2MIACRDAAJpu3b+aLgbim54MymzW5zJalR6hNDjP0VR/D6CeR59eDOicJPMzRezEMjd5H4com1fl1+XbgFSZdMPMHkCEEibLx/cF3bbXgpBSJhFUiYnLP7HKoi7So8cQo/7vLYZE22w/rTt61ILLJgOAQgweT84xZC0rwn3B6c7YWHtrCiKY8eYlISWQCNaGPbeyk5iEB3eh09iOJ07LXMYkzCk/40zsl3v//liFub7LN0OADBGKkAgbSpAeMgbPddJkPZXJC/O9jiLn9G/Cz+++zhfzAQgjMZ8MQuvz8/OyE5h/9XSLUCKVGgCkycAgbQJQHhMCEFUgZASz1eSFYOP8zjb49eJDTPfRQg/vLYZo1Nn5a/qy234HgIAJEEAAmnzxYOn/CEEIQUja38Fa7sXfGip83fCD0YrViVdO0Nb9/83BwSmwQwQYPIEIJA2AQjrCCHIVj2eoUeja3+1w65YMhBmfAg+HiX8IAWqQAxCh9xp1QlMngAEEhb7F8M6LoUgjNzJCH89AQgrVWV9GjchCD5WuxJ+kIL5YnauCqR4vnTLer71/YsCAGxDAALpy/1LG+vZE4IwVvF5afcZo1eV9VFV1iH4eGfGx4NuxljRBY/IvQpkq2vD2EIMmADfEYGpE4BA+lSBsK6wWHcR2rY4YozMGKs/4C9xzsdFURT/FNY96UyFKilRBbJ1BUgRA08gfb4fApMmAIH0WWRgEy9iJYiLXEYhPhe1EWK0qrI+ib3uXztLTwqLoWcj/x1hlZyrQF4t3bI+c0BgGnw3BCZNAALpE4CwqVdCEEZE9QejFKs+QouX37W7WtvlfDEzF4DkxCqQK2duY17vMA1aYAGTJgCB9AlA2IYQhMHF558AhNEJsz7izuYDZ2cjdoOTsmw/j0Lgu3TjerzmAYDRE4BA+gQgbEsIwtCO7KxnbKqyPo+zPjw3N7ftIioMLg71/pzpmdj2tasCBKZBBQgwaQIQSJ8AhF0IQRhEfM7l3HOdkQnPyaqsv5hJs5MjnyckzufSZlSAwDT47AYmTQACiZsvZgIQdiUEYQgncSg/DK4q6/24kLfLMGD+rJrR1o5kxSqQT84gAMB0CEBgGm6cR3YkBKE3Zn8wJjH8uBTIteZdPKaQqhw/n7a6/ouBEZA+M8+ASROAwDQoP6cNQhD6cmq+AmPQCD88H9t17rOEVMXq6g+ZnUChJQAwWQIQmAYDCGmLEIROxQXnXx1lhib86FT4LLmY8ONj+k5VWK/NcYIJqMr6pfMITJUABKZBBQhtugtBXATThTNHlaEJP3pxUJX1eQaPkwmaL2bftGpcm+8hMA2++wGTJQCBaVABQttCCPJFH3faVJX1iR7DDC1WuF0IP3rxJr7uITnzxSwEeJ+dOQCAtAlAYBrsvKILe7ESRAjCzmJF0akjyQgYeN6v36uyPszpATMpArynfR37LwisxWc1MFkCEJgGFSB05S4EOXaE2dF5ajvu54vZ5dKNJC22ZHrlLPbuQltFUjRfzMImo/dO3qMEIADAqAlAYALilzPoSli0/kMIwraqsj7V+oqhxfewN07EIPZiCAopCrOrrp05YOKeO8HAVAlAYDpunEs69oeBtmwqtlB758AxpFh9YAD/sA7MAyFFcSC6TSDA1Gl7DEyWAASmQxUIfQgDbS/iEGF4VHyeaCPFGCTXgm2iTrXCIkWxJaJWWKv5nAcARk0AAtNhDgh9eR3ngljE4imXCS86f166hSTFqgMt2MYhvB+c5n4QSNN8MQvP3SunD5goFSDAZAlAYDpUgNCnMET4S2xvBEsMm2YMYhWSBfdxeeOzg4QdaTsLTJRKWWCyBCAwHSpA6Fu4SP634ejcF3fcpz5s+uvSLaTozBf6UTILhCTNF7OvE50Hcrh0C5AdbY6BqRKAwHSoAGEohqPzlxiI/T6BIyIASVxs05d6EDdVb7RRJFXzxeyiKIoPTuBffAeB6VChCUySAASmQwUIQwqLWed2DeUthh9/TOQgeE9Nn2B23FSBkKz5Yhaev5+cwe/HwuclADBqApD/Z+9uktu4rr8Bt1OZU/8VkFlAl5gViF6BmCFGoqt6bmYFllcQeo4qU6MehlqByRWELCwg4gpecQV+69oXDkzwAyS60ffjeapYdkDFIroJoPv+7jkHCjFfzOy+Ymof4nB0IUiFCgs/Gjta8xZnTBh8njbtE8ndiaHoQGFUZwJFEoBAWQxlZGph6PUXA27rUmD40agAyZ7qgvTtdW1/XPtBIF+x8iHMzrh1GoFCCECAIglAoCx2LJOCvVgJYndvBQoNP1TVZczsj6wIQMhaDEGObUICAEiXAASAMezF4ehnjm65Sg0/tDTJnvA1H0e1HwDyFwPzo8pDEJ+bUAafy0CRBCBQlkvnk8R837W9uSAFKjj8CL6sPUJOBCD52I8VO5C1lRAk13ZY27Yu1TYSAEiWAASAsYVBxNfmgpSja/vzgsOPRjvBfMWZEvu1H4fM2G1KEWIIcphpNcTe2iNAjWxKAIokAIGyqAAhVWFB8j/mguQtVPJ0bX9RwXwFAUi+zJTIj3CcYqwMRv/srAIZsokEKJIABIBdCnNBzrXEyk9sUxNC1vcVPF0BSL4EIPkRgFCUEILMF7PwXvSjMwsAMD0BCBRkvpipACEHoXrgUkusfHRtfxRDgbcVPN3b+WJmBkiGYvsrbVzy47OAIs0Xs49N03xb+XB0IDPu0YASCUAAmMLb2BLr1NFPW9f2YQHnl4oWlgXJ+TJLIk9CK4oVNyeFCspPhZ9llZNQDpX6QHH+6pRCca7i0GnIwb/iru3j2DebRMQ2ZRcVvp8IQPIlAMlU2G0aB0hDceL1zUloAdo0zdm9asrbpmm+rHw19z6Hvj712og7tZeLlW9iRdXynwc77OfvGg7KIQABiiMAAWBqYYH9SxiQPl/MLpyN6cWWVxeV7swWgGQoBnY1tGgrlcUWiherQQ7jZ+yTwcamHvhv/Ok6Kr43HsaA+OiJTQ1Xa48AtTq8/14CkDsBCJTn8ombG0hVWGj/d9f2oUXEqWqQ6XRtH3anfl/p0zf/I1/6VQNZ2OXMvng9dbkM92Mgchy/3q/9HwAACmQGCAApCQPSr+PuSHYotNHo2v664vCjsdsta94z8ibAgh0Igch8MTufL2YhAPm/pml+jEPahf/Aks9koDgCECiP9i3kLvSr/qVr+4u4U5GRxUHn/9FCqDlfe4RcuFnPm/d62LEYhnyMs0I+bvm3q9yFcvhMBoqjBRYAqXpvNsi44vDUc8HHb24f6KVOPtysA7xCbJO1bYDh8xMASJYKECjMLvsKww4sZ4Ncdm1/4IAPI1TWqPpYI2TLm9lXAADbc00FFEcAAkAOwoX4f8OivbZY24nzVcJOzR9yfh4jOCvuGQEAAEDlBCBQpivnlUL9EIekHzvBLxMqaMJclTBfJc5Z4X+u5ouZAbCZiqEeANMxAwQKovIeKI0ABIDc7K+0xbLwuYHY7uo6zlVh3bbDXwGgWmZoQXEEIEBRDEGHMl3q3UkFwu/4L13bfwoL2Hbwr4uVMmcqPp50ZXYSAAAAlEkFCAC5+xDng5ybD/K7ru0PQ4VMqJQRfjxL9Uf+Dms/AAAJuHMSoBiq7IGiqACBMilDp0YhCDnu2j5UPJzNF7Pq+lHHfr0f47Hgeao/yiD4BJjetQp0ACBFAhAok0GE1GovDko/jQO/q2iNFStfTuPX3tof4CFhp+rJA48Du2fjBgCkw+YSoChaYEGZLCRQu717rbGKbZETB5x/icGP8GNz5sZAOmzcgPypqIRyaC8KFEUAAgWqsfUPPCEEIf8JMzHiUPAidG1/0rW94ON1Quursxx/cAAAAGBzWmBBuW6apnnr/MIfQl/qd13b3zZNcx6+cqwACMFHnPNhuPnrhNZXxQRh/EYlT+bM4oEiXMZNGUD+VIAARRGAQLlUgcDD9uMN+g9d21/FMOQi9copwcdgjlTJFUcAkre72g8AFMJ7MZRDdTlQFAEIlOs67ngHHvcufv3ctf3nEISkFIbE4eYncbi54GN7380XMzOSIC1ek1CAUFXbtf2dhVMoQ7gPsWkIKIUABMrlYgVe5n38+jlWhoQw5HKKBfM4q+Q4zi9hGJ/mi9m5Y1kkn3d5E4BAOS7jtRSQv8P4mgbIngAEymVBAV5vWRnSxN2Ml/E19ds/h94N1bV9uME4Wvmye3JYYej5SUlPiP8JIWXX9o5IvrTNgXIIQACA5AhAoFx2xMIw9laqQ34b7hkHqX+JocjX1d1Rjw3zjSHHm/g/j+K/H2pVN7obQ8+roO1Kvh58zwSyFKpn/+XUQREOnEagFAIQKJcKEBjPfvxahhc/LP8mO9GTcmPoeTXMvcrTnbk8UI44ByR89r51WiF7AhCgGH9xKqFMFvyAygk/6mIRPU+qP6A8Z84pAJASAQiU7cb5BSok/KiPORJ5EoBAeS5iW0Igb0fOH1AKAQiUzeIfUBvhR51UgOTpovYDAKWJn78fnVgAIBUCECibBSGgJlfCjzrNFzOVBPm5CfMCaj8IUKL5YnYWP5OBfJkBAhTDEHQom0VAoBaf5ovZibNdtSuD0LNyXvsBgMIdxzZ3BqJDnvadN6AUKkCgbHZWAjX4p/AD8ySyo/0VFCxWY4YZArfOMwAwJQEIlE0AApQsDFn9NrbaAAvq+fis/RWUL4Ygx4aiQ566tj906oASCECgbBYXgFKFYeeHZj+wNF/Mri2yZUNoCZWI783Hzjdk6Y3TBpRAAAIFs7sSKNRP88Xs0HscD1AFkr4rwSXUJb7mv3PaITsCEKAIAhAon767QCluY8urU2eURwhA0vex9gMANZovZudN03xy8iErWmABRRCAQPnskAZK8JOWVzxnvphdCP6TpvoDKjZfzE5iC0sAgJ35q0MNxQsByDunGchUWMw+sWjKC4QQ5HsHLEmqP4CjpmnCXJD96o8EpE8FCFAEFSBQPhUgQI7CMOsf54vZgfCDFzJgO02fvJaB+WL2NQ5Fv6v+YED6zAABiiAAgfIJQIDcfIrtruwW58XicPzPjlxSwkKn2T3Ab+aL2bX3BABgVwQgUD4BCKwLbZWu1h5laldxyPlJXMSG11IFkpaTuOsb4DdxKPpPjgYkTSttoAgCECifRURY92W+mIUe1P/UgiEJy+DjSIschhB/j4ScafgpDqcH+JP5YnZqKDoAMDYBCBTOLmp43HwxO4vD/T49+ocYk+CDMWmhNr2buMAJ8Jgjm1EgXV3bHzg9QO4EIFCHW+cZHhZCwtByKSzE2zG+M58EH4xNFcjkbuPCJsCjYns87xWQLgEIkD0BCNRBFQj82Vov+rBYGttiCULGEXZ3/tg0zd/ijA/BB7ugCmR37uJ756f4Wj829wPYRByK/k8HCwAYw18dVajCFwPM4E+uHzsccWH+qGv7o7h46rWznc9N01zEYaewU+H13LV9+B1878gP5jZeV1zGf4ava2EHsI3QlrRr+9CW9IMDCUk5ip/5ANkSgEAdVIDAC60EIaHsO/SwD22y9hzHjYSBpucx+PD+w9RO48271+/L3cTA+I8vQQcwotM4m+2tgwwADEUAAnWwAAmvFBfwww35adf2IQQ5tpv8QUIPkhR+H7u2D9Vc/3KGnnQbQ47LGHTY7QnsVAhY47XWpdAakvHGqQByJwCBOliMhAHENk7nXdu/iUFI7WHI57hIIfQgabG1yoldxX9yE1+/y8DDaxiYXJgH0rV92Hjys7MBSTh0GoDcCUCgDtpVwIBiC5jVMOQohiHhn/sFH+ur5YKp3eFk6DhWONS6q9jrF8hC2HAS54F874wBANv65tdff3UQoQJd23uxw/98O9YCYJwZchS/cu5jfbvS99+CKUWIu4praYW1WuFxaXYHkJuu7a9V7sHk7uaLmTZYQNZUgEA97vTShfHFNjLn8auJFSKHK18hIHmX0Km4iyHHl/h1adAxpYqtsMLr8EOBTzG8li9WAg8trYDc1V65Bynw+gOypwIEKtG1/WVii64wpdEqQDa1EowcxK83Kz12DwZspXUV//k1LiI0cYG0UdVBjeJr77KQXcXLKo/z0Dd/7bsAmevaPoQg/3YeYVL/Z3MUkDMVIFAPFyyQkHgTsVEAsRKWPOerRVB4WnjtxYHol5nuavwcf/YLVR5A6eaL2UXX9j+ZBwKTOtz0vgUgRQIQqEdYFH3vfEN+XhKWAM8LQWHX9mFOz38yOFx3y8Ajhh42NABVmS9mp/E92zwQAODFBCBQDwsmABDFEOS7pml+TvCY3K0EHhdr3wWoj3kgMJ0Dxx7ImQAE6qEtDgCsmC9m513bNwmFIJ9j6HG+9h2AioWWf7F9oXkgsHsCECBrf3H6oBoqQADgnhg2fLf2jd25in9/GDB6LPwAeFisiPvpwW8CADzim19//fXh7wDF6dreCx5+v4H+xnEAVsWdxbuqBLltmiYEHecGmQO8TNf21+aBwE5dzRezI4ccyJUWWFCXO31zAWDdjtphfYqhx+XadwDYVAisL93XAACb0AIL6mIOCAA8Iraf+kfcMDCUUO3xz9ji6kT4AbCd+WIW7mlOHUbYGTNAgKwJQKAu5oAAwBNij/mjGFxsIww0/3a+mB3MF7Oz+WLmMxhgIDGw/uR4wk7sO8xAzgQgUBcVIADwjLi7+DAOKH+JUDnyY9M0f4sDzVV7AIzndICwGgAonAAE6mL3KQBsIFRsxIGfP23wx8MC3HehRcR8MftosDnA+GJl3bFDDePr2v7QYQZyJQCBuqgAAYAXmC9mp0/MBblaaXN1rs0VwG7Fir0fHXYY3RuHGMiVAATqYmEGAF4ozgU5iHM9mth3PgQfR9pcAUwrVN69omUh8DICECBbf3XqoB5hh1TX9s44ALzQstVK1/ZvVHoAJOckVrvvOTUwitAC68KhBXKkAgQAADYk/ABIT5y9dOLUAAD3CUCgPsrDAQCAosR2hZ+cVRiFIehAtgQgAAAAQAlOm6a5dSZhcGaAANkSgEB9DGsFAACKE9sUaoUFAPxBAAIAAAAUYb6YhQ1fPzqbMKh3DieQKwEI1EcFCAAAUKz5YvaxaZobZxgAEIAAAAAApQmtsO6cVRhG1/YHDiWQIwEIVCaWhEPVurY/rP0YAACUbL6YXTdN89FJhsEIQIAsCUAAqNEbZx0AoGzzxeysaZorpxkA6iUAgTq5CQAAAGqgFRYM48hxBHIkAAEAAACKNF/MvmiFBQD1EoBAncwBAQAAqhBbYX12tmEr2ggDWRKAAAAAAKXTCgu2c+j4ATkSgECdVIAAAADVmC9mX2MIAgBURAACQI2UbwMAVGa+mF1ohQWvpgIEyJIABCo0X8xUgFA7F+8AAHXSCgteZ89xA3IkAAEAAACqEFthnTrb8HJd26ukB7IjAIF6XTn3AABAbeaL2bn7IXgVlfRAdgQgAAAAQG20wgKACghAoF7Xzj0VO3DyAQDqNV/MvjRN89GvALyI+yggOwIQqNdX556KuXAHAKjcfDE70woLXsR9FJAdAQjUSwUIAABQOwPRAaBgAhColwoQAACgavPFLGwM+7H24wAbOnKggNwIQKBeKkCo2aGzDwBA83sIEmaB3DoYAFAeAQhUar6YqQChZnvOPgAAK04cDHiWGSBAdgQgULeb2g8AAADAfDG7bJrmU/UHAp62/+R3ARIkAIG6qQKhWl3b270EAMCqMBD9zhEBgHIIQKBu5oBQMwEIAAB/iG2CPzoi8Liu7c1TBLIiAIG6qQABAACI5ovZmVbB8KQ3T30TIDUCEKibChBqZucSAAAPOX3gMeB3AhAgKwIQqJsKEGrmwh0AgDUGosOTbCQDsiIAgbqpAAEAAFhnIDoAFEAAAhWLQ/6gVkfOPAAADzEQHR6lAgTIigAEMOAPAADgnjgQ/XbtG1A3rYSBrAhAAFUg1MrOJQAAnnPyzPcBgIQJQIAv1R8BarXnzAMA8JQ4EP3qiT8CtXnnjAM5EYAAAhCq1bX9gbMPAMAzTp/+NgCQKgEIIAChZgIQAACeNF/Mrpum+fTUn4Ga2EgG5EQAAghAqJkLdwAANvGxaZo7Rwp+4z4KyIYABBCAUDMX7gAAPGu+mIX7pjNHCgDyIgCBysULeajVoTMPAMCGzlSBwG+OHAYgFwIQILh1FKjUGyceAIBNzBezr6pAACAvAhCg0QaLiqkAAQDgJVSBgI1kQEYEIEAjAKFie04+AACbUgUCv7GRDMiGAARoBCDUrGt7/WsBAHgJVSAAkAkBCNAIQKjcQe0HAACAzakCARUgQD4EIEAjAKFyAhAAAF5KFQg100oYyIYABGgEIFROCywAAF4kVoGcO2rUqmt7g9CBLAhAgHDxLgChZi7cAQB4DW2wqJk2WEAWBCDA0q0jQaXeOvEAALxU3Ej2yYEDgHQJQIAlVSBUq2t7bbAAAHgNbbColVmKQBYEIMCSAISauXgHAODF5ovZZdM0N44cFXIPBWThr04TEAlAqJn+tQBAteIw49XrodXq2PvfWz72mjaityv3HV9Wvi4zn0sYZoH8vPYoADA5AQiw9NWRoGICEACgOPeCjWWocbCyc/vdjp/zfvxa+7u7tr+N7aTO5otZbvcmFwIQKqSNMJAFAQiwdO1IUDEBCACQpa7tl4HGYazMONqiQmNKIRj5oWmak67tj+eLWTb3JyGw6do+DEP/sPZNAGBSAhBgSQUINdsLiweZt14AAAoWg47Dla83E1Rw7EIIQi67tj/KKQSJVSACEGpiBgiQhW9+/fVXZwr4Tdf23hCo2T/mi9mF3wAAYGph8T8GHcvQo8Sg4zl3oZolpxCka/uwqWxv7RtQqPli9o1zC6ROBQiw6s4FOxU7ijv3AAB2pmv7ZVXHMvTIrXXVWMJ9yUU4PhnNBFEFAgCJEYAAq64r3V0GjTkgAMDY4lDyo5XAw7X300I7rI9N05w++afScSkAoSYxoDRPFEiaAARYZQ4INbMAAQAMamVux1H8Ut3xct93bX+Wyay2UAHy89qjUK43zi2QOgEIsCrs3HjviFArO5gAgG2sVHgcx3/uO6CDOM2hCiS06ura/kbQRUUEIEDyBCDAKhUg1O4oBoEAABuJA8uPVXiM6iSjNlgXfg+oyKE5ikDqBCDAKgu/1M4cEADgSbGt1TLwUD29G3shaJovZpcZ/KzhZ/xh7VEAYBICEGCVChBqd1T7AQAA1oU2mbEKQZXHdI5iuJC0ENJ0bX8XQpsKzxH1sYEMSJ4ABPhDmH3Qtb0DQs32w67OTIZsAgAj6tr+OFZ6HFvMTkJOG1UuVQdRCTNAgOQJQID77FaiduHm+rz2gwAANRJ6JC2nneYCEABIhAAEuC/MAXm39ijUQwACABWJQ8xPhB7Jy+ncmK1ILawdAMkTgAD3mQNC7cwBAYDCxUHmpzH02He+8xBmsYS2van/sHEOyNrjAMDu/cUxB+6xW4na7cdFEQCgMF3bn3RtH9oT/bdpmu+FH9nJad7A1dojUCD3TkDqVIAA96kAgd93g545DgCQv7g4dxIrPrS4YlcutQeiEuE99ouTDaRKAALcpwIEfm+DJQABgIzF4ONj0zQfnEcm4L4KABIgAAGAdeaAAECmBB8kQgBCLY5ixRNAkswAAf4kDOxzRKDZ69peCAIAGena/k3X9mdxvofwg0nNF7PQEujOWQCAaQlAAOBhxw8+CgAkp2v7w7jj/ntnp2i5zStUBUIN3jjLQMoEIMBDrh54DGqjAgQAMtC1/Ulsv7LvfJVtvpjlFiiorqcGh84ykDIBCAA87G3sIQ4AJCqGHz+H9pXOEQn64qQAwLQEIMBD7FSC32mDBQCJivO6fnZ+qpFjlboAhBqoAAGSJgABgMdpgwUACYpVmhfOTVWyCxPmi5mNZdRABR6QNAEI8BAX6vC7913bG+oHAOk5t+hWnVyrKW7XHoHCuGcN+ipmAAAgAElEQVQCUiYAAYCnaYMFAAmJcz/eOSfVyXWTljZY1EAbLCBZAhBgjVJt+BMBCACk5aPzUZ+M71HcWwHAhAQgAPA0bbAAIBFd24eNCfvOR3Vuaj8AkLgDJwhIlQAEeMzVI49DjVSBAEAafCbXKecqChUg1EAAAiRLAAIAz7PYAgBp8Jlcp4vaDwAA8DoCEOAxdirB/2iDBQAT69o+DNndcx6qc5fzjELzFanEkRMNpEoAAgCbseMUAKZ16PhXSfUHAPBqAhDgMXYqwZ8JQABgWnrM16mEAMQQd0rn/RlIlgAEADYT2mC5sAcA2J3Q/qqEAOTr2iNQln3nE0iVAAR4zPUjj0PNVIEAAOzOeSHHWgACABMRgAAPmi9mLtJh3cnaIwAAjOWskCNrcxnF69renCYgSQIQ4Cl61cKfvXVhDwCwE1fzxeyLQw3ZeONUASkSgABPUQUC61SBAACMr5Tqj8Z9FZUQgABJEoAAT1GqDesEIAAwjUvHvRq3hQw/X3JfRQ1UygNJEoAAT7FTCdbtdW1vGDoA7J52SPX4WPsBAACGIQABnmKnEjxMFQgA7FicB3HruBfvrmmakqo/oBYqQIAkCUCAp6gAgYe979pej1sA2D0L4+U7my9m7kMgP+6PgCQJQICnqACBx6kCAYDdE4CUr6Th50vatwHARAQgwKPsvIInCUAAYMfmi9mlNlhF+1TiPUhs3wale+cMAykSgADPuXnm+1Crt13bHzj7ALBzJVYI8DvDzwGAQQlAgOeoAoHHnT76HQBgLOdxUDZl+aRSAvJmgxiQIgEI8BxzQOBxx49+BwAYRWyRpAqkPKo/IH8CECA5AhDgOSpA4HH7j34HABjNfDH7aBZIUa5UfwAAYxCAAM9RAQKPMyMHAKZz4tgXQ/UHlOHIeQRSIwABnqMCBB7n9QEAE5kvZpdN0/zk+GfvKp5LAIDBCUCA56gAAQAgSfPF7FRFZvZUf0A53jiXQGoEIMCT4pBJ4GFeHwAwvSMhSLY+q/6Aohw6nUBqBCDAJgyYhIepkAKAicUNO0KQPJ3WfgAAgHEJQIBNfHGUAABIlRAkS5/mi5n7DCiLChAgOQIQYBNuTAAASNpKCPLJmcqC2R9Qnj3nFEiNAATYhAAEHnbw4KMAwCRCCDJfzE6apvmuaZo7ZyFZP6n+gDJ1bW8QOpAUAQiwCTcn8DABCAAkaL6YnWuJlay72qo/urY/WnsQyqUNFpAUAQiwCQEIAABZmS9m11piJekstisDABidAATYhAAEAIDsrLTE+oeWWEm4nS9mZn9A2VTJA0kRgADP0p8XHqW/LQBkYL6YXcS2LFfO16ROK37uUAsBCJAUAQiwqVtHCta8XXsEAEhS2NQzX8xCS6wfnaFJXMUgqkY2zQDARAQgwKZUgQAAkL3YgunvNvjs3Ellz3eVodDUxNB/ICkCEGBTAhB4QNf2bmgBIDNxQHr4DP/JuduJH7XVBQCmIAABNuWGBR6mpQEAZCgOSA8zKb41IH1UBp9DXcwAAZIiAAE2JQCBh6kAAYCMzRezy7hg99l5HEXNra+WtASiJvvONpASAQiwKQEIPEwFCABkLlaDHDdN8w/VIIP6KQZMAACTEIAAmxKAwMNUgABAIeaL2YVqkMGEIfNaX/3OhhmqYk4ikBIBCLARQwvhUXrcAkBBVqpBvo2L+LzOcTiWjt1v3q49AmUT+gHJEIAAL+EGENa5oQWAAsXWTWEX80/O74v9OF/MrjP7mYHhCECAZAhAgJdQBQIPUOINAGWK1SCnTdP8vWmaG6d5I1fzxUzrq6hrewPQqZH7IyAZAhDgJZSww8O0wQKAgoVqhvliFhb0/mlI+pPCsTl+6g8AAOySAAR4CWXs8DA7nACgAvPF7CxufPjkfD/I3I91KkCokfsjIBkCEOAl3MzAw9zYAkAlYlusk9gW68p5/8N3cW4KgBkgQDIEIMBLqACBh2mBBQCViW2xwiaIfzRNc1v5+f80X8zO1x6lsVEGAKYlAAFeQgUIPGy/a3u7nACgQvPF7GK+mIXNEN9VOh/kc6yI4WGuEanRO2cdSIUABNhY2OXmaMGj9LkFgIrFCogQhPxYURBy0zSN8ONpb5/8LgAwKgEI8FI17mqDTWhvAACVi/NBPlYShITw48jQ88d1ba9NKtXy+w+kQgACvJQqEHjYqwIQrbMAoDz3gpB/FjgjRPixGQvA1MzvP5AEAQjwUm5y4GGvbYF13rW96hEAKFAMQs5WZoTcFPAsPws/NuYaDwAmJgABXkoFCDxsr2v7F4UgMfh4v/YNAKA4YUbIfDEL1wrfNk3zKdPn99N8MTsWfmzMDnhqJgAEkiAAAV7KzQ487qVVIB/jP90cA0Al5ovZ5XwxC4PD/y+2x8qhKiTMMvluvpidrn2Hp7jGA4CJ/dUJAF5IBQg8LuxyOn/0uyti9ce7+IibYwCoTKyiOAtfsYo0hCLHTdPsJ3YkrsLPNl/Mvqx9h+e8e+b7UDKzDoEkCECAl1IBAo97SZn3ycq/C0AAoGLzxSxsMgrVFacxDDmOX28nPCphcPvH0Lpr7Ts866WtUaFAXgNAEr759ddfnQngRbq298YBj/vbczsku7YPu6H+38pDV/PFTI9cAOBP4jXDcdxkcbijQETwMYCu7cNml5+zfyLwepPd48QAMmwyu1a9BqgAAV4j9ADec+TgQZu0wTq597+1RwAA1sQ2WefLa4sYiBzG642D+HW45bX5XWxze9k0zUWsRmF7dr9Tu528BmJr4eV74eG9e6tvm6YRgEDlBCDAa1xbsIVHvSYACRfuB3YnAQBPiYHIZfz6k7jjedlz//CJ/vt//H/DQPa17zIUAQi1G3TT5EoAvPr1XFWcVsOAAAQABvZkmXcIOh65UD+wOwkAeK17lRuCjenZMEb1QmgRg9sXifdMByvt/8LX/iuOpwAEEIAAr3Lpgh4etR92YD7RPuJ47ZHfHVmsAADInwHo8IfD5+5xVuZ1HK4EHlpuA4MRgADA8I5iq7iHPFYh4kYZAKAMj13vQdWemdcxBq9FQAACvErYwfGDQwePChfaZ4988/3aI78TgAAAlMF1HfzupGv7k2azeR0Ao/iLwwoAg3sw5Ig7nh6zHwf7AQCQt6eu+aAmH+LXVOGHGSCAAAR4ufli9mQPT+DRsOOhx17yfQAAEhaHN79mWDMwPK9FQAACACN5aNj5cwGHdgkAAHlzPQcJUWUPCECA17py5OBJDwUgz90Qv7gCJO4yBAAgDSp6IS1CSaicAAQAxrG/Gk7Ef9975m96t/bIE7q2DxfzF4//CQAAduyhTTAAwEQEIMBrmQMCz1u9Ad5o59Ejs0MeE/77b7u2//jI9wEA2BHzPyBJKkCgcgIQABjPapix6YX3SwOQ4FQrLACAyWl/BekxAwQqJwABXksFCDzv/crQvUEDkBh4vI3/M7TWOl/7QwAA7JIABNIjAIHKCUAAYFzLKo1NKzTerYQmT7l/gx3+f6dP/HkAAMZl/gekRwssqJwABHiV+WKmAgQ2s7wRfvuC47XJ7sGH/sy/4mB0AAB2KF6D7TnmAJAWAQgAjOv9K+ZzbLJ78KEAJLjYsIIEAIDhqP6ANNkgBpUTgADbuHL0YCMvbU31WLjxmxhw7K9943f75oFQq67tzwWAAExEAAJpUpkFlROAAMD4XnpDvP9MK6unvtfEqpOPa49C+T40TXP5zOsHAAYVw/eXtDsFdugVFflAQQQgwDbMAYHNPFat8ZSnQpMnK0SiH7q2P1l7FMr3NoYgfv8B2JWnrtuA6QlAoGICEABI01M30ptewP9sJzyV2ou//1piAbALT123AQATEoAA27h29GA0b58o1X7s8YdoB0TNtMQCYFQxaH/vKEPSNqmgBwolAAG28dXRg1E9tpvw3dojj9uzAEzlli2xTms/EACM4rHrNQAgAQIQYBsqQGBcazMMXtnOJ4QgWgFRg6tHnmN4Dfyra/sLrwMABiYAgfSZAQIVE4AArzZfzFSAwLgeaoP12kqO5S54i7+U7LnPpdCi5Lpre20QANia9leQDQEIVEwAAmzrxhGEUQ25q1AIQuk2qUzcb5rml67tP659B6AwPvNHp/oDABInAAG2pQoExnW/Dda2O9dDCHK29iiU4fIFz+KHru2vH6iyAihCfH/zPjcuAQjk4SUzFIHCCECAbZkDAuN6qA3Wtj50bS8EoTjzxSwEIHcveF5v4+Lg2rwdgAKcx6o3FW8j0P4KAPIgAAG2pQIExjfG7sLvLfpSqJeGe2FA+s8GpAMliW3+ljueP5h9NArVH5CRru1fO0sRyJwABNiWChAY3+nK3zDkhfuZGwFKM1/MwqLfp1c8rbCL94tFQiB38X3sh3tPQxXI8E53/RcCW7HRBSolAAG2pQIExre/ElQMeeEedr7b9U6JwqLUzSue114ckH7mdQHkKL53XTzwo79T+Tmc2J70bSnPByrh2g4qJQABtqUCBHZjrEWLfS0cKM18MQvh/NErQ5Dg+zgbRDUIkJuLGOY+RBXIcFR/QH5UvkOlBCDAVuIiEzC+MXdtCkAozgAhyH6sBrFgCGQhVK+tzP14yP4Dj/E6rp0AIBMCEGAIr11cAja3N2Lrivfa/VCiGIKE183dFk/vh67tr83LAVIWrxG+f+ZHvFp7hBfr2v5YmARZci0HlRKAAENQBQK7MWYViFY/FGm+mF3H3+9tQpDQ5/0/qkGAFMWA9myDH+2h2SC8nFkqkCcbvqBSAhBgCOaAwG6EthYHI/1NWjlQrIFCkEY1CJCaWMF5+cTcj1UCkC3F4efvs34SUC8BCFRKAAIMQQUI7M5YLRc+aINFyQYMQVSDAEl4YfhxM1/Mvqw9yksZfg75euvcQZ0EIMAQVIBAGVSBULQBQ5BGNQiQgLMXLOidrz3Ca2h/BQCZEYAAQ1ABAmUQgFC8GIIMtYClGgSYRHzf+fCCv1v7qy3FQfObVNsAiera3txDqJAABBiCcnoow/vY2xqKNl/MwkLgdwM+R9UgwM7EhfgfXvD3fdb+ahDaXwFAhgQgwNbcUEFRtHagCvPF7HzgEGRZDXJmng4wlrh7+ecX/ue1v9pSPO7mB0D+bPaCCglAgKHcOpJQBAEI1RghBAm+D7OxtFgAhharzF7ayuo2Vr2xHdUfUAYBCFRIAAIMRRUIlGG/a3uzQKjGSCHIftM0v6gGAYYSw4/LV8ygUP2xpdge9H3WTwIAKiYAAYYiAIFy2OVIVWII8o+mae4Gft6hGuSLUBHYRgxSz185gFsAsr2PuT8B4A8qdKFCAhBgKAIQKMe7lw5DDzvd1x6EjMQWMUcjhCBhwfLfXdtfvPR1BRDDj8tXzp/4ZFbfduL79oecnwPsWLiOumqa5qdYYXvjBABTE4AAQ3FzBWXZeLdjXJz5vmt7u0zJ2nwxux4pBGli+5QwG0SFFbCRLcOPRvXHILxnw+NCuPG5aZofm6b5tmmav80Xszfzxexovpidxgrb1GYQ2YwCFfrm119/dd6BrcVhr784klCUv22yc/Te6z/sNjVInaxt0Wt/U2HB4CQGLgBrBgg/buaL2eHao2wsnoMvI34WQC7CxpDrla8v88XscpOfvWv7sKnqh7VvTGi+mH3jNw/q8lfnGxiIChAoz8kr+l5/6Nq+EYKQsxBMxGBvrBAkLGj+p2v70B7i43wx+7r2J4DanW8RfgRaU27vVPhBhW7ivf11vA76UlorvRBuuvaCuqgAAQbTtb03FChL2O118NwNwiMVYD+F0ve1PwwZ2UElSHAbFtniDBKAJraU3GbuxO18MdPmZQuqP6jAq6s6XqJr++MwCy2xw/ntGM8VSJcKEGBIYRFn3xGFYuzF3Y8vrQJp4kyQ69j7F7K0Ugmy7U7sp+zHIelXsS2Wikqo2ADhR2P2xyBUf1CSKas6ntxIBbALAhBgSF8EIFCc067tz15ZJv5z1/Zf7WwnZ/faYY0VggTvmqb5b9f2P84Xs9eEjkDmBgo/7rS/2k7X9geGn5OpnVR1FGBZ4QtUQgACDOlLXMAByrFNFUhwHhaPDXsmZyEA3FEIEvzQtf1JrAZxcw6VGCj8CF67aYH/+aj6gwzkMqsjxXuAN2uPAEUzAwQYTNf24WbhB0cUihN2kx0+dlP1yAyQVbfx/29BhqzFnvC7CEGWPsf5IA++9oAyDBh+BH/znvF6sfrjv7n+/BQp+6qOBGeFmlUIlVEBAgzJzRaUaS/uhjx55bPbj4vGh2vfgYzEEO9w4MXKp7xvmuYotqHTFgsKE0PViwErqD8JP7bmvZYp5VLVkTv3JFAZAQgwJBdnUK4Pocpri5uwt3ER124rsjdfzE66tm92FILsrbTFOjVTB8owUkWZxfstxIrWXbyvw91qyBH+vfB2sTc7rJ4FWCMAAYYkAIGyhV3vR1s8w++7tr+0gEsJYggSKkK+39HTCZVU/+7a/irOB/GZC5kaKfxQ/bE9ARJjuFm2roqv++sK28Km9nxVgEBlzAABBpVgf09gWN/e7zu8wQyQVU/OE4HcxMqMnyf4sX807BjyM+IsIbM/tjDheznlqK2qY2NhA9SArf4GMV/Mvknp5wHGpQIEGNpdbNcBlClUgRxs8cz2Yr9zO68ownwxO4/tsHa9cPZDaInVtX1oi3W+9l0gOV3bH8bPwP2BfzbVH1uIoZTqD15CVcfLXKcWgHRtf+B9E+qhAgQYVIq7O4DB/Xh/IPMrqr/W/huQs1gJdTHRJoCbOB/kcu07QBJi+HE50nuE6o8thBlnMVSG+1R1DCDR19haVTtQLhUgwNDsfIHyhV3n51sutoShzhduIilFuImOIchYC5xPCa10funa/nMMQiyEQkJGDkhVf2wh7AIXfhCp6gAolAAEGFq4aHzvqELR9gYYiN7E/4ZWWBQjBHorLW6G7u+/ifD5+75re/NBIBE7mC2hmvKVYvihhWB9VHXsXorHd7lpBaiAAAQYmsUWqMO7ru2P54vZRXy2V69of/c2lMRrhUVJwk7slUqQKUKQxnwQSEN4DTZN868Rf5gfVX88LwbTB3HTRfh6o2VvNVR1pMExByZlBggwqLjo84ujClUIO+jCAMGvW87/+budd5QmDtU9a5rmw8RP7bZpmhN9rmG3QqvIHbz+w+v7o6Dzj/fc1YDjKIYeQw+cJ02qOhKW6BpBaB94svYoUCQVIMDQ7O6AeixbYR3Hm83XBiBnA7TTgqTEHaYnXds3E4cg+3E+yFWcD2JBCEYUF+LPd9QSNry+f46VJqc1BJ2xmmM14FhWdux69hLTuYrXnao68pHitcfB2iNAsVSAAIPr2t4bC9TlH3HxYZshot/ZwUqpdjAD4CU+xR3j2ubAwOJMialmADUlVYTEHePLgOMohh5THVemcbsacoR/F+LnK8E1gqv5YmYDFlRCAAIMrmv7r3ZhQVXuYhXHNgHIH+201r4DBQgzc+Ku8FQ+Hw1KhwHFyoTLRF7jy8/l85TDzhgYrQYch6o5qrWs6rhefvl8KkuKmyTni9k3aw8CRRKAAIPbchYAkKe7ARYsfjQQnZIltkDaLBdJve5gO7HK6yzRhfubGL5eTBWGxGqO+zM63CvUSVVHpbq2v06tiksAAvUQgACD69r+Ykd9j4Hy/E1rHkqWQIuchxikDK/UtX0IPr7P5Pgtw5DLoRed7w0hP1j5pyHk9VLVwR8S3ST5dwEc1MEQdGAM1wIQ4JXCTvQTB49ShYAv7obe1ZDkTSwHKX8UhMBmdjzsfCgheP1X8/vPfxt34V/EQGSjhelYybYacByo5qieqg5y9caZgzqoAAEG17X96fLmCuAV7MaiCl3bh8XTDwk+16sYhFyufQdYhgDnhQ3lvlkJRK7vBRyGkLOkqoNXSbRa7h/zxexi7VGgOCpAgDFYuAS2cRYXW6Bo88XsJLaE+Dmx5xl2c//Stb0gBO7p2v44hh+lDep+G79yaefFuFR1MLQUg7LDGPoChROAAGOwCwjYxrvQIsiiKzUI7aa6tv8Sb8BTW1AVhMCK2CbuB8eEwqjqAKBoWmABo+ja3psLsI2r+WKmCoRqxJY6F4kPDBaEUKU47+PCrAsyp6qDycTquX8ndgY+zxez47VHgeIIQIBRCECAAZgFQlXiIutlBn32QxByEga6r30HChPDycsCW15RtqtlyKGqgxSE6u5QVZrYybDhCiqhBRYwliu75IAtnYZFVgeRWsTFqcOEh6Mvhc/3/3Zt/ynM7BFUUqqu7cPn0L+cYBJ2u9q6KgYdwmnYzBvHCeqgAgQYRRzqKgABtvU3N/LUqGv7kwSHoz9GayyKEquxQhD53pklIX+q6vCeS07i++r/S+1Hni9m36w9CBRHAAKMwpBIYCCf5ouZKhCqFNtFpDgc/TGCELIXX3fnic/joWyqOihSim2yBSBQBwEIMAoBCDCQu6ZpDvStplZd2x/EECT1uSCrBCFkyfUrE1DVQTUSnRP6rdcdlM8MEGAsl24ggQHsxTkgZw4mNQq7fld2pOfSjie0wPyla/urOCPkYu1PQEJi0HiufSsjUtUBv78OVNcBOycAAQBSdyoAoWaxAuo4w93pYTH5Xdf2t7Ei5HztT8DEurY/juFHLq3mSJ+qDnjYlwQDkIO1R4DiaIEFjCbRElcgT8rTIf/F2t+CkNDSS1s7pmbQOQNQ1QEv0LX9ZYKVdj/OF7OPa48CRVEBAgDk4CS21oOqhXZSKy2xcpoL0sRdnz+Hiq6u7c9ieyxBCDtn0DmvoKoDtvdFq0FgCipAgNEkusMDyNf/WSyF3xW0e/1TbI9l1zSji6+bsNP3e0ebR6jqgJEk2srzar6YHa09ChRFBQgAkAvD0CHKeC7IfR/CV9f2n2NFiF3VjELVB/fcrYQcqjoAoGACEGBMKkCAIQlA4J7Qt7pr++sChjiHSpb3XdvfxCDEwHQGoeqDpmluliFHvD/5oqoDJpHi684QdKiAFljAaArYlQqk528WLWBd1/bhBv4iw7kgj7mLgac5Ibxa1/bH8fdI1Ucd7u61r/qiqgPSESvxfkntlMwXs2/WHgSKogIEGNOlAAQY2Gn8AlaEYDAuLJzFtlK524vXED90bR/mhJxbyGRTBc3I4XGqOgCAjagAAUaT6g4PIGu388VMqTo8oWv70C7u58f/RLa0x+JZXdufxpZXObeE439UdUAhYrXqfxN8Nt96X4GyCUCAUXVt700GGNrf54vZtaMKj+va/jC2xCqx9c9d3N1/Zsc3S/F3/rygNnA1UtUBhUt0fUAAAoXTAgsAyM2JNljwtBASriwIl9YGaC8OtP6+a/ur2B5LVUilDDnPkqoOICWHMXQFCiUAAcYWFibeOcrAgI4FIPC8ODz8OLYE+lehhyxcY7zr2v5jrHhRFVIR7a6yoKoDWHWbYHXqm7VHgKJogQWMqmv7SwEIMAJtsOAFCm+JdZ+qkMKtDPzX7iodqjqAZyW6PvDTfDGzuQoKpgIEGNu1AAQYwVF8fwE2UHhLrPuWVSFnK1Uh3i8KEAfonru2nJyqDqAkh84mlE0AAoztqyMMjOAk7v4FNlRJS6xVoS3Sh/DVtf1NXDi/sFCbnxh8fIznk925Ww05VHUAA/gixAZ2TQssYFRd24de/f92lIER/F9c0AVeqLKWWPd9js/9wntI2gQfO3WzbF0VA49rrw9gaHFm1w+JHdi7+WJmDggUTAUIMDY3TsBYjuOObuCFKmuJdd/7+HXWtf0yCLlY+1NMJs74OBF8jOJ+Vce1FnFA5fZqPwBQOhUgwKi6tg87Kf6fowyM4NN8MTtxYGE7sSXWx8oXAO5iVci5Fj/T6dr+JAYf2qMMQ1UHkJT4Pv9zgmdFZTkUTAACjK5re280wBhu54vZgSML21upBnnrcDa3K2GInfEji22ulsFHjS3ZhqCqA8hCrPD7JcGf9VsbIKBcAhBgdF3bX1tQAUbyNwONYRixajNUgnzvkP5hGYZcapM1rLgL+LjCFmzbUtUBZEsAAkzBDBBgF9yUAWMJi2dnji5sLy6innZtfxmrQfTE/r0iIQRC33dtf7cyPF0Y8gpd2x/H9+1jv1/PUtUBlCjVjUtH8f0WKJAABNiFa72cgZEcCUBgWGFxP7YluvD5/Sd7cSj3h67tw+Of42LJhUq0xwk9NqKqA6hC+LyMn6EAOyMAAXbBDRwwlkNHFoYXF1+P4oD0fznED3ofv/7Vtf0frbJiu6xqr33iPJmj+KW91Z+p6gBIk7mCUDAzQIDRxZ1//3akgZGYAwIjMiD9VW6XYUjpi9z3Ao8jVR5/cnXv98CmIKB6Xdt/iS0mU3I1X8yOaj83UCoVIMAuuNkDxnQUF2eBEcTF+8Ou7c8MSN/Y/rJdVvP7Yk8TF8Ovl62Ochy2GsOOw7hT9kiLtCeFtlbHQg+ANSkGIEDBBCDALijtB8YkAIEdmC9mYUD6RXy9Wbh4uXergUEMRW6XrZDihpHfQpEpw5Gu7d+shBwHK/+uAmhzodXVifADIBsCfSiYFljATnRt780GGMvNfDEzCwR2JC6Qf1QNshM3K5W0q6HI1y02mIT3yzfx39+szFI6EGwN5tscK3wAdqFr+/NlhWRK5ovZN34BoEwqQIBdubFzEBiJ9xbYobirfVkNcmHmw6hW39/sTs3Dd8IPIDVh80JCVWlJzu7r2v7AXEEo01+cV2BHtAAARtO1vaGFsGNxkTdUDXx27OE3/5wvZloyAik6c1aedZD4zwe8kgAE2BVzQIAxCUBgAmE36XwxO26a5h9x7gHU6tN8MbPACCQnVDaEllMJbRhKdXPkm7VHgCIIQIBdUQECjMkMEJjQfDG7UA1CxUL4ceIXAEjUx8R+rFQ3R7qfgEIJQIBd0UsTGJOSdZjYSjXIt03T3DofVEL4ASQrzP5omuY4/nyul4EqCUCAXRGAAGMyCB0SEWeDhF2UPzknFE74AejGcfwAACAASURBVKTutGmavfgzphKApNodQgUIFOqvTiywIwIQYFShr3FceAV2IPYUP4g9s5eLBsv+4ocrCy5QohvhB5CyWP1xmtqPOF/Mrru2X3s8AWaAQKEEIMBOzBezL4le5ADlCAuuAhAYQNf2h3Eh4KGQ451jTOVuVsI+gFSd3tuMoMLhaQIQKJQABNil0A983xEHRqKvMWxAuAFb+RQWFcPMG4cRSNUj1R8pLfDfJVgpqqUuFEoAAuzSFwEIMCK72qheaAUXj8Ey5BBuwHDM/ABycZJ4K8pr1yXArghAgF364iIHGJEAhKI9EG6sVnDYtQjjEn4AOXlo9od78WeEKtkwo+TpPwXkRgAC7JJB6MCY9kK5v7Yk5Ei4AUkTfgDZ6Nr+JIPOC6ler5sDAgUSgAC7JAABxmYQOkmJPbiX1UkPtacSbkDahB9Abj4+9vMmtFkoVFm8X3t0emYKQoEEIMAuCUCAsQlA2Jlnwo0Dc68ge/+cL2ZnTiOQiw2qP1wrP00AAgUSgAC7JAABxqZsnUEIN6B6380Xs/PaDwKQnUerPxKjZS2wMwIQYGfmi9mXru0dcGBMR44urxXncFyEeTIOIlTrLgwPFn4AuYnXMc9t0EilwiHVQePuJaBAAhBg127tmgVGpAKEbQk/oF4h/DiaL2apLswBPGWT6g8tnoDq/MUpB3ZMGyxgTAZKsw2fUVCvG+EHkKtY/fEuox8/1RZYAiIokAAE2DWLS8CourZ348KrhFaNjhxUSfgB5G7T2R9JtHhK+P1WtwookBZYwK5ZXALGduC9hi1o1Qh1+TRfzE6ccyBXGVZ/AOyUChBg11ItdQXKoQKEbQjPoB7/FH4ABXjJ+1hK8/Lu1h5JQAyUgIIIQIBd01oAGJsAhG0IQKB8YdHtH/PF7My5BnIWW79+eMFTSGlenrUBYCcEIMCuqQABxiYAYRsCECjbct7HhfMMFGDT2R9s7tCxgrIIQICdMlwS2AEBCNsQgEC5Phl2DpTiFdUfv4n/vxSkujkypTZhwAAMQQemENoO7DnywEgEIGxDAAJl+qeWV0BhXlv9cZDI9U4Io9+vPTo9AQgURgUIMAW77oAx7Tu6bMFnFJQltLz6u/ADKMlrqz/YiBZYUBgBCDAFc0CAUXVtb+cWrzJfzHxG5eEqfv0YdvaHgdZN03yu/aCw5ictr4BCnWzxtFJZ4HfNBeyEFljAFFItdQXKEW7sLp1PXinsGH/r4E3qLl4vfI3//BK/rp8IqS7ijtjTuDCk3Wa9bsPvwHwx8zkAFCdu9Dnd4nmlslEo1XBaBQgURgACTOGxhQsASIHPqd24XYYaK0HH120WreeLWfjvnXZtH/qiH8cFImFWPUJwdjZfzF7bFx8gB6dbhvwqpZ9mAwUURgACTEEbAmBsRypA2EL4nHrnAA7iJoYby9fjZQw5Rr0WiFUi5+Gra/vDWBGiKqRsn8JA4BiCARRpgOqPRoXD88JxfqLiFMiMAASYggsJAFLmc+plrlYrOJYtq1JZiI5hy2msDDmOQYhWnOUQfAA12bb6Ixmh4rNr+1R/PO10oSACEGDnwkJEwhc6QBnsbGMbKhX/7O7eHI5N5nEkab6YXcRZIW9ii6xjYUiWfmt1FSp8BB9AZbYZfr50sPYIQMEEIMBU7rShAEaktzHbqLEC5P48jt92PZY6RPpei6zVMOTI9UnSlsHHmdYkQG26tg/hx/4AT3uI/0bptNOFgghAgKnorw6MSQDCqyXekmEbq/M4VoeOV13xshqGNL8vMC2DkGOLRMm4iaHHee0HAqjaxwKf/JV1AWBsAhBgKnbtAWN66+hSqdV5HH+0q9ImaHPLNllxZsjBSmWI6pDd+xTbXNmFC1RtwOqP33Rtf1j7BohnaBMGBRGAAFO51nMbgISluiPx/jyOZRWHBeIRxODoLH6FBaOjlTDEjtVx3K7M97BhBuB3Q1d/qJZ+mgAECiIAAabihhYYVdi5bdc7mXpoHkf1rapSEIOmP8KmGIgsK0RUnr3eXay6Ue0BcE9szVhqS8ZLGwqAsQlAgKlYxAHGdhAXkeE1proh/9YCcD5WA5E4TH21QkQg8rzPMfS4SP0HBZjQ6Qh/tSHfTxPKQEEEIAAAkA4tFzIV2zUt54cIRB62rPQIi24XWlwBPC1WGlqMB9iCAASYRNgx2bW9gw+Myc42thF+d36Y4AgKQAohEPnD7TL0UOkB8GJDz/5YSuV6Y6rrrWdppwvlEIAAAEA6BCCFeiQQOVwJRMK/7xXw7G/jgtZlDD0sHgG8wsjVH643nqedLhRCAAJM6Uo5LwApmrBS0YJEJWIgcn+o+mEMQla/Ug9FruJst2uBB8Cgxqr+YDNvHCcogwAEAAAedjfB4rOb7YrNF7NlkPCH0IIjBmNH8ffjMP7v/R0fqRB0fF0JO77EnxeAgcX3/jE3Cx6uPTKBxFtjHy6rNoG8CUCAKV2qAAFGZCGZbV1P8DllUDZ/Eisqvjw002glHGliQNI88O+b+roSvvzx72FxyhkB2Lmxqz9KaLkIsBEBCABQqiR2tpG1r1P88GE2RGyPBE9aCUeahwISAPITw+0PTt3k3EtAIf7iRAITcqMOQMqmau/jhhsA6rWT2R9xyHoKrhI906rJoRACEAAAeNhUVRhuuAGgQqo/kuJ6DAohAAEmo6c0MDLDedmWChAAYJdOd/h3WeB/mrlsUAgBCABQKjMU2JbfIQBgJ8IMsKZpTnZ4tFPZcGFjJDAqAQgwtVT7fQJQufliNlUFSCo9uQGA3QnVH3uOdzq6tleVCwUQgAAAwONuH/0OAMAAYvXHLttfNVpubkSbMCiAAASYmnJXAFL2ZYKf7d3aIwBAyaao/khlcT/lNYGDtUeA7AhAAIBSCVgZwhQBCABQl11Xf7AZAQgUQAACTM0CJQApmyQA6dreHBAAqEDX9icTzf5QcQpUQQACAJTKzn2G4PcIABjTx5qP7nwxS3lTpA0pUAABCDCpxC92gIzNFzML1wxhqt8jg0kBoHCx+mN/qmcZh68DFE0AAgCU6NZZZSBTBSAWJACgfFNXf9hw8TQzQKAAAhAgBTfOAjAw1R8MYsJKIgsSAFCwqas/EnOV6M/l/EABBCBACr46C8DAtNdjSFNUFKkAAYCynSbw7FQ4AMUTgAApuHYWgIGpAGFIU/w+WZAAgEJ1bR+Ga79N4Nm53nhGPFdAxgQgQApUgABDE4AwpCmCei0XAKBcU8/+SI1NkcBoBCBAClzsAIOaL2ZaYDGkSYL6ru3tygSAwsSKgneJPKtUqhtS3hRpLhtkTgACpEAFCDCkVIcokq+pgnoBCACUR/VHXsxlg8wJQIAUqAABhuQ9haFNFdQLQACgIF3bHyZU/dEktLif8vW7AAQyJwABJjdfzFSAAEPS/oqhqQABAIZwmthRTGEQe6MFFjAmAQiQihtnAhiIAIRBTRjU23EIAIWIs70+OJ8AuyUAAVKhCgQYwo2qMkYyRVBvxyEAlCPJ2R8xmJlayi2wXI9B5gQgQCr07AeGoPqDsUwRrKkAAYACJF79MXkAkvgGpr21R4CsCECAVNixDQzhwlFkJFME9an05QYAtpNk9Qeb6drephTImAAESIUKEGBbd/PFTAUIY5kkqHfDDQB5i5/lKc/+SKXFU8pzQbXBgowJQIBUqAABtqX6gzFNFa654QaAvJ0m/tOnstnCmgAwCgEIkAoVIMC2BCAAACQjVn8IQPJ3VPsBgJwJQIAkJD70DEhfaH8lAGE0E7ZXc8MNAPk6zWCIdirVpjZFAqMQgAApuXU2gFcSfgAAkIxMqj9SkvKmyIO1R4BsCECAlHxxNoBXEoCwC1cTHGUVIACQp5MMqj8ai/sbcYwgYwIQICUCEOA1brW/AgAgMblUf+yvPTINLbCAUQhAgJQIQIDXOHfU2JEp5oC8W3sEAEha1/YnCQULuUi5BZbrMciYAARIiQAEeA0BCLuS8o05AJCOjzmdi67tUxmEDjA4AQiQEgEI8FKf54uZ9w52ZZLWDBYlACAfmVZ/vFl7ZPeSboHVtb05IJApAQiQEouYwEudOWLs0FQVICksSgAAm8mq+iMV88Us9UpbAQhkSgACJMMubuCFwvDzKWYyUKn5YjbVzkQVIACQga7tjzKd/XG09gj32ZACmRKAAKm5dUaADdldxxTuJvg73XADQB5cn27nJuGfzYYUyJQABEiNKhBgE3fzxczwc6YwRRWIG24ASFys/niX6XlKpb1T6m2wgAwJQIDUCECATZj9wVSmuDFXAQIA6cu5+sN8i+fZkAKZEoAAqRGAAM+5E4AwoSkqQCxKAEDCMq/+SMlU89Y2YUMKZEoAAqRGAAI852y+mCmPZypT/O7lOEwVAGpymvlzTaW6IeVrfAEIZEoAAqRGAAI8RfUHU5tkZ2LX9qpAACBB8TP6febnZm/tEe57u/YIkAUBCJAaAQjwFNUfTG2qzykBCACkKefZH6lJuQUWkCkBCJCU+WImAAEeo/qDyU34OSUAAYDExOqPDyWclzjHZGpJb3Tq2t4gdMiQAARI0a2zAjzgVPUHiZjic0oAAgDpUf1RF3NAIEMCECBFqkCA+27ni9n52qMwjSk+p9xwA0BCSqr+iFK41kh9LcCGFMiQAARIkR3ewH2na4/AdKa4OddyAQDSclLY+Zj8WiODltgCEMiQAARIkcFnwKqr+WJ24YiQEBUgAFCxru3f2KADkAcBCJAiFSDAqtJ215G/KQKQt2uPAABTCeHHXmFHP5Vq05RngqYwKB54IQEIkCIVIMDSTxmUwlOfSX4n425TAGBCBVd/pHKd4dofGJQABEiRChCgibu/PjoSJGiqG3NzQABgeiVWf7AZM0AgQwIQIDnzxUwFCBCczhczgSjJUZUEAFUrtT3ru7VHppHyddb+2iNA8gQgQKrunBmomsHnpO5mgp9P32kAmFDX9icWwUdnowkwKAEIkCpVIFCvO4PPyYDqJACoT9HtWc0be17X9jakQGYEIECqLCxBvT5qMUQGpgjq3XADDCws+HZtf9G1vTlLPKmS6o8UXgfuA4BBCUCAVKkAgTqF1ldnzj0ZENQDlCFcd7xvmuY/XdsXvbufrfn92I3UAxCD0CEzAhAgVRaWoD5aX5GTKYL6VIaTAhQhtrL5sPJcfuja/lo1CPdVNPvD4v7zHCPIjAAESJUKEKiP1lfkRFAPkL+Hqk7fqgbhAbVs0klhcT/1+wFzUiAzAhAgVRaWoC5aX5GbSYJ6u5IBhtG1/WkMOx6jGoTfxEohVZg7ksGGKO8JkBkBCJCk+WKmAgTqEVpfHTvf5GS+mE0V1Nt1CLClMPh8w3kOqkFoKpv9cbT2CEDmBCBAyu6cHajCyYSLybCNqwmOnl2HANsLVad7L/ivqAaplOqPydwm/LN5H4DMCECAlKkCgfL9NF/MLpxn2JgKEIAtPDD4fFOqQepU2/lO5Toj5TZYLwlPgQQIQICU2REOZbup8KaSslxO8GzsOgT4/+zdT3LbWJY3bHRHze1vBVYvAGH1CqxegdVDjqyMwDxVK7BzBamaMyLtEYYlr6CkFZQUXEBLK3itFeQXyLx0wiQlkRQB3D/PE+FwvZT7TfFSIoH7u+ecl3nptUdXDXIXghQy1tTtUYHVH0/NxSEIbfSARAhAgJipAIF8PWh9BXtxww2wp6Zuzw60of2mqqp/NXV7YSM0aw7qTMcgdOBgBCAAwBTO54uZkJPUTVEBcrT2CADPCkHFxYFX6ufu0JZqkPyE6o99WqUlLzz3qcUegAAJEYAAMZtiYwkY3pf5YvbZOsNe3lg2gL18Gqh3v2qQPJVc/eGwxfNUgEBCBCAAwJhu54vZmRUnB/PFbJKgPpKTmQDJaOr2OFRrDEk1SCZKrv6ISOwVIMJOSIgABIjWVBtLwGC6uR+nlhdeTAACsJtDt756jGqQPJwX/vxjqG6IPQBxLQYJEYAAAGM5nS9m+vmSm+sJno+bboAtHXDw+S5UgyQqBFelVysL757nWgwSIgABYjfFxhJweH9X1UWmvk3wtNx0A2xhoMHn21INkqbzgWbFpCSGn1eHpoCDEYAAAEPrhp5PtfkAQ7uZYIVtpAFsZ6jB57voqkHumrrVBjRyIagqvf1VFUMLrASqxseuKgNeQAACxM6JcUjbrRtJMjdFBUgMvbkBojbS4PNtdSHMP5u6vVQNEjXVHwAZEoAAAEPphp6fzBezKTaIYSwqQADiFGP16XvVIHFS/fGDWFpt3q89EpGmbrUkhUQIQIDYqQCBNAk/KMUUP+Nv1x4B4LuJBp9vSzVInE5Vf3z3Zu2RacTeBksAAokQgAAAQzibL2ZTnIyHUfk5B4jLxIPPd6EaJC6fSl8AgFwJQICozRczFSCQnp/mi9ml142CPIz9VJu6PVl7EIAqksHn21INEoFQMRRL1UMUwgydqcVeSe5aDBIhAAEADunLfDH7bEUpjCoQgAhENvh8F6pBpqX6Y10MgZzrK+AgBCBACq69SpCELvw481JRoClOKDp1CLAuhdZXj+lXg5gtMBLVH7xADFUywBYEIADAIdxWVXVuJSmUE4oAE4t88PkuumqQm6ZuXVeNwzpvFsNBi9hbYGlbB4kQgAApMAcE4taFHyfzxSz2mxQYyt0EK6sCBCBIaPD5trpqkF+bur1SDTKcME/rba7PLwOxHzARgEAiBCAAwEt0w59PhR8UbooABIC/pDT4fBfvVIMMyuyPx9ncf57wDBIhAAFSoAIE4vQQKj9s/lK6KX4H9J0GSHvw+bZUgwwgVH/k0DJtKDFcZzhgBRyEAAQA2Mcy/DD7gOJNFALmeNIZYB85tb56imqQw1L9EbkU7jNCAAtETgACpMAGK8TnTPgBP7gfezncdAOly2jw+bZUgxxA+PxU/fE01xjb0SoMEiAAAaJntgBE56f5YnbpZYEfTFEF4qYbKFaGg893oRrkZazb82KpNH1YeyQursUgAQIQIBW3XimIQhd+fPZSwBpzQADGlevg8231q0F8HmwpVM58SOKbpUqgG4TfPUiAAARIhSoQmJ7wAx6nAgRgJAUMPt9FVw3y76ZuzbTYjnXaUhgUD5A8AQiQCrMGYFrCD3jaFJ9T+r8DpSq19dVTPjZ1e6Ma5HGqP5IU+0FIIREkQAACpEIFCEznH8IPeNYUn1MCEKA4BQ4+38Vb1SBPsi67iaHS1EFI4MUEIEAqXPjANL7MFzODIuF5KkAABlb44PNdqAZZEX52VH/sxs/P81yLQQIEIEAqVIDA+Lrw48y6w/Pmi9kUn1Nv1h4ByFvpg893oRrkRw70pCn2fQDXYpAAAQiQChUgMC7hB+zuduw1C/3MAbJn8Pneiq8GCdUfApDdxXCNYR8AeDEBCJCEiU7WQqmEH7Afc0AAhqP11f5KrwY5Vzm0F9cYW2jq1iB0iJwABEjJ6CdroUDCD9jfFKcUYxhQCjAog88PpqsGuStpw1b1R/IchAReTAACpMTFDwxL+AEvM8XnlAGlQNYMPj+4bmbBv5q6vQhrm7sz1R97mzx0nC9mKbTAUikDkROAACnR/xOGI/yAl1MBAnB4Bp8Po5unclNANYjqD4YmAIHICUCAlKgAgWH8IvyAg1ABAnBABp8PLutqkNA67c3aF9hlDWP4uXhYeyQuDqNA5AQgQEpUgMDh/TRfzEodiAkHNV/MriZYUTfdQM60vhpHrtUgrnFfLoaDFrHvAziMApETgAApUQECh9WFH5+tKSTtrZcPyJHB56PLqhpE9QcASwIQICV3Xi04GOEHDOPaugK8jMHnk8qlGkT1x2HEMN8i9oOQKkAgcgIQIBnzxUwAAoch/ICMFDDAFijPucHnk0q6GiR8Lqr+OIwYApDYW2B5r4LICUCA1Nx7xWBvD8IPGNwUc0AAstHUbbfh+tErGoWuGuSuqdvTxL5v1R+MKoe2cZAzAQiQGlUgsJ8u/DgRfkCWVIAAOXGtEpfudPs/m7q9TGGTN1R/mB1zONo7bcc6QcQEIEBqBCCwu2X4EXv5OORABQjAnkKlgc3rOL1PpBpE9cdhxRB6ubYCXkQAAqRGAAK7EX5A/lSAAMkz+DwJUVeDqP4YhNZO21EBAhETgACpEYDA9m67i3HhB4xnvpg5pQiwn3ODq5MRazXI+dojvNRbK7gVQRFETAACpEYAAtu5DZUffmdgfA8j/xedOgSSZvB5kqKqBgk/Q+/XvkDyEjlccrT2CBANAQiQGpu58Lxl+PHNWsEkxq66erX2CEBaDD5PVyzVIGZ/DCSESzzNGkHEBCBAUpxmh2d9mS9mx8IPmNTov39N3aoCAZJk8HkW+tUgo28Eh//mh7UvcCg294GkCUCAFN171WCjLvw42/QFYFRTzN3RexpIjsHn2emqQW6auh17Fofqj/xdR/4MhbgQMQEIkCJVILDu78IPiMYUFVgqQIAUGXyen64a5Nembq/GqAZR/TEK1xhA0gQgQIoEIPCjn+aLmdOTEA8VIADPMPg8e+9GqgZxAGh4rjG2YFYKxEsAAqRIAAJ/eqiq6n/ni5nBoRCXKSpA3HQDqXH9kr9Bq0FCC7Wx220xjasE1t21GERKAAKkSAACf4YfJ/PF7NJaQFzmi9kUFSBuuoFkGHxenKGqQc5DyMKwTqwvkDIBCJAiAQiluw3hxxSbrMB27kdeJwEIkASDz4t10GoQ1R9ESFAEkRKAACkSgFAy4QekYezPKkOEgVQYfF62Q1WDqP4YTwyHLFJogQVESgACJGe+mAlAKNWXEH5MMV8A2M3on1WGbwKxM/icoF8Ncrznohh+Ph6B5Xb2/VkGBiYAAVL14JWjMF/mi9mZ8AOSMUVYLwABYmfwOX1dNci/m7r9tMuqNHV7ZlOeCL32okCcBCBAqrT/oSQ/deGHVxySMkUA4sYbiJbB5zzhY1O3NztUg+wUmPByL6jUOYj5YpZCCyzXYRApAQiQKqfgKcFDCD+cloT0TBGAaL0ARMngc7bwdptqENUfk7G5/7y3sX+DUCoBCJAqFSDk7iHM+xB+QJpUgAD8xeBztvVcNciTAQkArBKAAKlSAULObruT3PPFTNAHiZovZipAAAw+Zz8bq0FUf0zqJILv4Xrtkcg8EdwBExKAAKmyMUyubkPlxxSbp8Bh3Y+8nipAgBipZmVfq9UgZuIRO9diEKG/eVGARKkAIUdfDDuHrNyNfFJV72kgKgafcwDLapAvfpYmZWN/O9YJIqQCBEiS1kBk6BfhB2THZxVQLIPPObAPFnRSMbR2ulp7JD5aYEGEBCBAyh68emTip/liZqAj5Gf0asWmbmPo0Q1QGXwOAMRAAAKkzMlaUteFeP89X8z0xoY8+ZwCimTwOWRHZcN2HESBCAlAgJSZA0LKlsPObZBCvqb4nHLjDcTA4Q7Iy6sInk0KLbCACAlAgJTZOCZV18IPKILfcaA4Bp8DBTvy4kN8BCBAylSAkKIv88WsCz/8/ELmJvo9VwECTMbgc8iXOWNbMfcIIiQAAVLmZC2p+ft8MTvzqkFRbr3cQEEMPgcGMV/MtMAC9iIAAVLmBD2p6Iad/zRfzJyIhPKM/VllSCkwCYPPIXuvvcTPUykD8RGAAMkyP4FEPIR5H4aBQpnG/qyKYUgpUCbXOpA3hyyAJAlAgNQ9eAWJWNf65khYB0UbvVqxqVsbFMCoDD4HRpJCa1GD0CEyAhAgdTaWidXXUPmhVRuUbYp+1VpUAKMx+ByKEcPGfgr3VgIQiMzfvCAAcHD/mC9m55YVmMjxRMELUCaDz6EMNva34yAKREYFCJA6GzzE5ifhB7A0X8xUgADZMvgcGFkKHSC0IoXIqAABgMPo5tGcTrTZCdDnhCYwFq2voBwxzPnRXhjYmQoQIHU2m4nBbZj34ecR2OR6w2NDEoAAg2vq9qSqqvdWGuAHKkAgMgIQAHiZ6xB+GMgPxEIAAozhs1WGsjR1O3WbzRTuuV6tPQJMSgACJM2Jeyb2Zb6YdeGHUmzgKWN/VhlGDAyqqdtP3mugSFNXNyRx3xVBUAT0CEAAYD9/ny9mZ9YO2MLoN+tuvIGhhMHn5xYY4FHaYEFEBCBADsburU7ZumHn/ztfzAz9BLY1RbsGN97AUC60eIFiTd1mU9thYGcCEADY3kOY93FpzYAdTNGuQQUIcHAGn0PxJg1AEmo97CAKREQAAuTAHBDGcNtd8Bt2DuxqovcNN97AEAw+B3iegygQkb95MQDgWV+rqjoz7PxHYcZAf5P1pPe/V7+26t3aI3+6feK0/F34s3TT+7c3Xh8i9zByyxg33sBBGXwOPHN9P5bufuFt5C/G1K3CgB4BCJCDrgLko1eSgfxjvpgVN+izF270g4xlwHE84EbuUzczj4Umf2jqtgqbzMtgpP/33Xwxu1v7P4Lx3Dz3M3xgKkCAgzH4HAhiOGCRwqEnAQhERAACAI/7ab6YZd3qoanb43CBftwLPMbcpD20V73v/4ce5SEguQ1VJDe9YERbM8agQglImcHnQKXCFEiRAARI3nwxuwobm3AoXRXBafezlcuK9io6TsLfR89UW+TqbfjzPRwJ7x/XvVDkRijCAG5GHhyccpAJRMTgc6AnhvuHsatq9+E6DCIiAAGAH92H8CObDfCmbs+qqvpt7Qv0vevfqDR1+xDa63U/B1c5hWFMRgUIkCqDz4GYuKYCdvKflgvIxLUXkgPo2iMdZxZ+nAg/9vIqnHbt5gv9q6nb35u6vWzq9jy0DYNdjf6+En7/AV7yPmLwOfCDMBOIZ1gniIcKEAD405duuOd8McvmRFHYqL9c+8KfQU//ed6FP7s4XukB/LqAllrvly1Amrq9DxUil/PFbNMawypD+IGkGHwOPOJo4uuaVA6rTb1OQCAAAXKRQh9Q4vWP+WKW6w3+aRVm5ax9ZSC9eSNVLyjp/53DENXuNOyH7k+YIfI1hE2XOYVoHM58X1ApdgAAIABJREFUMbubYF7VSQjqAPZh8DkQI9fawE4EIEAuXASxr5/mi1mWva2nauUVAoDlpuvGzdfQmmcZiCz/pNxiY1kd8ltTt8IQHnOvlQyQAoPPgSccP3aNzw8cRIFICECAXGQzs4HRdEOuz7QvmkavIuWH9Q8bLstA5CTRzeJlGHLRzQ3phscaok5wN/LPtHk1wL4MPgce8/qRx8fi3h/YiQAEyIVT1uyiCz9Ochp2nosQFHwPC0I7rZPen5TmjLzqtcm6D61EPqsKKdrdyO0ap96gABJk8DkQs+5aeoK2ovtwEAUiIQABcmEjm211A8BPu378Vix+ISy4XFaKJByIdBtJv3Z/mrr9oiqkWGO/77jxBnZi8DmwhROLtBUHUSASAhAgCwmdAmFat6Hywwn8RG0IRI7CTdhpQr3Kl1Uh3c/jRa4zaNho7ADE8GJgVwafAym4TeAglAAEIiEAAXKSwkUQ0/kyX8zOrH9eQiXP52Wv8qZuT0MYcprABs7bMDS9azXySRBShNErz5q6PdbuD9iGwefAlo4iWKgUDrTZm4BICECAnDjVz2OEH4UIQ+2X1SGphCFvQhByEU7eXqhSytYUrfecPgS2JYgHtmFGEJCU//RyARlxwpVNfhJ+lKkLQ7rXfr6YdRvAP1VV9TXyhehCmo/dJnlTt/qvZ2ii2UMxnNIEImfwOZCYJO79u0rctQeB0QlAgJw4Mc2qn7QVovpz47kbOt5VgvxXVVV/r6rqPuKFeRWGpXdBiPAuP7cjPyMBCPAkg8+BXUWwsZ/Kvb9KXIiAAATIiQoQlh6qqvpv4QeruhP488WsazHVbfb8T9cebe0fxWPZGusm9GUnD2PfsAtAgOcYfA7sysb+dqwTREAAAuREBQhVCD9ODP3lOfPF7Cq0R+uqQn4JPzsx6gYo/qup28twSpe0jf3e5GcGeJTB50Cipmgrug8tsCACAhAgJza8uRV+sKtQFfKpNysk1vZY3QbVTejTTrpUgAAxUS0L7GPq6uRUAhAgAgIQIBvzxUwFSNmEH7xYmBWybI91HeGK/jEoPbTFcqIsTWO/RxlqDGxk8DnA4LSxhQgIQIDcjD1cljgsww8hGAcR2mOdRByEdG2x/t3U7UVTt3oLp2X09yk/I8Aqg8+BF5r62kIFCLA1AQiQGxvg5fkq/GAoCQQhP4e2WE6XpWOKKjXVQsAqg8+Bl5j02qJrYbv2YJy0IoUICECA3Gh/VJYv88XsVPjB0CIPQt6EIelmgyRgovcrFSDAdwafA4xGm0GIgAAEyI2N8HJ04cdZ6YvAuCIPQswGScfYPzt+JoA+g8+Bl4rh2uJ+7RGADQQgQG70Ai2D8INJ9YKQ/43s5ms5G0Rfd/pUgAB/MPgcOJAYWuglce+vVS1M729eAyAzApD8CT+Ixnwxu6yq6jIEDp8i6qf+a7jZOtMiLkpXVVW9G/EbUwHCVsL7xnn4Gb1MqMc6WzD4HAAokQoQIDdu1PMm/CBK88XsIgw5/EdE31/X3/3OqTNgG03dvg6tkbr3jl+rqvq/pm6795CLpm5PLWIWDD4HDiaCa0yD0IGtCECArDipmLVfhB/ErKu0mC9m3cna/45oPsgrA9KjdDXyNzVmtQnp2tQaqft//1xV1T+buv3W1G1X8XYWKglIiMHnQIYEIMBWtMACcnS/4QaetP00X8wM7CQJ88Xspqqqk26TMKLTth/D5teplljAqvD+8PPaF370Kmyg/7GJ3tTtbdcmK7TKuln718TGdRRwaGaMAUlQAQLkSBVIXoQfJCn83HYnvr5E8v13VQA3Td2aBzGxboj+2N+BVmg8ptf6aldvu3C1qqp/h+qQz6E6xIZYZMKcKoeDgEOb+poylft+12AwMQEIkCMBSD6+CD9IWWiL1VWC/E+oTptatwF2FapTAKpHWl/tqqsO+VBV1W9VVf2/pm6795lzgev0QiClDSKQI/f9wFYEIECOXAjlwcBzshFO/B9HMiS926j8rRtsvPYVxjT2nBinD1kTAornWl/t410YpP7vMEj9s0HqkzH4HBiK2RbbcRgAJmYGCJAjAUj6hB9kJ8ze6E5EX4V2M1NvSP0cNj/NBZmGNScGY1RZvgnVIR+auu3+31+7SrQwO8Q124BC67sP2T5BYGpTByCpfIYIoWFiKkCAHLmZTpvwg6zNF7PLcMM4dgXAJu9CSywn+MY39tBopw/5QVO3n8Icj7G9D9Uh/9fUbTeX6MKMmsGo9AOylVKIbj4WTEsAAuRIAJIu4QdFCLNBTiJpifXWcPRJjF0B4sab78Lv+8cIVuRtaMH1rzBI/dIg9cMIg8+nCLiAcrzzWm/NdTZMSAACZEc7hWTdCj8ozXwx6zao/reqqoeJn/orw9FHpwKEKY3R+mpXr0J1yHKQehfMfhLO7s7gc6Ag915s4DkCECBXLoTScmtAL6UKLbFOInjfWg5HF4KMY+wKEP2n+cOEra929TZUqfwwSF11yFYMPgdGEcF7ciqHH4X5MCEBCJArVSDp6DZ9TwxhpmTzxewm3BjdRrAMXQgS4+nwrITXfFRO0hNR66tdLQep/zNUh3QVa+fmF60z+BwYmWuL7QjvYUICECBXApA0dG1/ToUf8OdckFAJ8iWC5fggBBnF2K3P3HyTy1Dsd71B6ndhkPrp2r8qk8HnQElSue93DQYT+pvFBzIlAEnDyRSnoCFWIQTpBgBXEZzg/RC+j3Mh5WBuRh4g6rR8wcJQ7BwH1r4Jg9R/Du9ZX6uq6loLXpU2F87gc2ACU19baIEFPEsFCJArAUj8fhJ+wGbzxaybw/HLxi+O60MYju7U2jDGDpYEIIUKraJKGYq9HKT+f2GQ+kUJ7d8MPgcm4toCiJ4ABMiVACRu/5gvZtrrwBPmi1m3kfXT4/9iNG+FIIMZOwS2SVGuz4UOxX4bqkO6QerfwiD1s0zfzww+B0qUyn1/jhWYkAwBCJAr7Vri9XW+mJ2XvgiwjRAUCkHyNfZNuwCkQBm3vtrVq1DV9lsYpH4TBqknXx1i8DkwoanfQx18BJ4lAAGypLVStG67+QalLwLsQgiSNQEIgyqs9dWu3oZB6v8Og9Q/JzxI3eBzYCquC7cUPpOBCQhAgJw9eHWj0r0eZ4Ypw+6EINkaOwB5s/YIuSu19dWu3oQKin82dft7U7eXoTok+s0qg8+BwqV0bykAgYkIQICcqQKJy7nKHNifECQ/88Vs9LYNXrdydLMutL7a2/tQHfJ/oTrkIrSZiorB50AEJv2ccX8JbEMAAuRMpUE8vhh6Di8nBMnS/chPKvl5Bzwv/G5qi3QYb8Ig9X+FQeqXYZB6DCd5DT4HSEd0QTqUQgAC5MxpkDh0cz8MPYcDCSHIlwjWUwhyGGNXgXi9yqD11TBeheqQ30J1SDdI/dMUg9QNPgdiEUEgrPU18CQBCJAzFSBxMPcDDmy+mJ1FFIKo7nqZsQMQFSCZC4O835e+DiPp3gM/hkHq35aD1EcKhlX4ALGYOgBJ5eCjGSAwEQEIkDMVINP7RV9WGEYIQb5GsLzvu02/tUfZlgoQDiZsvPt9nMar5SD1qqr+X1O3V2GQ+sFDR4PPAZIkAIGJCECAnKk6mNbtfDEzmBOGdRbazE3tgxBkb2OHxCpA8qb1VTzehUHq/+4NUj996Xdn8DkQoamvLVK573cIBSYiAAGypfJgcmeFP38YXGgvdzLBIO1NPoRTyexGWM9BaH0VteUg9X82dft7GKR+vmfffIPPgdhMvbGfyn2/yj2YiAAEyJ2BaNP4hwAKxhFCkNNI3u9+bepW+Lmbsd8r3609QvK0vkrO+1AdshykfhGGmj/J4HMAgN0JQIDc2YQf34PWDDCuEDjGEjz8ts1GHn8KARa81CdVAcl6G6pD/tUbpH72yCB1g8+BGE193ZfMtdQQc6GA5wlAgNzZWBrfuQ09GN98MbusqurvkSz9pRu8nYw6x0VAlZfwev5c+jpkYjlI/bcwSL2rDvnUvZ8afA7wqJQOPW4Kt4GBCUCA3KkAGVc3+FwLDpjIfDHrTgd/iWD9X4UQxE3edoTG7EXrq+x1gcfHbpB6aJkFECPXe9uzVjABAQiQO5tK4zIAGaZ3PnZFwSO6ob9XQpCtjB3Wq87Jx6fwuwYAU5m6Oi2le37XYDABAQiQOxUg4/k6X8yuSnmyEKvIhqK/1bN+K2PfuAulMqD1FQB8n4UH8CgBCJA7FSDjeIhoADMUb76Y3YUQJAYfQu96HqcChJ1ofQVATMx+25p1ggkIQICsOQ0yGoPPITKhIuuXSL6rXw3efpIKEHal9RUAMZn62iKGyudtuAaDCQhAAHipa4PPIU7zxazbJL2O5JvrhqIfrT1KNUH7QKcPExZO2Wp9BQB/SeXgo2thmIAABChBLJt/udL6CuIWyzyQVyEEcfJteq9KX4DEOXQAQGxU+m5H9SZMQAACwEv8I8waACLVG4oeA0PRHzdqWK8aJ01N3X4Kv0cAwF+0YwYeJQABSjB2a5FSPIQe5EDkIpsH0g1FVzk2PQFIYkLrq4+lrwMAUZq6wjeZ2Z/m4sH4BCAA7Mvgc0hImAdyG8l3/FvYzOUvY4f1ApD0aH0FQKxc1wHREoAAJVABcnj3Bp9DkmKZB1KZBzI5AUhCtL4CgCeldDDPNRiMTAACwD60r4EEhZk955F852+caP+BChA20voKgARMfV2RTAss12AwPgEIkL3Q+57DubamkK5QvfU1kifw3jyQybj5TsdF6QsAQPTeeImAWAlAANiVweeQvrOIWmFdNHVb/Gb8BMGy9mMJaOq2q9h6V/o6AMAzUmqBZQg6jEwAApTi2it9EKo/IAPzxexbRK3sXnXzQNYeLdOYoZR5EpELwaBDBwAkoanbyTb254tZSi2wgJEJQADYhY0YyMR8MbuMqBXW2zDkuXSj3rwbQh+9zyEgBADycey1hHEJQIBSqFp4OdUfkJ+YWmF9nPLkYCTGbt/gBjxSWl8BkKCpD1bEck37HIcbYGQCEAC25XQ2ZCayVlidz4VXJYzdvkEFSIS0vgIgUVMfrEimDZYqXBiXAAQohcqFl1H9AZmKrBXWm8I3flWAUGl9BQDZcw0GIxKAALCNC6sEWYupFdbPBbfCMsCzcE3dnml9BUCijrxwQIwEIEARVC+8yH04IQ5kKrTCiqnyotRWWGNXgJQ+cyUq4WfegQMAUjV1AJLSPb8KEBiRAASA5+hDDgWYL2bdxut1JM+0yFZY88VMBUjZtL4CgDKYAQIjEoAAJbn1au+sa4mj+gPKEdNA9K4VVomn4+7XHhmOVkuRaOr2tKqq96WvAwBJU9WwPQEIjEgAApRk7NYiOfgcWuMABZgvZndVVf0S0TP9vPZI/u4KfM5FC62vSvxZByAvU1cxaoEFbCQAAUqitcju9CKH8lyMXIXwlLdN3ZbWCmvUAKTggfMx0foKgCwUOsMNiJwABCiJSobdXIfT4EBBQtXXeUTP+Lyp26mHao7J+25BtL4CIDMqG7ajDSmMSAAClEQFyG6044BCzRezy4gGor8qrBpt7ADERsVEtL4CgMOZL2YptcACRiQAAUqiAmR7D/PFzKYMlC2mgejvw0n5EowdgGhVMZ1PWl8BkJmSqnZfpLAKZ5iUAAQoiQqQ7V2m8o0Cw4hwIHopVSAqQAoQZq/8XPo6AJAdm/rbs1YwEgEIUIzQ157tGH4OVOG94CGSlXhTwkD0CWYvqQAZmdZXADCYWFq4AhERgAClufWKP+t+vpiplgEMRJ/O/Yj/ZRUg4+uCvDelPWkAiuC6YnsnqXyjkDoBCFAaVSDP0/4K+C7MA4olPH4VNo9zN2YViBkUI9L6CoDMqSwFoiMAAUqjsuF52nIAq2KqAvkQNpFzNupnlSGc49D6CgAGd5XQErv+gpEIQIDSqAB5mvZXwJr5YtbdTH5d+8J0cq8CGfuzyg34OLS+AiB377zCW3P9BSMRgAClsbn/NO2vgMfEVAXyrqnbs7VH8zH2Z5Ub8IE1dXus9RUA0KNdGIxEAAKURgXI07TmADaaL2bdXIovm742kZyrQFSA5MfnKwBFmLi1ZkotsN6uPQIMQgAClEYFyOMetL8CntFVgTw8/U9G86ap25iqUg5JBUhGmrr9ZJMDgIK4rgCiIgABijJfzFSAPE77K+BJ4T304ql/M7JPYbB0Vib4rLJRMZDQ+upjlk8OAHiRcJ0ADEwAApTo1qu+UUrlwsB0LiKqAnkV2WySQxrzs0oP6uFofQVAaSbb1J8vZqnd07oGgxEIQIASqQLZTAACPCtUJ8Q0f+M8xyqQkT+rtGcagNZXABTKpv72rBWMQAAClOjOq77mNgw4BnjWfDHrqkDuI1mpXKtARp0DkmmINBmtrwCALWiBBSMQgAAlstG/TvUHsCtVIMMau1rRDfhhxTQrBwDGdDLxal+vPQIUTQAClEgAsm7Uk8ZA+uaL2WdVIIMaO5hWAXIgTd12P4vvsngyAMCQHECBEQhAgBIJQNapAAH2oQokH27AD6Cp26PIfi8AYGyux7ZnrWAEAhCgRAKQHz2Y/wHsQxXIcOaLmWA6TZ/DzyIAlOrtxM87pWuoo7VHgIMTgADFsdm/xiYb8BKqQPIwdb/u5Gl9BQDs6I0Fg+EJQIBSxXJiOQbmfwB7UwUyKEM8E6H1FQD8palbrTWBaAhAgFKpAvmLAAR4KVUg6VO58DJaXwHAX6a8Fkuqw0FTt6pwYWACEKBUApC/CECAF1EFMhgtChPQ1O2ZAAkAAOIkAAFKJQAJzEQBDiSmKpCztUfS9G3M79oJxN2FaqOL1L5vABiYa4rtGYQOAxOAAKWy6f8n/eWBgwhVIA+RrOabcCo/dSr04qf1FQDEJbXrJwEIDEwAApRKAPKnUU8XA9mL6SR8DgOpx36PNrB0B03dnlZV9T6ZbxgAxjPZDJD5YuYeF/iBAAQolQDkT04XA4d0EVkVSNLtF+aL2djv0YbHbym0vvqcxDcLAONzqGJ72oXBwAQgQJHMvfjO6RjgYMKJO1UghzVmoGSzYntaXwFAvG69NsCSAAQo2b1XXwUIcHAxnYp/19Rt6n2Vx3yfVgGyBa2vAOBZU19/pXTQzwEUGJgABCiZKhCAAwsVdl8iWtfUq0DGvIF3A/4Mra8AYCtvLNPWVJTCwAQgQMmKD0Dmi9nV2oMALxdT6HAaNq1TNWYFiBvw532yTgAQvaQ6HSR+rQrRE4AAJSs+AAEYQqgCuY5kcbvN6rO1R9MxaguHDFqGDSYM1f8506cHAAcVPjenktqsS1W4MCABCFAyA8ABhhNTFcj52iPpGPsEowBkA62vAAAgTQIQoGSlDwC/XXsE4EBCi737SNbzzcSnEF9i7GpFAchmn/QzB4CdTNnWKbV7fRUgMCABCFCy0itASn/+wPBUgbxQaCc2JgHICq2vAGAvU27qp3avawYIDEgAAhRrvpiVXgECMLTLqqoeIlnl9wnPtxizkkYA0qP1FQBspbtW+VpV1S9VVf1PVVX/NV/MYjoIEzsBCAzobxYXKNxDGJALwIHNF7NvTd1+juj0/GlVVRdrj8bvbsT2SwKQH2l9BQA/ug4tprrrk5vQ9jQ2WmAB3wlAgNJ1F0bvSl8EgAFdRBSAnCccgIz1WeUEYtDU7bHWVwAU7D5cg1yF++abCVpz7iUcwvGzC/xBAAKUzhwMgAF1N8pN3V5HEjb/MQw90pOKTxlzs+Ht2iPl0voKgFJcLys6emGHe+XxOJQJAxKAAKXrLu7el74IAAO7iOjG7iycZEzJqKctu7kXpW96NHX7SRgEQIYewj3wVa+FVa6zMW99lgOVAARABQjA0OaL2WVTt/eRzFI4TXCDf+x2E8cJhkQHE1pffczk6QBQrtverI6rAqs6knquTd0epdJiDFIjAAFKl+tpF4DYfI5kU/lVGIaeUnsjN8Pj0voKgJQ89FtXddcNCbb7pKqOXPPBMAQgQOlKrgA5XnsEYDixBCBVaIOVzCZ3mKOy9viATkqtANH6CoDI3feCjqsQdtg03+zGbA2gEoAApev6nY68qRSTV6W//sB4wib+10jmLr1LsM2APtYD0/oKgMhc91pY3ajq2Flqhx2LPYACQxOAAPxZMiwMABje50gCkCq0wbpYezReY97En6w9UoaUfh4AyMd9f05HCDtUdQAciAAEoODSWIPWgDGFYeixhM5niW14a+MwoKZuz60vACO4XlZ09MKOktsyDym1eZ9Ha48AByEAASh7DohBa8DYuiqQnyNY9bddy6OuFeLaV+I05mdVUUFAdxigqqpPa18AgP099Od0hKAjtQ351KV2ny8AgYEIQAD+vDCNpSXL2F6X9XSBCMQSgFShCuR87dE42TQZzmetMAF4gdverI4rVR3syb05DEQAAlC2buDrZemLAIynO/3Y1G0sA71PEwpARt1ISaw6Zm9aXwGwg4d+66ou8DCYPGqpXcfEcG0MWRKAAPx5SudjoetwvPYIwPC6E/e/RrDObxLa6B/7e8z+FKLWVwA84b4XdFyFsEPr4IR0VThN3Za+DFC8SgACUDx9RoEpxBKAVKm0wZrgJv44bPjkTOsrAKowmPymN6tDVQeTKKUCF8YmAAGK113gFnwyRJktMLqwmf81kvlLKbXBuh6xXVPWFSBN3Z5pfQVQnPv+nI4QdqjqyFssbVe3ZQ4IDEAAAlA4p0yAiVxGEoCk1AZrTNm2SGzqtttcuFj7AgA5uV5WdPTCDoPJy5Paay4AgQEIQAD+NOap2ticJDggDkhfF4D8FsmzSOV98EoFyEFofQWQj4f+nI4QdLi3IVXH4RoZOCABCAAGoQOji6wN1pmKgDVZzohq6vY0kp85AHZ325vVcaWqgy3caXkJCEAA/jTmqdrYnPgZACYSSxust03dHsXUBzy0aToOQcRR73+P5c20K3B4YU0/5/a8ADL00G9d1W1iG0zOnlKb8eJwIgxAAALAm9g2/oBixNQG63SKKpBe0HHcCzqOY2jRlOFng9ZXAPG57wUdVyHscF9CqcwAgQEIQAD+1F1sfyx4LSbZ+APKFlkbrJOh3webuj2JMeh4wlGCJyc30voKIArXvRZWN6o6GEFq1zECEBiAAASAaoyNP4BHxNIG631XjXGIXuJd5UQv4Fj+SbGlVBZzQLS+AhjdfX9OR6jqMJicKaQWgLxdewR4MQEIwJ+nkK+aui15KQ628Qewo5jaYJ2E72crj7SvymmeVC6D0D9pfQUwmNuVeR0GkwMQFQEIAEunTsgCYwttsK4jCQ5ONwUgoaLjKAQkrxNpX3UIybdhCG3Hfl77AgC7eujP6QhBh6oOYpdcK8/u2kV7ODgsAQjAX2LZgJuKAASYymUk778nTd2eh43/ZdhRciuC47VHEqL1FcDebpchx7KNlaoOUtQN1C+80wMUrxKAANDTtcE66i4SLQowsi4A+TWCRX8TyfcRi9QrQD4lOnsFYCwPK+2r7pw8h8nl0oIUoiEAAfjLVeEVIJ2zsGEEMJpwOu/eZnV0kq1+0foKYM39hlkdDj6RpZX2pakRgMCBCUAA6BOAAFO5tGEdn66NVGptT7S+Avijte9Nb1aHqg6yFQ49HPVmtJUwpw3YgQAE4C/djcHHwtfjTVO3Z/PFzMYRMDYBSJyOw+djSrS+AkpxH0KOq14LK4PJydJKVcdx+N85zmpLsWoFoiYAAWDVuZOzwNi606lN3T44scdLNHV7LEgDMnW7oYWVweRkKVR1HK9UdrhGBPYiAAH4i9NSf3rbXXAqlQcm0L3vvLfwUTlJrAJEgA+kbjmY/KrXwsp9ClkKVR3HK39Kr+I0AwQOTAACEHQnqJq6tRx/+qT0FpjApQCEfTV1+ynTVhhAvm6XIceyjZWqDnK1oarjnRd7o9IDIDg4AQjAj25tnvzhXVO3p/PF7HLtKwDDUXkWnyTC8ND6qvQ5XkC8HlbaV92ptiZX4TN5GXIsB5Tb1N9BU7evhaFwOAIQgB+5yPjLRTiNDTCK+WJ219StIJp9aH0FxOJ+w6yOO68Ouek26VdaVx2p6jiYYweD4HAEIAA/unHR9t2brp3IfDH7tPYVgOFcCUCiEv1notZXwISulxUdIeiwYUmWQlXHMuRQ1QEkRQAC8CMVID86b+r2s1NrwIi6yrOfLTjb0PoKGMl9CDmuei2sDCYnO72qjpNeGyuHDManAgQOSAAC8CM3Mj96FVphna59BWAA3enZpm4tbUS6kCHijb6LtUcAXuZ2Qwsrh6TIzoaqjuNw/8f0XnsN4HAEIAA/cnOz7r2B6MDIvnbvPRY9GlHehDd1e65tJfACy8HkV70WVg5DkZ2mbo9WQo4jVR3RE4DAAQlAAH7kpmezz+EEsFZYwBiuBCBRia4NQ9jMMaMK2NbtMuRYtrFS1UGOmrrtt646VtWRrOPSFwAOSQAC0NPdCGm9slF30fw5nBoCGJqex3GJ8RTiZxs6wAYPK+2r7gwmJ0eqOgC2JwABWHfr4nGjd03dXswXs/NNXwQ4lK4FSVO3Dza4oxHVKUStr4DgfsOsDtXKZCdUdRz3Kjt8BuZPBQgckAAEYJ1y+Mf93NRtd3P5+dF/AXAY2mDFI5oKEK2voFjXy4qOEHSo6iA74TPueOXPG690kRwCggMSgACsu3Gq5kkXIQQxLwUYkgAkHkcRfS9aX0He7kPIcdVrYeWak6w0dft6JeQ4cv/Jqi4QU9UGhyEAAVinAuRp3cbTVbggs1bAUJzujUcUp0+buj2zQQRZud3Qwsq1JVlp6rbfumo5oFxVB9s4CoEw8EL/8fvvv1tDgJ6mbk+rqvqnNXlWd9N64kYVGEpTt9+c9o/Gf015CjGclr3z8wBJWg4mv+q1sFLVQVZUdTCA/9HuDw5DBQjAOhv623kbKkGEIMBQtMGKx6SnELvPmaZuhR8Qv9tlyLEMPLRwITehqmMZciwHlPuM4tCaNiLJAAAgAElEQVROVETDYQhAANY5kbY9IQgwJAFIPGKaAwLE4brXvurOSWVy06vqOOm1sXrrhQZIiwAEYEU4Zbr2OI8SggBDsZkWjxgCkFsbTzCJ+w2zOlR1kJXuXiZ81qnqIBYOn8CBCEAANrs3nG4nQhDg4Loe8QLpaLyO4Bvx+QLDu+61sLpR1UFumrpdDTmOhOtESgACByIAAdjsTgCys+7GodusPDXYEjiga0NEo3AcwTchAIHDuQ/Xu1e9Flau38hKr6qjP5xcVQdAYQQgAJvd2XDby5tQCXLqxCBwIFfej6MQQwXIjZkwsJfbZcixDDxU7JKTUNVxvPLHYTZS5/oXDkQAArCZvsb7605V/aup25/mi9nnVJ8EEI1us+6jl2Ny2oNA/B5C0HG1bGOlqoPchKqO415lh01iAJ4kAAHYTADycr+FmSBnqT8RYFI27yLR1O3riU+NC8PgL7e9WR1XoYWV61ey0dTt8Yb2Vao6KEr3eyDIhpcTgABs5gbyMD6EkvRTrRaAfXTvHU3d3tv0iMJx2GgFxnW9HEoegg6/h2SjC9dXQo4jVR3wXQwtSCF5AhCAzQQgh/OuNxfEugL7uBGA4LOZAtz3go6b0MLKzz3ZWKnqWA4o9/kOjxOAwAEIQAA26G42m7pd/wL76nrH34SWWEp4gV0Zfh2HkykrQHw2k5nrXgurG1Ud5KRX1bEMOVR1wH6636NLawcvIwABeJyWK4f1KlSCnBuODuzI7AeWHsLnCaTiPgQdV70WVg6DkI1Q1bGs7FgOKPc+DUA0BCAAj7sTgBzcqzAcvRuke5HZcwOGY7MwDicRfBc3ThETsdtlyLEMPMxAIxdhrt9Rr6rjOFR5A8M5trbwcgIQgMfd2WQZzK/dabH5YnaW6fMDDsggdCAyDyHouFq2sVLVQU66trW9kONYVQdMxgwQOAABCMDjDJ0c1ofQH/jM6UhgC6ryphfDoYArhxMY2W1vVsdVaGHlGpEsrFR1LNtYqeqAeAhA4AAEIACPc3M7vPdhLsiJEAR4Rskb3w+9tjrLjdhuk+rXtX8JvMT1cih5CDoMJicboarjeKWyQ1UHxE0gCQcgAAF4nABkHG9DCHKmfQTwhBLek7vN12/9sOOxDdhQQTd6ABLaF075Xu2zmUO47wUdN6GFlZ8tshCqOo5X/qigBKBYAhCAx7kRHs/bXiWIEATYJJf35LWQY59ByWEuytrjI5i6FYPPZnZ13aucunksVITUhCD8eKWqQ4tAyEy4R/bZBS8gAAF4RHcScKLNpVK9EoIAj+lu/BJ6T+7PDNg75NjC9QSbXcehHdlUtEvkMffhd+2q18LK9QRZ6KrveiHHckC5qg4A2IIABOBpD3rjjqpb6383dfvTfDH7XNDzBrZzH9GGz23YjL/qV3SM3EZnijBg0gqQbkPb4QTC799NP/AwS4wcrFR1LEMPVR1QtqPSFwBeSgAC8LQbNx2T+K3b4BKCACvuJgpAvqwMRo6lDVP3/bxfe3RYbsIZ00P4Ob/qVVKp6iALoapjGXKo6gAe49oLXkgAAvA0pwmn04Ugr+eL2UWpCwCsmSqU/hxp7+UpgpgYbsKnaP3F8Pqt464iCxthb72qjpNeG6u3VhQAxiEAAXjaFKdr+cuv3em4+WJ2Zk2ACUPpWE/elRqAkL7rlaoqw13JwoaqjmPtdIEXOrGA8DICEICnqQCZ3ofQDksIAnSbpB8nWIVYN/2naAUUQ3uWOxUgybjvBR03oYWVqg6S19Tt0UrIcaSqAwDiJAABeJo+03EQggCs6IY+TzEQvNv4m3gT2wZ6nK57LaxuDCYnF03d9ltXHavqAEam+hZeSAAC8DQ37vEQgkDhujY5U2z4R26KeRhHE4cQPpun1R9Mvmxh5cAIyQtVHf2QQ1UHEIMYqm8haQIQgCd0N/Q226LyIQySPHOqFOAPU7wXvl57ZFw228dzuww5loGHz19yEKo6jnuVHdrqAdHq7oF9/sL+BCAAz3tQ5h6Vbih9dwr8xEUgFOnWidwf3IT3xTF1m4WXcTx9DuRhw6wOQRPJ21DVcew0NZCg43AQAdiDAATgeTdOhUXnrRAEijXF7/zx2iPxmKIVlQqQtN32ZnVchRZW5qqQtFAhvNq+yvU7ACAAAdiCDfY4CUGgTCW2fHrKFBvXkwZCUw1/T9R1r4VVV9Xh9CjJa+q237pqOaBcVQeQMxUg8AICEIDnTdFehO0IQaA83pN/VGIFSOfehucP7je0sFLVQdJUdQB8F/NhHIieAATgeTbW4yYEAYrVbXJPUA0RwwyWu4IDkOteC6sbg8nJQajqWIYcywHlZvAB/EkAAi8gAAF4nl7j8ROCQDn8jq8rcTB8CT8HD705HTdhVodrEpLWq+o46bWxKu39C2BXMc+jg+gJQACeZ7MtDd3N8+eqqk5LXwjInA3gdaN/ToXAecpe1Lm1Qrvtzeq4UtVBDrr3iV7IcayqAwCYggAE4BndaUvDVpPxvqnbz/PF7Kz0hQCKcqUvfjIeNszqEOqRtKZuj1ZaVx2p6gA4KBUg8AICEIDtPDixlowPXWAlBAEKMkWlwEkIXqaSQmhw25vVcRVaWBlMTtJUdQBMwvssvIAABGA7N07XJkUIAvnSFmhdiRUEsf0cXPdaWN1M3B4MXixUdRyv/HljZQEmcW/ZYX8CEABy1YUg3+aL2blXGPKhLeFGU1QVnKw9Mq6pKinuN7SwUtVB0kJVx3GvssOhH4Bx3YbDHTfh77vlH9cZ8HICEIDt6K+epp+buu02pz6XvhBAvrob49JCoZGe83WvhdWNweSkrqnb4w3tq1R1AAzvOvwXrlb+dm0BIxCAAJC730I7LCEIkLPbkYcOxzCM81DzuR56czpuwmlLg8lJVlO3r1dCjiMHeQAG89Cr3Pjhb9cTEAcBCMB2uk2Rj9YqWV0IcqcnO5CxsU8PxjCMc5/5XLe9WR1XTl6SupWqjuWAclUdAIdzu9qWSnsqSIsABIBSXHY9rp3CATI1eqvGbuM14vfUhw2zOrz/k6xeVcdJL/AYs+oLIFer7am+V3E4JAF5EIAAbKGrHDB0N3ndaeXudTxyIQtkaIr3tddrj4xrWQFy25vVceVEJqkLVR3Lyo7lgPIYqq4AUrPanqpaBh26A0A5BCAAlGQZgpwIQYDMTFHdcNw7LTmFi/lidu4HmVR1hzJ6IYeqDoDd3W9qTWX+BtAnAAHY3rUBklnoNhYuw2YDQC6mqHiYtAJElQcp6Q5f9EKOY1UdAFtZtqdaGzLuQBuwLQEIACV619Tt5/lidubVB3LQhQETtGo8WnsECrdS1bFsY6WqA2Ddw2pbKu2pgCEIQAC2N/qAWQb1oanbq/li9tkyA89I5YRh1wbizdqjwxGAULRQ1XG8UtmhqgPgT6vtqb5XcGhPBYxJAAJAyX5r6vbOCSPgGancpN8JQODwQlXH8cqfMX/XAGJ0u9qWKvx9p00lEBMBCMD2uk3yj9YrO5dN3R67SAcycDNypaINYLLS1O3rXsixDD1U/wKlWs7fuFr52/wNICkCEABK9yqEICcu5CF+4SQ2m43+Hta9HgJkUtQdfuiFHMsB5UI9oBT3q22ptKcCciUAAdhS1yZpggGzjKMbTnpRVZWh6BA/AcjjpqhUPAobKBCllaqOZeihqgPI3Wp7qu+zOBxcAEojAAGAP3VD0bty7gvrASRqiiq212uPwERCVccy5FDVAeRstT3V9yoOVe0APxKAAOzm2qnBrP3a1O2Vsm9gRRLvCd171wSVit1m8+XaozCgXlXHSa+N1VtrDmTiYcNg8T+uRbquBF5kgN0IQADgR8uh6E5OQZymaIGV0vvB/cgn3lWAMKhuRlf4vV9WdRyH+V0Aqbrvt6TSngpgWAIQgN1cqQDJXrdx+LmqqtPSFwIiZQbI0+5GDkCO1x6BPXQD9VdCjiNVHUCilu2p1qo4HLICGJ8ABADWvW/q9tw8ECBBNyMH9SpA2FmvqqM/nFxVB5CC1fZU1XIOh/ZUAHESgADsxmyIcpgHAnGaouIgpfeBsU+WOqHPo0JVRz/kUNUBxO6x9lTf3BcApEkAArAbJctl+ay9C0Rn9IqDxNpVdKdPP649CgMLVR3HvcoOLUOBGN1uGC7+zfwNgHwJQAB249RPvpY3Q1e9k15eb4iPGSBPGz2s6Ta+tf0ox4aqjuOR584APOZhtS2V9lQACEAAdtCdAm7q1pKlqx9yLE98Oe0FaRl7o/V+7ZGIde05fE5xCE3dvt7QvkpVBzClZXuqtQoO7akAeIwABGB3t/pXR215YyTkgMyEk+djS/G942HkgdInvZO2JKip237rquWAclUdwNhW21N9n8HhWh6AfQlAAHZnDsj07nstqr5XdDj5BdnT/mo7N07qs0mvqmMZcqjqAMZ0Hf5bVyt/3yQ2bwuAhAhAAHZnY2kcQg5g1fHaI8NL8cTp3cifUydrjzC5UNWxrOxYDigfszIIKMvDhsHi2lMBMDkBCMDunE46nOWNUn/o+DdDCoFHaIG1HW1CCrKhquNYq05gALerbam0pwIgBQIQgN05wbQbIQdwKFNUgKRo7M8pr8tImrrthxzHqjqAA1ptT/W9ikN7KgBSJgAB2J0bgM2u+0PHw2kwIQdwSFNstKf4Pjb255QN+AMLA//7rauOVHUAL7Danqpafr65XgcgdwIQgN2VXAGyFnI4FQaMIWwI22jfQreZ1dTtqP/Nbt6EHu/7UdUBHMD9ptZU5m8AgAAEYGfdZv/YG0sju+0NHRdyALGYqs1SqhtHDyNvor9ee4QfhBDveOXPG6sEbGHZnmptyLhrdAB4mgAEYD+3ibei6Icc3ys6DDAEIjZJAJLwxlL3vv5u7dHhHCfaLmwQoarjuFfZMeZrAaTlYbUtlfZUAHA4AhCA/aSwIbYshRdyADk4meA53K49ko67kTfdi6wA6Vp/9UKOZSsrVR1A32p7qu8VHNpTAcDwBCAA+xn7ZO1jljdUN/2KDjdTQIamqABJua3I2GH30dojGWnq9vVK66ojVR1AcLvalir87eARAERAAAKwnzE3xYQcQNHCKfsphkKn/D479veeTQCiqgNYsZy/cbXyt/kbAJAAAQjAfg69sbTs/XvXDzv0/QX4wxTtr6rEK0DG/t6TC0B6VR0nvcAj5flewO7uV9tSaU8FAHkRgADsZ5+NJSEHwH6mCkCS3fzqPluaul17fEBRV0iEqo5lZcdyQPkUVUXAuFbbU32fxaE9FQCUQQACsJ+nbpiu+0PHww2WkANgfypA9vMw5iZ/U7dHU28odt9DL+RQ1QH5W21P9b2KQ3sqAKASgADsp9vgaer262pFhxstgMOacP5HlUF4fTPyoO6jZw4IHFRTt/2Q41hVB2TnYcNg8T8q8xwuAgC2JQAB2NN8MTu1dgCDm6r6437tkfSMHcq/XnvkAFaqOpZtrFR1QPru+y2ptKcCAIYgAAEAIGZThc05bL51J6Xfrz06nC6cuHzJ/++hquO4V9kxZgULcFjL9lRrVRyqpgGAsQhAAACIUlO3ryfcAE92AHrP2CHO1hUgoarjeOVP1IPUgR+stqeqlnM4tKcCAGIiAAEAIFZTthrMoQJk7OdwvPpACLGOVXVAch5rT/VtvpjlEBADAIUQgAAAEKup5n9UmVSAjP0cXjd1expCjuWAclUdEKfbDcPFv5m/AQDkRgACAECspqwAST4A6XrsN3W79viAusHk/xz7eQJrHlbbUmlPBQCUSgACAEB0QiXBq4m+r/uMBvReazkF2Vm2p1qr4NCeCgDgRwIQAABiZP7HYeQS5EBJVttTfZ/BoT0VAMBuBCAAAEQlDM7+MOH3lFOLmG4D9f3ao8CUrsN/+2rl75uMqs8AAKIgAAEAIDZTVn9UmQxAX3JaHMb1sGGwuPZUAAATEYAAABCbs4m/HwEI8Jjb1bZU2lMBAMRLAAIAQDSauj2aeGj3Q2abmE6cw25W21N9r+LQngoAID0CEAAAYnI+8feSVWDQbdg2dbv2OBRqtT1VtQw65otZTrN/AAAIBCAAAMRk6vZXOW6CXk9cVQNjud/Umsr8DQCAcglAAACIQlO3XfjxauLvJccARNsecrFsT7U2ZFx7KgAANhGAAAAQi6mrP6pMZ2Z0z+n92qMQl4fVtlTaUwEA8FICEAAAJtfU7XEEbZpuMz1F7mQ8MVhtT/W9gkN7KgAAhiIAAQAgBlMPP68yrf6oMn5exOV2tS1V+Ptuvpjdea0AAJiCAAQAgEk1dXtUVdWHCF6FXNvs2HzmEJbzN65W/jZ/AwCAaAlAAACYWgzVH1WuAUh3+r6p27XHoed+tS2V9lQAAORAAAIAwGSaun0dyfDz+8zb9HTtid6uPUopVttTfZ/FoT0VAAA5E4AAADClrvrjVQSvQK7tr5a0KMrbanuq71Uc2lMBAFAyAQgAAJMI1R/aX42je37vMn+OuXrYMFj8j7ZU88Us959bAAB4EQEIAABTiaX6o3O59kheVAHE677fkkp7KgAAOBwBCAAAo4us+uO2gDZBBllPZ9meaq2KQ3sqAAAYlgAEAIApXERU/VFCGyGVBMNYbU9VLX+etKcCAIDp/cfvv//uZQAAYDRN3R5VVfV/Ea34/5SwWd3UrQv/3T3WnurbfDFTVQMAAJFTAQIAwNguIlrxh4JO6t9WVfV27dGy3W4YLv7N/A0AAMiDAAQAgNE0dXtSVdX7iFY89+HnfaXNm3hYbUulPRUAAJRFAAIAwJhiqv6oCpn/sdQ913drj6Zr2Z5qrYJDeyoAAKASgAAAMJambs8ibMFUUgVIalbbU32fwaE9FQAAsA0BCAAAg2vq9nWE1R9f54tZSW2hugqQj2uPTue69331/74p7HUBAAAGIgABAGAMn6qqehXZSpdW/TFmqPCwYbC49lQAAMCo/uP333+34gAADCYMPv9XhCv8/5VWadDU7aEu/m9X21JpTwUAAMRGBQgAAEOLrfVVVWD7q6VucPibtUfXrban+l7FoT0VAACQCgEIAACDaer2U4SDz6uCh5931RmvV9pSVcugY76YXa39XwAAACRKCywAAAbR1O1xVVX/jnR1i2t/BQAAUJr/9IoDADCQz5Eu7BfhBwAAQP4EIAAAHFzEra+qgttfAQAAFEULLAAADiry1lcP88Xs9dqjAAAAZEcFCAAAhxZr66sq8u8NAACAAxKAAABwME3dXkTc+qpzsfYIAAAAWRKAAABwEE3dnlZV9XPEq3k9X8zu1h4FAAAgSwIQAABerKnbowTaS2l/BQAAUBBD0AEAeJGmbruh4leRt766ny9mR2uPAgAAkC0VIAAAvFTscz8q1R8AAADlEYAAALC3MPT8QwIraPg5AABAYQQgAADspanbs8iHni99mS9m39YeBQAAIGsCEAAAdhbCj98SWblPa48AAACQPQEIAAA7SSz86Ko/7tYeBQAAIHsCEAAAtpZY+FEZfg4AAFAuAQgAAFtJMPy4ni9mV2uPAgAAUAQBCAAAz2rq9iKx8KMy+wMAAKBsfyt9AQAAeFpTt10bqQ9P/qP4qP4AAAAonAAEADLV1O1xVVVH88Xs0mvMPpq6fV1VVRcivE1wAc/WHgEAAKAo//H77797xQEgU03ddpvX37rN4Pli9s3rzLZCgNb9/LxKcNG+zBczAQgAAEDhzAABgLx1m8AnVVXdNXV76rVmG03dnldV9e9Ew48Hsz8AAACoVIAAQP7CZvav4Yl+VQ3CY0LLq27ex/tH/kkKfpkvZgIQAAAAVIAAQO7mi9lFNxA6PM33oRrk3AtPX1O3XaXQTeLhx31VVRdrjwIAAFAkFSAAUIBH5jl0ocj5fDG78TNQrlD10VVM/JzBIvyvof8AAAAsCUAAoBArrbD6/tFtgGuLVZ5Q9dG1vHqTwZO/ni9mJ2uPAgAAUCwBCAAUpKnbrgrk3YZn/BBCEO2DChCqPrrX+kMmz7b7+T2eL2Z3a18BAACgWGaAAEBZzsJm8aquNdavTd1280HO1r5KNkIl0F1G4UfnQvgBAADAKhUgAFCYEHD89syzvg3zQa7WvkKSMmt31Xc7X8yO1x4FAACgeAIQAChQU7eft6wAuA6tsQQhiQrBx6dHWp+lrqtmOjHIHwAAgE0EIABQoDAD4maHaoDr0Gbocu0rRCnz4GPp7+bWAAAA8BgBCAAUqqnbrm3Qv3d89vehIuTz2leIQiHBR+frfDE7XXsUAAAAAgEIABQsDMT+dY8V6FoPdSfvPxs+HYcw2+WsgOCjCkHc8Xwx+7b2FQAAAAgEIABQuB3mgTzmSwhCzAkZWWhl1oUe5xkON3/Kf5v7AQAAwHMEIABQuLCJ3oUXb1+4EvehKuRSVciwQpursxcGV6n6SQs2AAAAtiEAAQC6DfWjMBT91YFW42sXhIQwRJuiAwiv0WmB1R59/5gvZudrjwIAAMAGAhAA4A+hquBfA6yGMGRPvdDj7AAVOqkz9BwAAICdCEAAgO/CIO3fBlyRZRhypU3WZk3dHldVdSL0+MFttyYCNAAAAHYhAAEAfnCAoejbug2zRy5LHqAeZrCchD+nBbe3eozwAwAAgL0IQACANU3ddlUa79e+MKzrEIh0f25y3fBeCTxOVHk8SfgBAADA3gQgAMCasEl/NfHm/G0YzP79T2ob4WEdly2tjsMfFR7bEX4AAADwIgIQAGCjSEKQVfdVVd2F7+tbCEbupp4nEoaVH4WA46gXdrxa+8dsQ/gBAADAiwlAAIBHhY39m0Q28pfhSBUCkmrD/662CUzCIPLXKw+fbPjfRyo6Dk74AQAAwEEIQACAJ4Uw4Eo1AyMQfgAAAHAwAhAA4FlCEEbwZb6YnVloAAAADuU/rSQA8Jz5YnYT2j49PPNPYR//EH4AAABwaCpAAICtqQRhAD/NF7PPFhYAAIBDE4AAADsRgnAgD2Hex40FBQAAYAhaYAEAO+m1w7q1cuzpuqqqI+EHAAAAQ1IBAgDspanb16ES5K0VZAe/zBezTxYMAACAoQlAAIC9hRCkm9/w3iryjK7l1el8Mbt6+p8BAADAYQhAAIAXa+q2C0E+WEke8bWqqrP5YvZt85cBAADg8AQgAMBBNHV7VlXVb1aTnocQfFxaFAAAAMYmAAEADqap2+MwF+SVVS2eqg8AAAAmJQABAA4qzAXpTvy/s7JFuq+q6lzVBwAAAFMTgAAAg2jq9lNVVR+tblF+qarqQtUHAAAAMRCAAACDaer2pKqqbkD6G6ucta+h6uOu9IUAAAAgHgIQAGBQoSVWVw3ys5XOznX32s4Xs6vSFwIAAID4CEAAgFGoBsmK4AMAAIDoCUAAgNGEapBzs0GSJfgAAAAgGQIQAGB0Td0edcOyq6p6b/WTIPgAAAAgOQIQAGAyoS1WNx/knVchOg9VVV2G4MNwcwAAAJIjAAEAJtfU7WmoCDEfZHq34bW4nC9m30pfDAAAANIlAAH+//buJretI10YMO9Fz5VvBVIvgLB7BXJWYPVQIykA53GvIM4K4swFxBpx2PIKYq2gLWgBba3gRivIh+O8TI5FSuLfIeuteh7A6Fwpt1smqTpV718BFENHyN7Muj3eXdyefmr0NQAAAKAyEiAAQHEiEXI+Go3OvDuDmSU9uk6Pq0r/jgAAADRMAgQAKNZkPP0mEiFvjMfaCkkPAAAAmiEBAgCkMBlPX0Yy5EQyZCU3vaSH8VYAAAA0QwIEAEgnkiFdIuSV+0LmXI9Goy7R8bH74yJzAAAAWiUBAgCkFmOyukTIy95/HjTyrt71kh2fLm5PP879GwAAANAoCRAAoDqT8fRoNBodRULkqPcn6+isLtHxORIdv0l2AAAAwPMkQACApvSSI99Et8go/vOb3j/vsoPkPro4RpHk+DxLcnT/6d4OAAAAWI8ECADAI2K81ssF3+0nTJ7zKRIafZ8vbk8/P/P/BwAAAGxAAgQAAAAAAKjO/3pLAQAAAACA2kiAAAAAAAAA1ZEAAQAAAAAAqiMBAgAAAAAAVEcCBAAAAAAAqI4ECAAAAAAAUB0JEAAAAAAAoDoSIAAAAAAAQHUkQAAAAAAAgOpIgAAAAAAAANWRAAEAAAAAAKojAQIAAAAAAFRHAgQAAAAAAKiOBAgAAAAAAFAdCRAAAAAAAKA6EiAAAAAAAEB1JEAAAAAAAIDqSIAAAAAAAADVkQABAAAAAACqIwECAAAAAABURwIEAAAAAACojgQIAAAAAABQHQkQAAAAAACgOhIgAAAAAABAdSRAAAAAAACA6kiAAAAAAAAA1ZEAAQAAAAAAqiMBAgAAAAAAVEcCBAAAAAAAqI4ECAAAAAAAUB0JEAAAAAAAoDoSIAAAAAAAQHUkQAAAAAAAgOpIgAAAAAAAANWRAAEAAAAAAKojAQIAAAAAAFRHAgQAAAAAAKiOBAgAAAAAAFAdCRAAAAAAAKA6EiAAAAAAAEB1JEAAAAAAAIDqSIAAAAAAAADVkQABAAAAAACqIwECAAAAAABURwIEAAAAAACojgQIAAAAAABQHQkQAAAAAACgOhIgAAAAAABAdSRAAAAAAACA6kiAAAAAAAAA1ZEAAQAAAAAAqiMBAgAAAAAAVEcCBAAAAAAAqI4ECAAAAAAAUB0JEAAAAAAAoDoSIAAAAAAAQHUkQAAAAAAAgOpIgAAAAAAAANWRAAEAAAAAAKojAQIAAAAAAFRHAgQAAAAAAKiOBAgAAAAAAFAdCRAAAAAAAKA6EiAAAAAAAEB1JEAAAAAAAIDqSIAAAAAAAADVkQABAAAAAACqIwECAAAAAABURwIEAAAAAACojgQIAAAAAABQHQkQAAAAAACgOhIgAAAAAABAdSRAAAAAAACA6kiAAAAAAAAA1ZEAAQAAAAAAqiMBAgAAAAAAVEcCBAAAAAAAqI4ECAAAAAAAUB0JEAAAAAAAoDoSIAAAAAAAQHUkQFahttYAACAASURBVAAAAAAAgOpIgAAAAAAAANWRAAEAAAAAAKojAQIAAAAAAFRHAgQAAAAAAKiOBAgAAAAAAFAdCRAAAAAAAKA6f/OWAgAAAMBik/H05Wg0+ia++ar3L/W/Pop/frHwv2Q9d6PR6POD/8+PvX/+NBqNfuv+4eL29OOG/1vAwCbj6dFoNDqK/5X+P48erC0zx3Nf2dzNbN3o+dT72m/xf3/554vb00/b/xF2639+//337sVf9AKTjIcdLGcynn4TG9WsqngA7cODgwvUwHqwpgrWg08Xt6cPDy40zJmuDs50sB+xhn7TS2i8HCCZsSuz4Obn+PMp9ozWFxhQL7nx8E/WteSh2dryWy9h8inDmXSWAPl97jvU4Lr3d/j04ENqc02zJuPp29Fo9EPyv//fL25PH1YC8YzJePpxoAoK2Jfri9tTQc8VxeHkv6l+6Hk/Xtyevp37Ks1ypqtWv0rTmQ42FImOo0hwvIx/Pmzodb2P9WP257N1BFbTW0eOeutIDQmOTd31kq6z/yyiaMsIrLr1g3xzAb/JeDr7x+veJvqzByANOK/gr/gm/gCwulqeAxIgUL9+QOW5M90oRuP8WfWtU4yWRbfnq16yQ4ByNDqIteTP9STWkZuICX2MtUOHMc3rTQ95JdGxlMP489V+ZTKePky87nyN0QHCU2aZu4+9D6iKc1KbjKdd0OuXCt7F7gFy5FC7Gh0gVEgHyBom4+lvEQDI7ruL29P3Ffw92AJnOh5x3w9qOtNRs6jKnv2x59/MfawbX/5IiNCCB0nTV411h+3DdS8p8nHI/YkOEJ4yl7mLrN3H3odTpwjZ1FD1O4rAXfd3eTf3HQAeFYnwGpIfo+gAkQABnrKo2rufFHGmI61esPJEwmPrurXjdfzpx4Kuhg5Uwq701pDZn1rOCFks2p8MknjVAcI2XM8ehKoCKFk83P5T0Zt0d3F7ejT3VR6lA4QK6QBZ0WQ8/VRZ6/q3gpeMdICwuWsJETKYjKcnkfBQnb1fN5EMEQcijRhpddJLnEp4lK2fELnaJPEqAcK23c8qAuLDaTwPxZiMp12V7Fll78g/L25Pr+a+ykISIFRIAmQFMRrj1zQ/8HI+XNyenmT4QRmWMx1b1K/0dqZj73pJDwHLMt3FevFeMoTSTMbTo1g7zt3fkd5drwttpTiYBAhD+2DjTAki0/9/Fb4Zgp8rkAChQtaAFVSaCO/83SgKnOkY0HXvTGetYSeie/+NpEc6NzGe03rB3kh6NGPpmLMECLv0IT6UZlWzc5PxtNs8/1TpKy/wtSQJECokAbKkOAj9N8UPu7qfL25P32T7odkuZzp2RIEbg4mitfNIfBhvld+H6AoxsYDB9dYPSY82Pbk/kQBhH2Zjst5pj2RXJuPp54o30ZcXt6e1XO4+KAkQKiQBsqTJeNpdGP5Dih92dd3e6mjRZp92ONOxY/e9kTfuDGEjvW6PGrs0+WNszbtYL+xV2KoYkXc+u7AfFiVDJEDYt5tIhOgKYTDxQPx35a/w/7OZfJ4ECBWSAFnSZDz9rfIRGt/ZT7XNmY496oKbbx+ruoTHTMbTWbW2/Xkb7mM81jsTDNhEdHu8ifVDtxiPmRVrvP3fR/4F2JWuLe2XLijRVWbGIgbb1sJYEKNPAB4RAZba54e/nfsKwG50wadfRqPR5zjTHXndeUr3XI4O/V8kP5rS7cW+70aSdveyWStYVfeZiTv9/i86uyU/eMpBdBYeSYBQioNYvGya2ar4LLWwqTYCC+BxLayRh9HxCLAvszOd4CYLPUh8CFy27cxawbIm4+mrmObwX6PyWIcECKXpb5rf6QhhC1qpiD2MCmcAemKueCvVpboBgVIIbvIniQ+ecCb+w2N6iY9fdYuxCQkQSvZ9ryPEg5CVxeempWpYCRCAeS0lBY4FGoHCzIKbznQN6gUvJT54ziz+o5gDiQ+2TgKE0vVHYwnusqoWZr73dYEvlyEDhAi2tdYm7y4QoEQ/CG62o3v+xpx+wUtW0Z3df+q6hZxr2xR3fFxZO9g2CRCyOIjL0j/FKAtYRosHLIlCgL+0+Bw4UWUNFEpwswGR5PpsTj8b6LqFfo0RevY0DYik6bu44+N1668H2ycBQjYvRqPRf8yH5DlxEWyLbdZnxp8A/KnFpPCBu0CAwgluVqgrVOwKFrskV2Nd+AznLDrHWhpr3ZyY9vI5xqDBICRAyKpbGD+pHOIJLQd/dIEAzYvDVKvzxj0HgAwENyvR3fHSFSpGwSJsU5dM+3c3FknCtC6RNJ3dESRpyqAkQMhsVjmkG4SvRAdEy/MiVf4CtJ0EOHR3GpCE4GZiMa//U9zxAkN6HQlTRbAV6CVN3fPBTkiAUIOuG+Sju0HoaT0BcCDwBbQs9gStH6g8B4BMXuvwzyXOG590fbBDB1EE+9aLnlNvVJ6kKTslAUItZneDOOw3LirHfA5GI5tCoGWtJ8I7x4pDgGQOBTdz6O5vMbaGPfqhG52kayyXyXj6xqg89kUChNr84jK95p3YiH9xqIIOaFHsAc68+V9IBAEZ/WAkVpm69ySqtz1n2bfjGIml2KNwsW5cjUajn1p/LdgfCRBqdBYjsWyY26Ri7C8CX0CLdAH+5SzuxQLI5rUxx2WJ9+Kz6m0KchDrhL1foWLd+BRrOuyNBAi1eqEaoD3R8XDY+uvQ81rgC2iQ5O/XBAWArF5IgpQhAsz/0WlPgQ5iEoj9X2F664YYDXsnAULNZtUAxgC1w6ZnntcEaMZkPD1xyJrjOQBkduCux/2KwPIvLb8GpPBT3E1DAXr3BEERJECo3UFcpGfDXLnodNBWOe/cODigIYL98w7sg4AK/GIt270IYprbTxZnkiD7Ffd9fHRPEKWRAKEVNsz1E/Ra7MD4E6AFkQg/9mYv5BkJ1MCZbocikCyISTZfkiCKAHcvXvOP9uOUSAKEltgwVyoetN7bxwl8AS14611+1AsjQYFK/KLCe3iSHyR3FuPQJUF2JO5q+hx3N0FxJEBojSRInU5cyPekw5iLD1ClOOBa554mGQ7U4syFx8OR/KASXSBesnQHIvnxUUyGkkmA0CJJkPo4AD3PawTU7Nyh61mvY0wYQA1+cqbbPskPKvNax9iwJD/IQgKEVv2iIr4OMdJDm+XzjgW+gIpJ8i7H6wTURGHbFkl+UCkXow9E8oNMJEBo2ftYsMnNoWd55uMD1YmChkPv7FLOzcMGKvOLO442FyPFJD+oVZcEcRbeIskPspEAoWUHcTGWqvik4r2zUV/emcAXUCFdDcs7cFcKUKErhW3riy6an7L+/LCkH3SMbYfkBxlJgNC6g9gwCwrnZAOzOoFCoBqRCD/2jq5EBSRQG2e6NUUg85eUPzys7hfJ0s3EOnsl+UE2EiDwx/0R77wOKQnmr07SCKiJ58DqDt2DBlToMIJyLCmKCD56vWjMR8nS9cTr9tHoWTKSAIE/nMXcU5KI9lVVB6s71PoL1CAOYdaz9djzADU6noynCtuWp4qbFh1I/K3tfRQQQzp/85bBn36ajKcfL25PP3lJUhC8Wd95bF4AMjsRuFlbFyQ8urg9/Zz05wd4zPdxptMN8oTJeCqQOazrB//tqwTcuxFN3zz4v+13tutFlyy9uD0VU1hSJJdfp/hh63YzGo1+e/A3XDWhdxR/+r6p/ZkgAQJf+3KB3sXt6cMFhYJMxtNXNuwb6QJfry5uT1W+AJm5y2Izb3XQAJV6H0leZ7oFohv8bP47LOl+NBp1RZOf48+nCEh+HrKwIDpfZ8mRl70gpgTJeiRLlxRrxvcpfti8ZomNTw/+c7SPuE3E3GZm/zxbf44yjkHLmgC5bKx6+WEFwOzDl/JDV7jD+GyZjV02AZvNnTfa+vvmwXrauu758lOy1+BfsTHkD00Gd2JTbg+0mZMumCJAyB61dqZ7WHHpTDecgxjv9GpfP0Cp4t4PY8KWN0t2fIw/gyY5nhLP69n57augfbyvL+PPK0mRpUmWPiMujbdmbM9NL4G61zXlKQ+SLgvjRvHZ+CbWnG96a1CRa8///P77790P/fvcd8r248Xtqaq/0KsE6FcAvLSR3sg/VQKUKTZ3/239ddiSvxt/0rYIIv+a7EX4VvcSk/H0Shv+VthTV8SZLrdHznRHup438q+L21OBu57JePrJZ+pJ971kR+rx2BGcfBXFncdz/wIz1xe3p5KlC/QuPbdmrOcuXr9uHfnUyhm2t5/p/9n3Z+hbI7Aq8KAS4CsR3OpXAUiKLEclQLl0f2zPuREyQDaRCJf82A7PASjEkme62bnOmW45b7uEuYKfP0zG07cCmQvdRUdFVeOQInnT/XkXAcmTXkJEd8hfuvHQbyRLF3pnzVjJ/WwtifWkyWdPbz/z1Z5m3/FpCZDKRYbx46xlLYIGrzz4nnVgFFaxJEC2543AF5CQCyu357Cb63xxe9rSGCJIp3em+8KZbmmzM13z1d3RDfDD3DfaNQtUvm+hKjsCku+j0HOWDDnXGfInydIHJuPpibuClnITz+f3mTvGduGZ+PTgxR0SII2JBf39bN5ubITO4wGokuhrr10UXZa4fMvndHsOBL6ATOLQLhG+XeeN3cMA6TnTreTYfveL1v/+MzcRfLtqddrDg2TIURSWnDeeSJUs7Yn9tjXjcXez3yFJs/Ut2Msc9Qo7Xm17TZIAaVxkKLsH3pvYOL9RRfSV9w8uK2S/BL22763NDZCIPcr2dcHBl6rWIK8FZ7pzAc2vvIvq7iYD3t14H2NsRpetdHusIgKQb2I82kmcDVtNonb7oRN3wX7x3vNjzqxr7J098zAWJERmyZCtFHf879xXaFb3S3xxe9pVx3TZ3u+6y6B8Gr6MhjAiqABxmNOiu32H8WAByMAzeRjGikEl4kz3xpnuKwetPj+iorblZ2eX+Ph7xDkkPx7RJQe7LqmL29OjWDfuFv+b1Zvdl9KsGH3lrr2/3MXvxFGsI5IfO9Kt2bGf6dalv49Go39FF99aJEBYKB5+XVD0H7FpaNmb1h+ChRCcGY7XFiheJGuzVCXez32lbGcRJAMq0jvT/d2ZbvR9o+vcu0YrubvE3z8iYGlEzQpiXFxXfPhjwv3Mpg5bPhsbffWVbg35Zxd8j2dpkx2EpejW8Yvb06775uW6yRAJEJ406wppfNN8MLukh/2IB3GWC7j+lbBi5rXAF5BAljGI10kPj8ZMQqUicND6mW7U2pkuCgdaq+TuzmHfdok/ldrri46Qt5EI+ZD177GmHxo+G7eaMO277q0hxqEV6EEypCva/3mZGJwECEt5sGlusY1aZeR+ZarCeJ/0cKULBChWPIOzJMI9B4AiSYR8KfppafRra0V8XcfCS6OutifWjG4k0reNjcVqbmxcrI1Z9tpD6CdPrSFJ9MZ+dmfFfz6VsJUAYSXxAHzV4ANwZO74XmWpSr2M1sj3CduFz416AwqW5TlwH23yn5/agBfqYDKe6gKBBvQSId9uMk87qSbOdLGet3Lx+U2Mu3prTM0wIiDcUjfIWYP3ZLYa7+riNv+KUVcSH4l1HTuRsP1/kRD/KmYtAcJa4jKao/hQtUIXyB7E5j3LzPcvVVa9JEgmB8afAAXL0p3QX/t1gQBFizPdyxjh2sqs/+NGAputBDO70SfGXe1AjMU6iQuhW1gvmkkIRMzleO4b9fsQl5sbeV+R2Qi/XlfIlylGEiBsJOZC/qOhyiFdILuXJSh/82DjLfAFsAVxKMsyj/jPtT+qyLLtj140WPEIzYvgz8uGRh1XfaZLVkC2ri4A/12MPtH1sUNxSfqrBiaCtJIsHTUY55qNuzqxftQtukK+jDWTAGFjMXPtZVRf1E4XyA5NxtOXiSoRvkp4JB1/cjgZT0/mvgqwX1mSs9ex9vdJhgMp9EYdt9DhX3tgs/Zg5l10fWTruK9GFP69bKAQtvrEwGQ8fdtAwrTvg7uC2iQBwtZ01RfRXlR7O6QukN3JEoTpPvNXc18V+ALYSASosswwn1vzIziTbV/0WrEHtCs6/L9t4ExX5Z63ge6PmwheGnm1ZzFmpkuCXFb816w6WRp3gLZy/p91jen6aJQECFvVtRdFO2TNlQBnLoseXrzGWboRrhY9RJOOPzkW+AIKkmUM4l3sgRaZS4wkIBkODetdeFzzma7WZG/NxXrX0fkxd+5ify5uT88rT4LUvCd6k2jM7CZ0jSEBwvZFNUbtSRCBgeGlnPm+wFPfK5UuJ2DvIjB1luSdeOpAlfE5cK7YA9oWI/1eJRzpuoqq9ryVd39cxhx3yY8CVZ4EqTJZ2lD3h64xvpAAYRCxMXlV8UNQAmR4mWa+P/owTTr+RJcTUIIs3R+jpxIgsSfKth86SNSFCQwkRtycVHymO6lsz1vrGfUyAuwUrPIkSI0FgpkKTtfVrR0vJU4ZSYAwpNgw1/oQPIgKGwYQF3FnqV56NOjVY/wJwOqyPGc/LLj8/CHdgEBaNZ/pakn2JrszaxU3kh95VLxW1JYsHTVw3pc45SsSIAyu4oegxXQ4aS4/X3KOZMZZkz7fwN4kG+Px7BofnYLXc98o22HNF38Cq6n4TFdLELDGYOZNTJUgkVgrahuHflDT+bjycXmdnyU/eEgChJ2o9CHosugBxGt6nOTHXSqxEZXB2Q6Mh7qcgD2q4fLzh3SBAKlVmgR5MRlPX859NZE4P73O/HdY4N6F56m9iouna1JTkrHmc36X/DDNgjkSIOxSjRejCxBvX6ZgyyrBrJSX4M59BWBgEYjKkghfem2PREm2YIBiD+ChNxWe6bIHy2rcs0t+JBbv3UnCuzCfUkVnbLJ99qouJT94jAQIO1PpQ1CAeItirmaWObzXS8x8/1PS8SfHxp8Ae5Dp4LLqiENdIEBqcaarrbo7+z0gtZ1Jv4uzE4nFe1hbMLqG37VaEwTu/OBJEiDsVASMq7hoLhxmb5kuzHnM18xgnXs93AUC8IRIhJ89/m8U5XKN6tT3CQtBarz4E9hAhYVtB5PxNOUZNX7ummb5f1jyjkUSiPfyQ0Xv1VnmPVGygtNV3Eh+8BwJEHbu4vb042g0+ldFr7yFdnuyVCPcrbMxj/+fbNVyZ8afADtUc/fHLGiYLbBT1cWfwHZUWN2dNShYUzDzzvOmSueVTQHJ/Dt3kqjgdFl30ZUIT5IAYS8ubk/fJRwH9JgaM+g7F6OWslQvbRK8chcIwOMyXX7+ce6ry8n4HDBPGZhTWXV3ujNdsq7JZZy796M+8Z7WdJ7M/HepbT/XJdZOrBssQwKEfaqlbdoYrO2ouur3wf9vts+9wBcwuMl4ep4oEb52EiPGgWYLGB7G+wPw0Hkl94FkHINVUyHezxsUFlC4i9vTq4qSpccZJyTEz/xi7hu5vXFfEMuSAGFvIktbS2BVUGAD8TB+neTH/bDK5ecPxef+au4bZTsQ+AJ2IMs6c7+FMVa6AYEqVFbdLQGyH91z9W0lfxceV9MorIy/e7Xt49wXxEokQNirWLBqGIVl5uBmWun+mMm4wXcoAQYTnZTHSV7hq01b7aPKNVvF9LGOV2CRWNNqqO5Oc6aL8VdZCsie88YIm/rFe5yxAGQRCZD9uleYw6okQChBDQvXCxdFryc275lmvm/cvZF4/IlEHzCUTInwbR3eMyaWjUQEHlNDdXem0ca1dH9cq+Jux8Xt6dtKRuYdRxwjhVjXsoyZXYb7gliZBAh7F8HgHyt4JwSH19Nt3g+S/KzbrFhxCS7AX4nwLIGcm23NGo6AT7Zg4VmmAz+wOxVVd2d5HtWSANFl3p5a3vNMv4M1dUt82EZRKu2RAKEU7yqoGKrpErpdyrQB2lp1UtLxJ691OgEDOG80ET7Ef98uSIYDC1VS3Z2lqK2G4rtrF5+3JwpAaugCyRT/qaVY994+lHVJgFCESiqGdICsKEYqZWnFvBygzdL4E4A860p36Np2xVnGsR+eA8BTsld3F38f1WQ8zdRB/xTdH+2q4b1PEf+JAsYXc9/I6V1MkIGVSYBQkuxdIAcuB11Za5effyXp+JNz40+AbYkgTpZE+PttJ8LjEHc5942ydfsdF08CC9VQ3Z3g3jvdH6RWSRfIQZI7MmuZVHIXXYawFgkQiqELpC1RifA6yV/6bsANerbP/EFlM0SB/Wrx8vNd/fcOSRcI8JTsQSoJkOEJZKILZDdqiVFZM9iIBAilyd4FIgGyPEGvPxh/AjQpEuHFjxoJ10O13Mel6tdz3yjbiyRVj8AeVFDdXez6Vsk4mxvdH8RYUffADi9L0elT7uK5AmuTAKEo0QWy7fnauyQYsLwsXQT3QyYpko4/OYyxNQCbyFTJNfShK+OhTjcg8JTMwaqSk/M1nDezT31gCyL2kz2o/aLk8dAVFavo/mBjEiCUKPPidhBVOTwhZodnubjvaoDLzx/SBQI0JQ6LWRKp90NXnSWtlj6z5wGekDrIXXDgMHtAc/BnKqnUkAwr+XeyhgSI7g+2QgKE4kRFfLZREH26QJ5n/FVPtIBn+8wfC3wBG8iUCN/VoctdIEA1ooAoW5dz38u5r5Qh+1lTIJM/VRD7GRW8Vox0jMFfJEAoVeaNUckPwL2Laqosc2tvYjb7LmT8zGtFBdYlET7vfcJZ2Oclj34A9i7zaOPiznSx3h7OfSMXwUweyp4UKznJkOWuvccMOo6ctkiAUCqb5Xplmhm+sw160vEnJwJfwKriDqEsAZwPQ11+/lDSe9AOEo0yA3bs4vb0KvFl6CWe6bJXc9/s6plKKpljP6NSkwyV3P+xi3HkNEIChCIlb5nOnmUfTIxMOkvy497vYTOWrbrhwPgTYA2ZEuG7XpczdtbpBgSekjW4WWLHuvFXVCdiPx8y/70m42mJCdMaCnN1jLE1EiCULG0lgLsRHpUp6LWPaoN3GcefzH0F4BHxfHy9+LvFuYvq5Z2JythsQYDDSqoMgWGkDXoXuLZlD2hmr/RnONk/GyXug2roGNvVOHIaIAFCsXYddNgyCZDFMnUL7LyiNen4ky7wJQkCLCvTc2BfQbuM1W66QICFIoCVdQxWaWe6zJMGjL/iKdkTIDpAtk/HGFslAULpsrZCqoR8IILkB3PfKNP1HjfoGYNIEiDAs+LOIOOvnnFxe/oxYbDwWPcr8ISPj3+raMWsa4WO2FmFYCaPqmAMVlG/n7HnznLf3mN0jLFVEiCUzma5Hqp+lxCJl+t9/e+v6biCQxkwvJNEifCdXX7+CHeBADXJGsgqqagt+14767me3cn8GSntzqDs64WOMbZOAoTSZd0sS4D0RHC8xIsEF7m/uD3dd4VSxiCSy9CB52Ra2/Y9huoq4Z1QJ1FxCPCQorbNZT5f3pnlzxJSJ8kKKwjMPpFExxhbJwFC0SLrm3FmbOb5rEPQ/bGCpONPzow/AR4TF8lmacW/i3V4b2IURLa7QA6MRAQWiTXtZsG3SlfScytzQFP3B89Kfl/QqLCui+zncuOv2DoJEDJIuWFSBfmHeB3O5r5RrlICTu4CAWqSKRFeynMgY/WbbkDgMVnPdKUENTMHNCVAWFbmz4qOse24M/6KIUiAkEHWh6A7Ef6QKRiy75nvfRnHnwh8AXOiO+z13DfKVUTiIZ5Hl3PfKNvhZDyVDAcWyXqmK6WoLfOFxhIgLCvzqLSS4j+ZJ5Lo/mAQEiBkkPUhqAPkD5kCIcVU28aogGzVvwcCX8ACmZKjl7H+liJjF4jnALCIorY1xRjJrFRzswodIBuqYCy1hCmDkACheIkvTGu+AySC4ZlmvpdWbZBt/vtIFwjQF2MQJcLXFHeRXJf0My3huLCLQIECRHI543z/EoraMgc0XX7O0pJflv9i7iv7IQECC0iAkEW2w/9IB8gXgl4bSDr+5EXyKjVgu07icuwM9n75+SPcBQLUImNws4SErvs/aEnG2M8XhXRfZC5CuSmsE5uKSICQhc1yMlH9mWn2ZKkBJoEvILNM68Hbua8U4OL29H3Cqumz6P4B6Mt4pithLct8rtQBwqoyf2ZKSIBk3n9ZLxiMBAhZmBuaj8vPtyCqkW9K/Nme8LqC2aPAhqIbrJRxAM+5L/zSRclwoAYZuwEENDdQaGclZXMRev6fYV3WCwYjAUIWOkASiarPs0Q/cul3bbgLBMgo0xjEq8Jb7t9FkiYTzwHgoYxFbSXcZ5j1XJnxzhf2L3MCpIRkZeYOEIXPDEYChCwyPgSzzDwfQqagR6kz3/+UdPzJufEn0K7oApMI35JIzpTcobLIwWQ8zZQEAwZWasd1AlnPld5vVpb8InQdIBvQMcaQJEBIwUVI6WQKeGTprsg2/uQgLj8G2pTpOXCT5LBd5B0lz9AFAjyUbbTr7G7D5v63t0Awk3WlWydCCQWAWROmWd9zkpAAIZPrbO9WzD9vymQ8PSmkVXxZWRILGcdgZQzWAduRKfCdYn2Nyulse6EXLe6FgCdlLGzbZ1DTOBtalLUAdq93BiW/h9N6waAkQIBtyxT0uszSXRQ/5+XcN8p2GAkxoCEx9ihL9Vnpl58/lDGxbAwW0Jd5vM0+CGjSoqzdQ/suBM28Xng2MCgJEDLRQlu4qDg4TvQjZxsrZfwJkEGm3/v3mcZsxmzkbHdCnSWvSAS2K2Nl9z7XMAFNWmQEenskTBmUBAgMq7UDf6YAffGXnz+UdPzJscAXtCPGHb1I9Bc2XnA3JMOBmYxBcXvZNbjHkw2kTZ7tefRn5juDJEAYlAQImWRcEJvZLE/G02+SXXqd9X4KwTqgZJnGHV1HYjmbqxjdlcl57BMABMVXkzWgme7+TqhA5r2WjjEGJQFCJjLCZTPzfQcubk+vEo4/ORH4gvpFt9dZor9otjGIX0RFbbaf/SBZkQRAKeyhaU62SQ1sTscYQ/ubVxjYkkzjLa6SP2C7jopf5r5aroP4fOgEgbpl6v64v7g9TZkACV034PdzXy3b26xJJ2B7usDmZDz1itZPNTeterXH+2uzTiDJIKJSIwAAIABJREFUVuBZnMl4em5c45PeS4CQiQ6QQk3G066q8zDRj5xxjFTfVfwdsnTcjCIwKgECdcuUAEn9HOhGd03G08tkHTeH3VxsVZ1AQmb6r041N5u6SXavXAmyBsDF+jYQXfiZCmT34aMRWKSRdE53Ky3Lmbo/bi5uT1NXJCUdf3IYVQlAheL3O1MivIZOhIx/B5ehA6wmU8ETbJMkGizHmNklSIDAsLJW7Cwtss3HSX7cUQXdHzMZ/x4SIFCvTL/fH5IWVXwlOilu5r5RttexbwCgbrr9aJV9zuqsF5tRYLQECRBgU5nGGqW9/PyhCN59mPtG2Y4n42n1SUFoTfxeZ0qE13QPRcZkuHGIwHXzrwDwnKxTGyRA2Jk4h2Xqwt8bCRBgbZPx9Jtk7Xbvk19+/lDGwJfqBKhPpt/ru4vb0yoS4aM/kuHvE14ceRL7BwCeoHCIxhmBtbpMBUlsh/jKkiRAgE2cJJtLW8v4qy+Sjj85M/4E6hGB7EwXcdfU/TGT7e90YCQiwFIyJ4tT37kI7JRk1xoSFiTvlQQI2WQL9tYu0xiL6xpmvi/gLhBgn7JVHdWYANENCEBRKuu6B4YlYbqebAXJeyUBQjY2UoWYjKevks0arDHoNRt/cj/3jbIJfEE9MiU0L2tMhEeQ6XLuG2U7nIynKtYAgMdk3bMZ88muKCxdgQQIsK5MQez7SBTUKlv178FkPPWwhuTi91givAwZLxaXDAcAHpM1AfJi7iuwZTFW3J0vK5AAAVYWi+3rRK9cVXd/LGD8CbAPmRKZd3FvUpWis+U62d/t2AW/AACwMgWlK5IAAdZh5ntBko4/eRFj1ICEInCdqeqo9kT4SDIcAACaIAGyIgkQYCWT8fSbZIvth0ovP39I4AvYJYnwwlzcnl51nS7Jfuyz2FcAMC9rsdDN3FcA2Iq4Ry/TGOIiSIAAq+oW24NEr1r1Qa/RH4GvTwnHn7yOcWpAIhGwznSB9WV0yrVAMhyAfWvlmQuwD5nOYcWQACEbwdL9y3TR6l1UxLZC4AvYhXOJ8GJ1f9f7ZD+zFn4AAHhGFKKdPf1vsYgECNlo89qjuLMh03vQUtAr6/iTc+NPIJ1Micubmi8/fyg6XbI9+w4n46kkCAAAPE33x5okQIBVZAtQNJUACdm6QA48xCGPhDNnW7j8/CHdgAAAUB975jVJgABLibsaMrXaXTZy+flDGcefZBqrBq3LtOnu1sKWxiB+Ec++D3PfKNuL6DIFAAAemIynL7s989w3WIoECLAs3R8JJB5/ogsECheJ8ONE79NVQ5efP5SxC8QYLGhHpmfJPrlMHIAZe+UNSIDAsD5V9Ppmqvq9a2nm+wLGnwBDyNat1eL4qy/iGXgz942ynUWSDYA/1HSWBGAzEiAbkACBYVVRtROXkx7MfaNczQa9RnnHnxwLfEG5JuPpN8nu6+kuP289cKQLBIB9sKcH2KKYmJEpJlccCRDSMBt6r7JV5zc5/uqBjIEvd4FAuSTCk7m4Pc14J9SbSLYBlKT1hPqqDnP9uMCevfQGPEuR0IYkQIAnReIp00VLlw3PfP9TjD+5m/tG2U4EvqBYqS4/j+A/+RJBB8k6jYAVJd3rNX+2AFLIVvgyIwbwhJiU8frxf4NlSIAAz3H5eV7ZOioO3AUC5YmW60zVnJ4Df9ENCJRGpe+SGr/TEFidbrU6KQ7aAgkQMpEV3rHINJ8l+pFvHBT+knT8idZOKE+238vmx1/NREfk5dw3ynZo7CkANM9dMvAHRaJbIAFCJhmrhbIH4wW98sv2mhzGpftAARK2XF9f3J5+nvtq2zI+Gx30AKBtWRMgWcdQ7ZNk1yMm4+lL9ypthwQI8JRUM99Ho9HV3FfJOApGAgTKkS0QbfzVAxe3p904hOu5b5TtdSTfgPpk7PDa51iZm7mvJGANp2HGUK3OevE4RUFbIgFCJhbFHYoq/INEP/KVy8/nRSV0tvEnx1HpAOxRXFSbKSHp8vPHuQsEYH37PGNkPd84u8PuiYdUJM5i7v/YEgkQMsm4icr8ADL+qh7GnwDrOEmWCPcceMTF7WnXIXm3+LvFOomDH1AXgXFgGdaK1WXtPvFeL5btLFY0CRAySXcIjrET6UT1/XGin/s662u9C0nHn5xpnYe9y1aBr/vjadkSRAdGIkKVFLWtxhmHVjkLtsMdF4vZB2+RBAiZvPBu7YyZ7/VxFwiwtMl4+irZYeSDy8+f9T7hxZy6AaE+itpWk3WiQMa7XgCKEMWgmYqSiycBAnwlxk2cJXpVzHxfQrxG2cafCHzB/kiEVybuybpK9rc6nIynZh9DXRS1rcZMf1qVtQPk49xXdidtx1gUX/EXxaBb9req/jZUK+limG3k0Iyg1wKVPJA/JktuHXSX8UtwwW5FxdHrRC/7XdxxMah4XbKPY8j2HBjFviRb4gZYIOm9PvvunMsa0HSHE5syFml1Eqb1kADZMgkQsrCB2h2Xnz8Qd6L8OvcNduGNym7YOYnwxT46jO/FcfccdtcXVOFlwr+EtWc9Gd9rYH9e7bl7phjR/ezMsWVGYJFFxg1Uuux7V22fbKG93tHMd6OY9ueFdljYnajOlQh/IOGdKLXxHIY6uNR4RRe3pwKCNCf5+W+fcaDMCVtFz38x/nUAEiBkkXGznPHhky3oNXjVbwQDPYD2S+ALdqdb7w4Svd6XcbfF0LSh79dZ0tE5wNec6drh8l5atbc1Y0d74qHoGst5J28aEiBkoVpoYDHmKdNG9W5Hd0NkCwbW6HXM3geGZ/zVAw4ixZAMh/wyVnWXEFBMebekxDUbEAxf313Sn9t5/w+KbwciAUIWGStIsrUrC3otJuBSBu8DDCzGDbxI9Drf7Wg0iO6PMngfIL+MAa4SEiBZq7oFsVlX5uTZLkZ0P2Xf//vrMmr2D+IeA5EAoXjRmcCAko552kXV71GyYGDNzlWRweDc/bGYg0gZDuOuMiDx7/HcV8pXwgisrGO4VHSzrrR3gOzojtKnpB2D1frdnxH7FH8aiAQIGWTdOGXaqJ4nG/P0weXnzTnQDgrDiYRvtjFPu0iEu/y8LJ7LkFTiwFYJwcSsFd0SIKxL4dv6Mt9b1PqaId4xoL9V+zejJik7QJJdQGX81WIqTcvydofvPbQm23rn8vM2veiCqDsafQZsV9YzXQnBxKwJEJMcWFfWKvgS7utxEXpSF7enbyPmUbTJeNr9jD9ke5V1gJBBxmqhNBfVTcbTk2TVrd3M96u5r25ZjNlw+XlZDuPzCmxftkT44OOvXH5eLEkpyCljYOt+7iv7kbWiWwKElRmBvrHMHSDeewYjAUIGFsFh6f5YTIClTMafwJYlTPje7Kgi13OgTGcxsg3IJWNRWxGBxOh4LCUZswojJFlH5me8jrHNHCf+2SmcBAhFi+x/xir8FKMZIoCQ7SGzi6rfjK9LK44FvmDrdH8sJuFaLskpSCQ66jIGw0sKJKas6m79UmPWkrkAdu/jpwq4hH0j1gyGIgFC6VyWN6zi5ws+sKuZ74JeZcv2uYVixSEj05zlrgJ2F2MQX6pcLdqbCKgCOWQ900mAbM40B1aVOQBeyu/pzdxX8rBmMAgJEEqXdfErfoMagYNs9ykYf0XnROALtibbenclEU50B7sTCvLIGtAsqavfRei0QgfI5jJ3gegAYRASIJQu6+E2Q4VOtpnv3eXngx9CXH6ewoHgJGwuxsllu+R7V5efC66XTzcg5KGrf3NZO0AEM1la7E3TnsV3Ea9YUuaL0K0ZDEIChGIlvv/jfkfVqZsy830x3R85eJ9gc9l+j653dPn5iUR4CofmREP5IqmcadTin3b0zFlKQYHVVR3q3GYFmZ/r93Nf2Z/MCZCDiAXCVkmAULKsD78M469Oks02v9/F+CuXn6dyGN06wPqy/Q7tagyiDrM8vFdQvqwddSXO0L+b+0oOktUsy/0f25H6InSd2AxBAoSSGX81HDPfFxNIyUUCBNYUCcRUifCL29NdJMJfZq1UbtTrKF4AyqWobXuMwaJ2mT8rxSQdSupeW5MECFsnAUKRok02ayV+0Q+bCBS8nvtG2Yy/YpFj7bGwNt0fi0mE5+M9g7JlDWSVWEGddQyWYCbPijhFpuKch0pbM67nvpLHC6Pz2DYJEEqVeZNUerY9W6DgZhcVDC4/T0vgC1YUicNsRQYuP+cx5w7JUKYYu5t1f11isiFrVfehbj2WkL1TqLQ1QxcI9EiAUKq0i13J7YYRIMhW9av7g6ecOVDByrIlDrvLz3dRVefy85wOPMOhWOb5b1Hii9BHgpksIftnpLQ1QwIEeiRAKE4E6bONaJopvc0wW3Cnu/z8au6rW+by8/QEvmBJ8Yw9S/Z6GX/Fc7x3UKase7S7Hd0/uI4SL2dfhntAeE7mz8h9gWtG9gTIax2+bJMECCUy/mo4bwv/+R5y+TnL8P7B8rL9vty5/JwlHMaoHaAQycdflXymy9oFIpjJo5KvF6NCO8Y+RUFpZvZ2bI0ECCWSABnAZDx9lfBSsV0lbDxYczuIO1yA57n8fDGJ1Py8h1CWzPvrkpMMxmBRo+yfjVJ/L7N3gdjbsTUSIBQlRhFlHX81KnxDaub7AlFtki0xxDybI3hGJAqzrXe76P5w+Xkdjt0JBWWoYF3VATIMz1oe4/6PYWReLzov7O3YFgkQSpO5ivt+R5e0rixpYmlXVb86B+rwIrqcgMdlW+8+uPycFWUb9Qm1Sr2ulnzZeIwHznoPiDFYzKlg/NWo4ERD9gTISKEj2yIBQmkyB6N1f2zP/Y5mvmfvOOJrNkfwiFjvjhd/t1gS4azqTHANipA5GXk995XyZA5qeubyUPbuj7sCL0D/ouRk7grO7e3YBgkQipF0NEdfkQ+XeFiY+b6YDXhdXmuRhUdlC0Z1h8mrua9uWdLEEE+TDIc9SnrvYF+GgKEECFWoZAxp6b+PGZK6TzkwPo9tkAChJNk3Q6U++DK2lL6b+8owbMDrI/AFDyQ9XO7qOWDNqI9nO+xX9nW1+OTCLgoEBtSNrX2Z+Odnu4y/Gl7m9WLGiFM2JgFCEaJSKHMFZjeyqdSLr1x+voDLz6ulRRbmnSc8XOoEZF2H0VUM7FgN42UTjYzJXNWt+ICZGj4Lpa8ZNYzBsrdjYxIglCJ7RrfIrHokll7MfaNsuj/YhBZZmJftcHm5i1nKcZBy+XmdPONhP7Kf6T7MfaVcmau6z4ytJWms4qG7XRRvbiIKde9L/hmXJHHKRiRA2LsKuj9GBWfVswUAdjnz3eXn9dIiCyFpt5vuDzZ1HPtLYEdif32W/PXOVCmdfayNZzC6P3anhjFYL3SBsAkJEEpQQ7CyuAdK0kOIoBfbcBhBXyDf4fJuF+NHXH7eBM962K0aznRpEiBRdX4394083hhb266KChIlQHZLoSNrkwBhryrp/rjZxaiONWQ8+EuAsC1aZGle0iC/y8/ZFiNWYEfiUuvs3R93Bd/p+JjMQc0Dz+Km1RLIzvI7WMM9ICN3gbAJCRD2bVcB7yGV+tDLtqH84PJztuhY4AvSHS7vJcLZMu8z7MauktdDyphMyH6W1gXSoErG5Y0KLoSdEz9npjuOnvLOusE6JEDYm8l4+qaSQHSJ468yXuzq8nO2TYsszYqDQbZRcFcuP2fLVBfDwKK4qIaRgukqpKNjJfMYLF0gbdL9sR+1jME6cM5nHRIg7EUEZmpYtEptlTbzfQGXnzfnRHUIDZMIf5xEeDsOjEqA4cQ+q4buj/uL29OswcHsQc0fdG23I0ag19D9MZIA2avvY/QiLE0ChH15X0n1ZYndH92m4sXcN8om6MUQVJXRsmyf/ZtdFBS4/LxJqgRhOG919O9dDSOla0iisZxansnp7gyqbAzWqJK1jx2SAGHnok26lir8Ehddl58/TgKkPd5zmhOJ8GwBKYlwhnIYvxPAFsXv1feVvKZpEyARhL2Z+0Yur63T9YuOzFqKULKuGTUlDV5MxlNFLiztb14qdinapGtZdIvL+sfrm62l9HKHl4cJfK3mpIKDbRf4Or+4PVUhQkuydX/c7/AgeZVxzvsedfuKf1fw93jjfYftqexMl3n81Uz3Xvw099Vc3ncjbbJcKs1qKhqXN5Ny/evWusl4el/RXXjdCL2rbN047IcECLt2VdFiW+JDL+O4n529jru4Z6Qmk/H0U9J7BB461yJLK5LedbSTy89Hf1XKsoLJeHpZwbzurrr46OL29PPcd4B1vKtk9NWokrn4NSRADmM8kvG1dXpbURwo3firB64quoelcyV5yjKMwGJnoj2tprnbxl9tbieXn7Oe2ETUkDg4dkkaDckYONC+XrZaKjYF1WALYoxNTcGz9GtcRbP9vzcKqz6VjcsbVZA0re3OnUPFjixDAoSdiIfeDxW92jelVRHGYSRbJZagV/kEviCJGC+QLRF+rSq/bFHleF3BX+U8fkeANUVByS8VvX7ZK7n7agkAXlmr6xHvZQ1dVn2pz8eV3Bv0UNfp67zPkyRAGFxslD30hpct6LXLme+sKQKTlxW8fmcOUzTgJOF4ARVbOdRQsHDgLjBYX+yjauvcrqYSOu4xuZv7Rj4HzohVqWkE+qjEQtg11dYF0vlpMp6ezH0VggQIg+pdkFfTQ6+4wH0kmbKNF9vZzHc2VkunjqoQapftd7W7eFYCJIEYV1lDtaDnAKyhl/yo6Uw3qjAJX0tQsxtfW2OAtikVjkAf1fI7Fvvv+7lv5Pfe6GseIwHCYHob5ReVvcolBu4zHuhtapOIKpcaxp8IfFGtGDWZbQyi5EcuNTy3D1UHwlquKjzTXVZYjFVTUPP7GPFMQvGsrWkE+qjCCRY1xmO6JP1HSRAWkQBhSDUmP0alVdhGoinbRYQ3Fc3bbUUV408cpKiYRDiDimrBGsarSIbDCibj6fsKq7hHNSbhI6FTU4D2F4HMfOI9q7HIpbYJFrUWIs2SIMZf8xUJEAYRG+Uakx8lXtYq6MXgYvyJLhAo0GQ8Peou/0v23rj8PKcakuHH8TsDPCPOdNkKrZZxE3vbGtUyunZGNXci8XytcVzeqLbfrYru+lxEEoQ5EiBsVbfATMbTT5VulEcuP98Kl5/nVUPi6kWMCoKaSISzK1eVjFepLUAIW1dx8mNU8zOowqCmkTZJRLC5tkvPZ2ot3Kl5P9QVZH+2djAjAcLWVHznx8zdxe1paZefn2ec+e7y85zi81/D+BNjsKhNts90cc9TlhPP7xoCh2eqAmGxBgra7mKkX81q+/tJghSugVhQlUnTyrtARtYO+iRA2IpYUD5V/MAbFZodzxjIVfWbWw1VImfGn1CLSIRnq7Rz+Xlu7yrpAjESER7oja+p+UxX/TOootG1fQKZhVIIm17tXbGztUMRZOMkQNjYZDw9iQdetk6EVRRXKRQHlGwXEpr5npxLcKE4GT/LEiCJVXTJroMw9MSI0NoL2u4bKsaqMag5C2SezH2HvYiE1GeFsHk10AUyirXjl8l4agRqwyRA2EgsIP+udM5jX4kLZcbFW9CrDjW8j+fGn5BdBKuyHTg/SIRXoYYD5KFqQPhDnOl+beBM966VUbyVdoGM4jP678l4qphpz2IfWuuF5zMtjMwbNXQ32g+T8fRKHKBNEiCspes+iNmwPzTwCpbY/dEt2NkqX+4b2Ty0oIbxJwcJf4fgoYzBW8+BClRULSgBQtPiTPexkTNdS90fMzWvcT91F/ULZO5HJKBaSJo2kRhopAtk5nXX7RgJPBoiAcLK4mFXe3t0X6l3f2TbbLj7oxIVXYKrBZa0YgxitgtqXX5elxqeA8cOwLQqOqA+JRypu65muj9mGghqnrkXZLe6hFOXeOoSUA38dVvp/ph5U8kdb8voxvf/OhlP30mitkMChKV1G4uoEPqpgUz/TKkPPTPf2bca3s9DgS8Sy1jVKRFekYvb00+VjFfRBUJTel0fvzR0pmux+2PmbeVBza4o8z9GYg0vEk2fEhbgrKupYrmKihxX8b1ukHZIgPCsXpb/Pw1VCM0Ut5GKS9+yXThv5ntlKqoo0wVCVhLhlKCGNfQsOqqganGm635n/9vima617o+Z2LO3ENTsRmLpBhlAb+34T8I4xLpuWhzffXF72r3Pd3PfqNusG+TKfrBuEiA8qveg+9xQlr/vutBRHYJelKKGwNexjQ7ZxNiSbFW7l60Gn2oWl+zeVPBX1AVCtR6c6Vq46+Oh1sbYLPKukaDmcXSDvDXWZjuiMr6Vu1/7Wu4oanVPNLsbxPpRKQkQ5izYJLfSGv1Qid0fRwkrtsx8r1RUlH2o4G+nC4RsJMIpSQ2VxUanUB1nuj81n+CMAoSW1rnu8/45CkZYQ29U3q8NdX3MfIgCjybF372GM/46Dnrrh0RIZSRA+FM85N7bJH/xc8y2Lk3GQK2gV91qCHyd2NyQRVTivUj2ht21fJCsXVRWZ68sPhAooxZxpnvnTPdF04HMvihIq+HepmV1n/tfJuOpRMgKejGhFkflzSiK+CNx3MqF6ItIhFRIAqRxURl0Htn9/8aoq5Y3yaNY6ItLNMSiezL3jfJJgFQsDpXZD1MHqgNJJONnVZdV/Wp4j31OSe3Bme57Z7ovZzqBzK+1GNQ87CdCBDIXe5D4aHH8+cyP7i79s2vM+fivRMj/db8f7hjKTQKkQZH0OIkH3P91G4KGs/uLnBc6p/wk6cz35jcQDTD+BHYgDu3ZDqVdoMUYxMpFF0j2oNphdFhBGrMz3WQ8/c2Zbs5b55CvxevRarL3MH5HukTIO3cA/iHWkI8SH1/cxSXg/NU11uoorEXO4o6hT5KpOf2t9RegFfGA7wLor+JyHxYr9eLzkfFXlKr7nZmMp3fJ58N2ga9zl2RSuIyJuiuXnzfjXQWXpHa/Y8blUKw4072Kc50z3eNuLm5PayjQ2brudemC3g0nyw6iQ+r7yXh6E8+upvYqsY68iXWktfs9nqLjYd55jFNsvaOw70UkU7vOsg9R6OW8k4AESKWigu1lbJBferAt5b7Uh168n9neQzPf2/I2NgKZnUvaUbiMBzMBqHa8i4BK5kPy6y4wpGqcUvTOdLNznTPdcgQyn9a9Pp8ENecCmR8jkFndMyBG97yK9z7bXXK78LPYxbwuqB936Px77puMohDhdawh15EM+VjofcJbEfuSlB3TEiDJxYfvm97G+MgDbW1vCt7sZKz6FfRqSNc50V0QlvxgftwdDmresJBXHD6y/X7d+H1qRxyS30dlbWZvjEVk1x6c6Y7iP53p1vMvz56ndWfeyXj6poLipW2aBTJ/is6Qj7M/GSu7YzzPq94UEMnTx925B+xxMe3h5wr2d0M7nnXWxXSMj5FoTpsQiXVkljx9lb1zMGsC5KiRGb1H8WfmZWyMR+a7bt2HUkffRItqxhZ3lfTteV/J+BNVg5RI9wcZvKvggNzNdX5rlMFOtHqm6//fznTbdW301XKieMkotcVexJ8vz7NIiHya/SmxU0C32EZOPPOfdnF7+iY+YxLzyzmMO0O+3KszGU+7/7jurSOfS1tHHiQ7XtY4SShrAuTMBU1s0V3hgaWMVYiXNhFNqmH8yVlXEefzS0libEG2IJnLzxsUVcWXyffpB1Exq5BjeM50bFOx44wLNhuFJVj+tFlCpB/MvIu7EbrX77fef34eYqpELzg5igBlv2PM+7e+H3WMLe3E6LyNHPfPc8+sI78N8bl8Yh152cL7agQWFJzxjwUq40Ze0KBBMf6klktwtUFTkoyJ8PcSic16W0FQ+629DKRz7v6e1cTe/SRGtQhqruYw/swVqERgc9QLbvbNgpwP9QOTfXP//WxN1zHmzLekKHLp1otfU/zAOSyzjtwvWDMeW0dmFnWeNp8olQChdaXPiD1JuBm9cYFY02oZg2UzTBEiEZ4xmGwESaPigHy96DCXyGF3yO/mXrf+fkISP/p9XU93FnYfyGAOHwk6Gju2f/cRa2EFXZxnMp5+Z73YqYNH9tTWkRX9b6qfFrbrMsGM2IxBWEGvhkXl3WXyV+AgLpyGEmTs/rhWhdu8GpLILkKHHFRxbyjuwvw59V8CVvNKp/J6Yr3Ift6nQRIgtOqm9INtXDK1qGKkZGa+MxL4gq0yBpF0ohP0Ovk7dzwZT4/mvgqU5EYV93Z0lxyPRqMPNfxd4BnfufdjMxe3p+eSIGQjAUKL7pNk/DMGYK9UUlBJF8iLSELC3kQnUrpEeFSGQQ2fA1XlUK77uPfD2WN7ziOpBLX62T51a95YL8hEAoTWpEh+RMVhxpl+xl8xU8PG0hgs9k33B2lFgOEu+Tt4EvfwAOV5pYp7u+KM/CrOzFCby+h0Ygt664UkCClIgNCakyQb5YxBr2uHEGYqGX9yZvwJ+xKfvUUX3pVOIpy+7B0UB0YiQpGMsBmIJAiVKn4EekaSIGQiAUJLvougbAYZH86qfnnIXSCwvoy/Px9cfk5fdIFkD6LpBoSyfGeEzbAiuSQJQi1uXHo+HEkQspAAoRVpNsox8/1g7htlM/OdOZFwzD7+5Nz4E3YtPnMZL3X1HGCR7F1Bh7E3A/ZP8mNHJEGohOTHDkiCkIEECC3ItlHW/UFNahh/kjEQTW4ZE+F3F7enV3NfhT8SILpAgE1JfuyYJAjJSX7skCQIpZMAoXapNsqT8bR7YLyY+0b5zHxnoUouwa1hlBe5SIRTjTgQZ/98HE/G05dzXwV2RfJjTyRBSEryYw8kQSiZBAg1y7hRznr5uZnvPKWG8Sev5r4KA5iMp13H0WHC11ZgiqfUUCjhTijYD8mPPZMEIRnJjz3qXveL29OuaOSy2ReBIkmAUKNuY/Ztto3yZDw9Go1GZ3PfKJ8DCc+p4RJcXSDsSsYgq8vPeVJ8PrIfhM9irwbsjuRHIXpJEJXdlEzyoxAXt6ddce+Prb8OlEMChNrcxwPvY8K/V8bujzuHEp4TG9Ds1b/HAl8MLT5hUZKaAAAI4klEQVRjxwlfaGMQWUYNiWR3gcBudGe6fzhnlEUShMJddp0Hkh/luLg97fZ+3+keowQSINSk24gdxcYsIzPfqVkNAVJdIAwt42fsLmnRATsWXSDXyV93Y7BgeLMK7qxnuqoZb0OhfoyOAwoTiexXFdwLSnISINTiMnOr42Q87R7WB3PfKJ8ECEuJ383sB6WTyXj6zdxXYQvis3WS8LXU/cEqsieSD2LPBgzjWvIjhwg2/6v114G9u49ReQrVChZrepc4/dD6a8H+SIBQg391G7DkrY5mvtOC9IEv408YkEQ41YtuIV0gwCJdBbfZ/Ylc3J52RRDfGm/Dnsy6xexFE4jusROJU/ZFAoTM7mI2bOrq08l42mXCX8x9o3w2GqykkktwBb4YSsbP1qVAFWvI3jX0YjKevpr7KrCuLnj+rQrunCKx/bKC5Da5fNAtllPE7/7hLiF2TQKErLoH3stKHngZg17dzPerua/C87Inzg6NP2HbIph6mPCFlQhnZbF/yD4HWjIctuM67nB0l1RiXZFT173TdfG0/lowuPuYAHKiCCevLo4Xdwn93Pprwe5IgJBN98D7Zy0PvJj5fjb3jfIJerGWSsafSICwbVkT4QJWrCt7pffryXh6NPdVYFmzIKaRVxWJLp5vXXbMQG6iCNb9c5W4uD19E2uGbhAGJwFCJh+iQqimzoOsFYQ2HWwie+DrOEbXwcYiiPo64StpVAlri3ndukCgTdeCmPXqjcRS2c02dXcEvXQHaX26NSO6QX50nxBDkgAhg7uauj4eyFhJbuY7G4mDkcAX5P0sdYcTYxDZVPZu0vPo5AWW0z07vouuD0HMisVlxyq72YYuYfp3dwTVL97jl1H4DFsnAULpfowKoeoCLXGPgJnvtCr7JvZM4ItNxWcoYyL8SiKcLXiXvNLvYDQancx9FVjk5+jkd45oiMpuNiBh2qC4T+jEKD2GIAFCqT7MMv0VB1kyBr3MfGcrjD+BL04iiJqNsSVsLPZ32T9LKlLhabPq7TcS5+3qVXZftv5asJQfJUzbFsnTbkzwdxIhbIsECKXpNsnfxrirajP9cX/A8dw3yifoxTZl/zxJgLCpjMHTm4vb009zX4X1ZA9uHE7GU10gMG92plO9zRdR2X0eld3XXhUWuGygCJYVdEmwSIToImNjEiCUor9JbqHDIOvMd1UYbNP77ONPYpQdrGwynr5KOgZRIpyticBo9opgyXD4S2tnOlYUld2vJELoma0b5xKmLBJdZLNEiI4Q1iIBwr41t0mOme9nc98on5nvbFUl408EvlhXykS4cQQMIPsYqePJeHo091Voi8QHK+klQv4pEdIs6wZL62IH0R1kNBar6q5Y+CwBwr7M2htbfNhlrRhX9csQsl+C+yIq+WFpESx9nfAVk/xg66La80PyV9ZdILTqUgCTTVzcnl7pCGlOy7EgtqA3GksClcd0MaafY635csXC3x75F2EIdxHsfN94J0HGql8z3xlEtxZMxtOrpF1RM11S0+adVWTtHJIIZyjvkiYFZ066Dl+dsjTiLhLi742rYVsiEP4q7sp8k/xswLz7XizIusFWdAnUblJJFJe9iXP5gVe3aR9ies1c4Z4ECEPrHnRX8aBrPkAYF2Wa+Q5fe5v8kHM2GU/f2syzgoydgNc+4wyl2yNOxtOugu846Yt8EAdvnSDU7DKCClfeZYYSRXfnk/F0Fsx8k/T8zB+uIxY0F4yEbYkzSrdWvIk7Ok+SF9awmpsozLh66rwqAcJQHs26NS7r5ecOOgyme0hNxtPL5EmQN+4DYRmxKc9YmeR5ztDeJU6AjCJQJwFCbT7EOcBdgOxU767AdzFudhbUVN1dvrtYN949FYyEIUQM8n10hZzE2vHCi12dpZIeff/z+++/d4fx3+e+A6uZBck/2iAvFgvwfxd+s2yXF7enWe8tIYlod/9P4verWwOPsq19caD8de4bZfs2c0fhZDz9lHAT3l1+/s3cV2HLJuPp5+SVvt/ts/jHmY4tuJ+d55zpKE03ajACmqq7y2PyB8WSDKnGdW9/snJyVQcIm7iZJT085JaStSpQNSOD69rdKxh/cqJKnqdEwinjptsYRHal23P8kvjVPvccIKGbXhGbMx3FioTcrLpbMmT/7nrxIBMjKFYEy2cdZV0y5FWsHa90lRXtLvYnWym0lwBhFV1w8tPsA6giaHm9DVo2Zr6zS28TdiP0vRX44hlZu+l8rtmJrnuiu1MpcRfIcdfRGDPsoVQ3vYCCMx0p9ZMho7/u2pwFNd0ZMpzrXtLDs450Ir7VXzte9dYO3SH7ddeLOa/V5fEUCRAecxMfvC9/VANtzMx3eEZcgnuTeONx2G2grJcsEtVGGe+5+SARzo51e48fEr/obxInO6mPMx1NiA6Eq7gEeVbhPfsjIbK+616y1PpBdeJz3f15G4XLL3trR+a76TKYFWR8ijVm0DOnBAjdA+233sb4s0z+IFJefu4Se/bgXfLxJ29jswQP6f6A5byLfVPWkQRnXReLxCE71j/TfY4znWAlTVpQ4T1LiLyMP4Kai/WrryVMaU50ls0SIl/EXaUvrR8bu+7tUfayvkiA1Os+Plyj2SY4/nn2Ifuk3Xk3oh03Y9WJoBc7V8n4kyOBLxbImAi/M9OZXev2p5Px9F3yLpBzd6ixJf0z3W+9f3amgyX1EiJ/6gU1Z8mRo8Y6Ra5ngcheh5i1BB6IAvGvisRj/TjqJUWOjM/64r5fiBF7lc+lxEZmCZAf575DiX57+IvXJ0NfrN+S/o5JgLAv58m7KI56SefSfU64PqVLLkXlYcaLxB/dc8DAsu9B9rVOOdPl8ei5zZkOhrcoqDn66z6Ab3pBzaOkyZFZIPK3BwFJiQ7YUG/9+KpQLM58s8TIN73/rCXBehfryFxBRoa9y//8/vvvc18EAAAAAL4EN2cBzVEvsDnqJUlGvf9728HOmwg6zvSnfPSDkRIcULBIso56CZKZhwWgQyZN7hYU63x6sMb8mdCopTBDAgQAAAAAAKjLaDT6/281PhM73ORZAAAAAElFTkSuQmCC;" vertex="1" parent="1">
          <mxGeometry x="161" y="74.5" width="78" height="78" as="geometry" />
        </mxCell>
        <mxCell id="gpy-Rl8vgsZpeuc-Mog1-23" style="rounded=0;orthogonalLoop=1;jettySize=auto;html=1;startArrow=open;startFill=0;endArrow=open;endFill=0;strokeWidth=2;strokeColor=#3700CC;fillColor=#6a00ff;" edge="1" parent="1">
          <mxGeometry relative="1" as="geometry">
            <mxPoint x="180" y="160" as="sourcePoint" />
            <mxPoint x="180" y="336" as="targetPoint" />
          </mxGeometry>
        </mxCell>
      </root>
    </mxGraphModel>
  </diagram>
</mxfile>
